<?xml version="1.0" standalone="no"?>
<!DOCTYPE svg PUBLIC "-//W3C//DTD SVG 1.1//EN" "http://www.w3.org/Graphics/SVG/1.1/DTD/svg11.dtd" >
<svg>
<metadata>
Created by FontForge 20090622 at Thu Apr 16 14:42:28 2015
 By deploy user
2008 Lukasz Dziedzic published by FSI FontShop International GmbH
</metadata>
<defs>
<font id="ClanPro-BookItalic" horiz-adv-x="595" >
  <font-face 
    font-family="ClanPro-BookItalic"
    font-weight="450"
    font-style="italic"
    font-stretch="normal"
    units-per-em="1000"
    panose-1="2 11 6 4 2 1 1 2 1 2"
    ascent="787"
    descent="-213"
    x-height="588"
    cap-height="750"
    bbox="-175 -229 1107 967"
    underline-thickness="50"
    underline-position="-50"
    slope="-8"
    unicode-range="U+000D-U+FB02"
  />
<missing-glyph horiz-adv-x="593" 
d="M37 0v750h519v-750h-519zM73 36h447v678h-447v-678z" />
    <glyph glyph-name="f_i" unicode="fi" horiz-adv-x="590" 
d="M49 549l7 37h95q18 123 73.5 169.5t174.5 46.5l-2 -39q-85 0 -131 -35t-61 -142h274q15 0 43 4l-82 -590h-54l77 549h-263l-77 -549h-54l77 549h-97zM519 796q38 0 38 -32q0 -45 -48 -45q-40 0 -40 30q0 22 13 34.5t37 12.5z" />
    <glyph glyph-name="f_j" unicode="fj" horiz-adv-x="590" 
d="M453 97q-17 -120 -72 -174.5t-161 -70.5v38q85 15 124.5 59t54.5 147l63 451h-263l-76 -547h-54l76 547h-97l8 39h95q18 123 73.5 169.5t174.5 46.5l-2 -40q-41 0 -69.5 -6t-55 -24t-43 -54t-24.5 -92h263q20 0 54 4zM519 796q38 0 38 -32q0 -45 -48 -45q-40 0 -40 30
q0 22 13 34.5t37 12.5z" />
    <glyph glyph-name="f_l" unicode="fl" horiz-adv-x="561" 
d="M49 549l7 37h95q18 123 81.5 170t190.5 47q66 0 107 -9l-111 -794h-53l107 763q-20 4 -57 4q-102 0 -149.5 -41.5t-61.5 -139.5h165l-6 -37h-164l-77 -549h-54l77 549h-97z" />
    <glyph glyph-name=".notdef" horiz-adv-x="593" 
d="M37 0v750h519v-750h-519zM73 36h447v678h-447v-678z" />
    <glyph glyph-name=".null" horiz-adv-x="0" 
 />
    <glyph glyph-name=".null" horiz-adv-x="0" 
 />
    <glyph glyph-name="nonmarkingreturn" horiz-adv-x="333" 
 />
    <glyph glyph-name="CR" unicode="&#xd;" horiz-adv-x="362" 
 />
    <glyph glyph-name="space" unicode=" " horiz-adv-x="362" 
 />
    <glyph glyph-name="exclam" unicode="!" horiz-adv-x="303" 
d="M145 187h-38l69 563h58zM111 66q38 0 38 -29q0 -47 -49 -47q-38 0 -38 31q0 21 13.5 33t35.5 12z" />
    <glyph glyph-name="quotedbl" unicode="&#x22;" horiz-adv-x="353" 
d="M286 773h60l-44 -214h-37zM122 773h60l-44 -214h-37z" />
    <glyph glyph-name="numbersign" unicode="#" horiz-adv-x="656" 
d="M62 285h131l58 192h-161l5 40h166l64 233h42l-64 -233h134l65 233h41l-64 -233h128l-5 -40h-134l-56 -192h162l-6 -39h-167l-68 -246h-41l67 246h-134l-68 -246h-42l67 246h-126zM292 477l-57 -192h136l56 192h-135z" />
    <glyph glyph-name="dollar" unicode="$" horiz-adv-x="656" 
d="M425 827l-15 -66q99 -6 154 -38l-12 -47q-72 32 -152 38l-64 -298q44 -15 72.5 -28.5t59.5 -35.5t46.5 -53.5t15.5 -72.5q0 -119 -74.5 -178t-210.5 -61l-19 -73l-33 3l15 71q-120 6 -187 53l16 52q77 -53 180 -60l72 340l-59 22t-51 24.5t-45.5 32.5t-27.5 40.5
t-12 54.5q0 99 76 156t202 59l15 65h38zM321 362l-70 -330q109 1 169 46.5t60 133.5q0 56 -40.5 88.5t-118.5 61.5zM363 715q-104 -1 -160 -45t-56 -112q0 -49 40 -76.5t118 -54.5z" />
    <glyph glyph-name="percent" unicode="%" horiz-adv-x="693" 
d="M251 765q58 0 86 -27t28 -91q0 -230 -163 -230q-59 0 -87 28t-28 89q0 22 5 57q13 93 50 133.5t109 40.5zM246 732q-51 0 -77 -30t-37 -110q-5 -35 -5 -55q0 -48 19.5 -67t61.5 -19q50 0 75.5 30.5t37.5 110.5q4 28 4 54q0 48 -18.5 67t-60.5 19zM565 749l32 -20
l-479 -724l-33 20zM498 343q58 0 85.5 -27.5t27.5 -91.5q0 -29 -4 -57q-13 -92 -51 -133t-107 -41q-59 0 -87.5 28.5t-28.5 91.5q0 27 4 54q13 93 50.5 134.5t110.5 41.5zM493 308q-51 0 -77 -30t-38 -111q-4 -27 -4 -53q0 -48 19 -67.5t60 -19.5q51 0 77 30.5t37 109.5
q5 37 5 56q0 47 -19 66t-60 19z" />
    <glyph glyph-name="ampersand" unicode="&#x26;" horiz-adv-x="677" 
d="M363 762q65 0 99 -28t34 -75q0 -26 -7.5 -49.5t-27 -47.5t-33.5 -39.5t-47.5 -40l-47 -34l-52.5 -35.5q65 -117 172 -231q69 89 101 190h44q-12 -47 -41.5 -107t-72.5 -114q69 -71 135 -119l-26 -42q-72 52 -142 122q-117 -124 -249 -124q-87 0 -128.5 42t-41.5 111
q0 89 50.5 155.5t135.5 125.5q-46 92 -46 158q0 78 51 130t140 52zM421 143q-112 117 -183 240q-70 -53 -110 -107.5t-40 -124.5q0 -56 34.5 -87t92.5 -31q103 0 206 110zM355 722q-54 0 -93 -37.5t-39 -99.5q0 -56 37 -133l70.5 48t54.5 43.5t46.5 54t13.5 54.5
q0 33 -23.5 51.5t-66.5 18.5z" />
    <glyph glyph-name="quotesingle" unicode="'" horiz-adv-x="193" 
d="M124 773h60l-44 -214h-37z" />
    <glyph glyph-name="parenleft" unicode="(" horiz-adv-x="315" 
d="M325 803l49 -3q-230 -254 -230 -574q0 -193 99 -351l-48 -3q-100 140 -100 350q0 330 230 581z" />
    <glyph glyph-name="parenright" unicode=")" horiz-adv-x="314" 
d="M65 800l49 3q101 -156 101 -346q0 -169 -64 -324t-167 -261l-47 3q226 253 226 573q0 191 -98 352z" />
    <glyph glyph-name="asterisk" unicode="*" horiz-adv-x="348" 
d="M221 798h31l-14 -120l116 33l7 -30l-118 -35l59 -99l-27 -20l-62 100l-92 -100l-24 19l88 100l-108 35l15 30l109 -33z" />
    <glyph glyph-name="plus" unicode="+" 
d="M514 318h-196v-193h-48v193h-191v46h191v198h48v-198h196v-46z" />
    <glyph glyph-name="comma" unicode="," horiz-adv-x="240" 
d="M79 71q39 0 39 -39q0 -54 -94 -170l-18 12q37 61 58 115h-3q-32 0 -32 31q0 21 13.5 36t36.5 15z" />
    <glyph glyph-name="hyphen" unicode="-" horiz-adv-x="416" 
d="M83 359h251l-6 -39h-251z" />
    <glyph glyph-name="period" unicode="." horiz-adv-x="240" 
d="M80 71q38 0 38 -31q0 -50 -49 -50q-39 0 -39 31q0 50 50 50z" />
    <glyph glyph-name="slash" unicode="/" horiz-adv-x="428" 
d="M432 802h46l-478 -932h-45z" />
    <glyph glyph-name="zero" unicode="0" horiz-adv-x="656" 
d="M591 376q-30 -211 -103 -299t-212 -88q-114 0 -166.5 56.5t-52.5 186.5q0 62 12 144q30 212 102.5 298t213.5 86q113 0 165.5 -55t52.5 -184q0 -63 -12 -145zM537 376q12 83 12 141q0 110 -41 153.5t-129 43.5q-74 0 -122 -28t-82 -103t-52 -207q-11 -74 -11 -140
q0 -112 41 -156.5t130 -44.5q74 0 121.5 29t81 104t51.5 208z" />
    <glyph glyph-name="one" unicode="1" horiz-adv-x="656" 
d="M141 0l5 40h151l84 597q5 31 7 40l-2 2q-10 -9 -33 -23l-158 -98l-1 48l228 147h32l-100 -713h142l-5 -40h-350z" />
    <glyph glyph-name="two" unicode="2" horiz-adv-x="656" 
d="M380 758q103 0 158 -42t55 -119q0 -53 -24.5 -108t-61 -103t-103 -109t-125.5 -108l-154 -119v-3h402l-9 -47h-474l5 36l79 64.5l80.5 65.5l72.5 61t71 63.5l59.5 59t53.5 61.5t37 57t27 59.5t8 55.5q0 58 -42 93t-128 35q-111 0 -213 -80l-11 42q106 85 237 85z" />
    <glyph glyph-name="three" unicode="3" horiz-adv-x="656" 
d="M377 758q101 0 155.5 -38t54.5 -111q0 -85 -49 -135t-127 -68v-2q74 -13 111.5 -48.5t37.5 -98.5q0 -119 -79 -192t-220 -73q-129 0 -215 62l20 44q84 -62 201 -62q113 0 176.5 62t63.5 157q0 69 -58.5 99t-188.5 30l6 40q269 0 269 175q0 56 -43.5 84.5t-122.5 28.5
q-115 0 -216 -78l-12 39q103 85 236 85z" />
    <glyph glyph-name="four" unicode="4" horiz-adv-x="656" 
d="M570 180h-104l-25 -180h-51l25 180h-358v34l419 536h70l-74 -524h107zM422 226l66 439q3 19 8 41l-2 1l-25 -34l-322 -415q-11 -15 -26 -30l1 -2h300z" />
    <glyph glyph-name="five" unicode="5" horiz-adv-x="656" 
d="M585 750l-4 -48h-357l-51 -231q-8 -33 -10 -39l1 -1q79 38 181 38q209 0 209 -167q0 -21 -4 -49q-38 -261 -289 -261q-122 0 -202 63l18 44q84 -63 187 -63q202 0 231 213q3 23 3 43q0 69 -41.5 101t-129.5 32q-108 0 -197 -48l-21 20l79 353h397z" />
    <glyph glyph-name="six" unicode="6" horiz-adv-x="656" 
d="M360 470q105 0 154.5 -40t49.5 -123q0 -28 -4 -53q-37 -262 -282 -262q-107 0 -160 54.5t-53 181.5q0 52 9 120q58 410 359 410q83 0 156 -30l-14 -45q-66 28 -143 28q-123 0 -198 -79t-102 -245l1 -1q101 84 227 84zM344 429q-54 0 -115 -25.5t-101 -67.5
q-8 -64 -8 -106q0 -103 40 -148.5t125 -45.5q94 0 150 55.5t71 162.5q3 22 3 43q0 68 -40 100t-125 32z" />
    <glyph glyph-name="seven" unicode="7" horiz-adv-x="656" 
d="M644 750l-6 -43l-441 -707h-64l428 667q10 16 23 32l-1 2h-455l10 49h506z" />
    <glyph glyph-name="eight" unicode="8" horiz-adv-x="656" 
d="M385 758q201 0 201 -146q0 -156 -167 -221v-2q67 -22 105 -57.5t38 -99.5q0 -16 -3 -34q-28 -207 -282 -207q-117 0 -172.5 41t-55.5 124q0 171 193 243v2q-52 22 -81 55t-29 88q0 101 64 157.5t189 56.5zM284 35q100 0 162 46.5t62 138.5q0 20 -5.5 36.5t-13.5 29
t-23 24t-27 18.5t-34 15.5t-35.5 13l-39 12.5l-38.5 12q-91 -36 -141 -86t-50 -132q0 -64 43.5 -96t139.5 -32zM379 716q-93 0 -144.5 -43t-51.5 -122q0 -57 40 -84.5t149 -60.5q86 33 125 79.5t39 114.5q0 116 -157 116z" />
    <glyph glyph-name="nine" unicode="9" horiz-adv-x="656" 
d="M370 758q107 0 163.5 -62t56.5 -186q0 -46 -7 -92q-32 -226 -116.5 -326t-230.5 -100q-90 0 -160 33l15 43q69 -31 146 -31q121 0 191 83.5t100 270.5l-2 2q-91 -76 -215 -76q-215 0 -215 174q0 125 71 196t203 71zM532 441q5 43 5 73q0 200 -174 200q-100 0 -157 -55.5
t-57 -156.5q0 -143 173 -143q131 0 210 82z" />
    <glyph glyph-name="colon" unicode=":" horiz-adv-x="240" 
d="M149 560q37 0 37 -33q0 -23 -13 -35.5t-35 -12.5q-39 0 -39 31q0 50 50 50zM80 71q38 0 38 -31q0 -50 -49 -50q-39 0 -39 31q0 50 50 50z" />
    <glyph glyph-name="semicolon" unicode=";" horiz-adv-x="246" 
d="M154 560q37 0 37 -33q0 -23 -13 -35.5t-35 -12.5q-39 0 -39 31q0 50 50 50zM80 71q39 0 39 -39q0 -54 -94 -170l-18 12q37 61 58 115h-3q-32 0 -32 31q0 21 13.5 36t36.5 15z" />
    <glyph glyph-name="less" unicode="&#x3c;" 
d="M501 516l-303 -158q-19 -10 -37 -17v-2q18 -7 37 -17l303 -150v-50l-408 206v24l408 215v-51z" />
    <glyph glyph-name="equal" unicode="=" 
d="M516 402h-439v42h439v-42zM516 237h-439v42h439v-42z" />
    <glyph glyph-name="greater" unicode="&#x3e;" 
d="M93 122v50l301 149q12 7 37 17v2q-13 5 -36 18l-302 158v51l408 -215v-24z" />
    <glyph glyph-name="question" unicode="?" horiz-adv-x="518" 
d="M321 763q177 0 177 -137q0 -93 -58 -161t-170 -127l-24 -151h-43l20 170q114 68 167 124t53 133q0 104 -133 104q-106 0 -205 -80l-17 37q98 88 233 88zM210 66q37 0 37 -29q0 -47 -48 -47q-40 0 -40 31q0 21 13.5 33t37.5 12z" />
    <glyph glyph-name="at" unicode="@" horiz-adv-x="844" 
d="M472 553q62 0 85 -47h2l18 40l33 -3l-81 -255q-10 -30 -10 -55q0 -65 67 -65q62 0 106.5 60.5t60.5 174.5q5 40 5 69q0 124 -67.5 198.5t-193.5 74.5t-221 -74t-141.5 -186.5t-46.5 -241.5q0 -145 74 -227t221 -82q184 0 297 99l12 -32q-132 -101 -314 -101
q-160 0 -244 89.5t-84 250.5q0 81 19 158.5t57 146.5t91.5 121t127 82.5t158.5 30.5q138 0 215 -82t77 -220q0 -31 -5 -73q-20 -135 -78 -205t-138 -70q-89 0 -92 87l-2 1q-62 -88 -146 -88q-49 0 -76.5 29.5t-27.5 87.5q0 115 75 211t167 96zM486 300l54 170q-17 43 -73 43
q-68 0 -128 -80.5t-60 -176.5q0 -85 72 -85q42 0 80 36.5t55 92.5z" />
    <glyph glyph-name="A" unicode="A" horiz-adv-x="696" 
d="M555 0l-47 206h-366l-103 -206h-62l392 750h69l181 -750h-64zM398 707h-2q-4 -11 -17 -37l-213 -418h332l-92 415q-6 24 -8 40z" />
    <glyph glyph-name="B" unicode="B" horiz-adv-x="685" 
d="M426 750q184 0 184 -143q0 -91 -40 -142.5t-103 -66.5v-2q125 -22 125 -146q0 -18 -3 -41q-15 -103 -74.5 -156t-176.5 -53h-274l105 750h257zM172 372l-46 -326h219q80 0 127.5 39t59.5 128q3 19 3 38q0 121 -149 121h-214zM218 704l-40 -290h209q79 0 123 46t44 135
q0 57 -34 83t-103 26h-199z" />
    <glyph glyph-name="C" unicode="C" horiz-adv-x="614" 
d="M443 762q103 0 170 -37l-15 -47q-67 36 -159 36q-135 0 -206.5 -74.5t-97.5 -256.5q-10 -75 -10 -120q0 -124 53.5 -176t167.5 -52q88 0 170 40l3 -43q-86 -45 -186 -45q-138 0 -202.5 66t-64.5 209q0 64 9 122q29 198 117.5 288t250.5 90z" />
    <glyph glyph-name="D" unicode="D" horiz-adv-x="743" 
d="M169 750h243q140 0 205 -60.5t65 -196.5q0 -51 -9 -116q-28 -202 -115.5 -289.5t-249.5 -87.5h-244zM220 700l-91 -650h185q133 0 203.5 71.5t96.5 256.5q9 62 9 110q0 116 -52.5 164t-166.5 48h-184z" />
    <glyph glyph-name="E" unicode="E" horiz-adv-x="628" 
d="M127 48h403l-8 -48h-458l105 750h439l-4 -48h-385l-40 -285h334l-6 -46h-334z" />
    <glyph glyph-name="F" unicode="F" horiz-adv-x="596" 
d="M603 700h-383l-41 -288h322l-6 -47h-322l-51 -365h-57l106 750h437z" />
    <glyph glyph-name="G" unicode="G" horiz-adv-x="684" 
d="M615 393l-51 -362q-93 -45 -218 -45q-144 0 -212.5 64t-68.5 206q0 52 9 116q29 208 120.5 299t261.5 91q107 0 188 -38l-15 -48q-78 39 -177 39q-142 0 -216.5 -75.5t-101.5 -267.5q-9 -64 -9 -115q0 -119 53.5 -170.5t171.5 -51.5q92 0 165 31l46 327h54z" />
    <glyph glyph-name="H" unicode="H" horiz-adv-x="762" 
d="M597 0h-57l51 369h-418l-51 -369h-58l105 750h58l-47 -333h418l47 333h57z" />
    <glyph glyph-name="I" unicode="I" horiz-adv-x="315" 
d="M79 0l105 750h58l-105 -750h-58z" />
    <glyph glyph-name="J" unicode="J" horiz-adv-x="549" 
d="M489 750l-72 -513q-19 -131 -82.5 -189.5t-183.5 -58.5q-44 0 -87.5 12.5t-70.5 33.5l14 46q55 -45 147 -45t141.5 46.5t64.5 154.5l72 513h57z" />
    <glyph glyph-name="K" unicode="K" horiz-adv-x="693" 
d="M607 0h-76l-230 371h-127l-52 -371h-58l105 750h58l-47 -333h127l314 333h74l-334 -353z" />
    <glyph glyph-name="L" unicode="L" horiz-adv-x="578" 
d="M128 49h377l-9 -49h-432l105 750h58z" />
    <glyph glyph-name="M" unicode="M" horiz-adv-x="912" 
d="M169 750h70l167 -638q9 -37 9 -40h2l18 36l349 642h69l-105 -750h-52l87 623q3 19 8 41l-2 1l-361 -665h-45l-176 660h-2q-2 -30 -4 -41l-86 -619h-51z" />
    <glyph glyph-name="N" unicode="N" horiz-adv-x="767" 
d="M602 0h-43l-350 669h-2q0 -15 -4 -41l-87 -628h-52l105 750h60l336 -650h2q0 14 4 40l85 610h51z" />
    <glyph glyph-name="O" unicode="O" horiz-adv-x="738" 
d="M668 375q-29 -211 -108.5 -299.5t-241.5 -88.5q-134 0 -194.5 59.5t-60.5 195.5q0 54 11 133q30 210 110.5 298.5t242.5 88.5q133 0 192.5 -58.5t59.5 -191.5q0 -57 -11 -137zM609 375q11 80 11 134q0 115 -47 160t-153 45q-131 0 -195 -72.5t-91 -266.5
q-11 -80 -11 -132q0 -115 47.5 -161.5t153.5 -46.5q130 0 194 73.5t91 266.5z" />
    <glyph glyph-name="P" unicode="P" horiz-adv-x="646" 
d="M169 750h238q110 0 161.5 -39t51.5 -124q0 -29 -4 -54q-16 -114 -80.5 -167.5t-190.5 -53.5h-180l-43 -312h-58zM220 703l-48 -345h180q98 0 145.5 41t60.5 133q3 24 3 44q0 68 -39.5 97.5t-121.5 29.5h-180z" />
    <glyph glyph-name="Q" unicode="Q" horiz-adv-x="738" 
d="M668 375q-27 -195 -97.5 -284.5t-206.5 -99.5l165 -129l-87 -17l-145 143q-122 5 -178 64.5t-56 189.5q0 54 11 133q30 210 110.5 298.5t242.5 88.5q133 0 192.5 -58.5t59.5 -191.5q0 -57 -11 -137zM609 375q11 80 11 134q0 115 -47 160t-153 45q-131 0 -195 -72.5
t-91 -266.5q-11 -80 -11 -132q0 -115 47.5 -161.5t153.5 -46.5q130 0 194 73.5t91 266.5z" />
    <glyph glyph-name="R" unicode="R" horiz-adv-x="651" 
d="M169 750h242q190 0 190 -153q0 -219 -195 -242l164 -355h-71l-150 346h-179l-48 -346h-58zM220 703l-44 -312h178q188 0 188 198q0 60 -34 87t-105 27h-183z" />
    <glyph glyph-name="S" unicode="S" horiz-adv-x="563" 
d="M355 762q108 0 184 -41l-17 -46q-83 39 -171 39q-97 0 -148.5 -47.5t-51.5 -116.5q0 -34 19 -58.5t49 -40t66.5 -28.5t73 -27.5t66.5 -33.5t49 -51t19 -75q0 -115 -74 -182t-199 -67q-121 0 -205 58l19 48q78 -58 191 -58q95 0 153.5 50.5t58.5 137.5q0 42 -25.5 71.5
t-63.5 45l-82 33t-82 34.5t-63.5 51.5t-25.5 81.5q0 96 69 159t191 63z" />
    <glyph glyph-name="T" unicode="T" horiz-adv-x="574" 
d="M603 701h-240l-98 -701h-57l98 701h-239l9 49h532z" />
    <glyph glyph-name="U" unicode="U" horiz-adv-x="744" 
d="M701 750l-67 -478q-21 -149 -100.5 -217.5t-213.5 -68.5q-240 0 -240 216q0 39 5 70l67 478h57l-68 -480q-4 -28 -4 -59q0 -90 47 -132.5t143 -42.5q110 0 171.5 57t78.5 177l68 480h56z" />
    <glyph glyph-name="V" unicode="V" horiz-adv-x="682" 
d="M645 750h60l-379 -750h-69l-171 750h65l140 -657q6 -25 7 -40h2q3 9 17 37z" />
    <glyph glyph-name="W" unicode="W" horiz-adv-x="994" 
d="M520 750h67l76 -657q4 -32 4 -41h2q5 20 13 38l246 660h57l-289 -750h-73l-74 657q-2 11 -4 41h-2q-2 -7 -7 -20l-7 -18l-258 -660h-72l-80 750h59l61 -660q3 -39 3 -41h2q7 22 14 38z" />
    <glyph glyph-name="X" unicode="X" horiz-adv-x="689" 
d="M520 0l-160 317q-11 21 -18 38h-2q-4 -7 -25 -34l-245 -321h-70l306 392l-191 358h71l147 -290q11 -21 18 -38h2q6 10 25 34l229 294h68l-288 -364l202 -386h-69z" />
    <glyph glyph-name="Y" unicode="Y" horiz-adv-x="653" 
d="M86 750h68l154 -392q7 -16 14 -38h2q11 21 21 34l267 396h64l-332 -483l-37 -267h-59l37 267z" />
    <glyph glyph-name="Z" unicode="Z" horiz-adv-x="618" 
d="M504 0h-498l5 36l500 634q16 20 26 29l-1 2h-418l10 49h482l-6 -42l-495 -628q-12 -15 -26 -29l1 -2h428z" />
    <glyph glyph-name="bracketleft" unicode="[" horiz-adv-x="310" 
d="M38 -125l130 927h200l-5 -39h-151l-120 -850h152l-5 -38h-201z" />
    <glyph glyph-name="backslash" unicode="\" horiz-adv-x="390" 
d="M86 802h44l177 -932h-44z" />
    <glyph glyph-name="bracketright" unicode="]" horiz-adv-x="310" 
d="M266 802l-130 -927h-200l5 38h152l120 850h-153l5 39h201z" />
    <glyph glyph-name="asciicircum" unicode="^" horiz-adv-x="656" 
d="M531 462l-204 299l-203 -299h-50l234 343h40l232 -343h-49z" />
    <glyph glyph-name="underscore" unicode="_" horiz-adv-x="439" 
d="M-25 -51h373l-5 -36h-373z" />
    <glyph glyph-name="grave" unicode="`" horiz-adv-x="395" 
d="M309 667h-44l-82 141h72z" />
    <glyph glyph-name="a" unicode="a" horiz-adv-x="590" 
d="M393 597q29 0 69.5 -4.5t55.5 -4.5h16l-82 -588h-43l4 68q2 26 5 41l-2 1q-76 -119 -215 -119q-81 0 -122 44t-41 141q0 195 96 308t259 113zM217 34q82 0 141.5 57.5t73.5 154.5l43 302q-68 5 -89 5q-122 0 -194.5 -74.5t-91.5 -214.5q-7 -54 -7 -82q0 -77 31 -112.5
t93 -35.5z" />
    <glyph glyph-name="b" unicode="b" horiz-adv-x="594" 
d="M375 598q79 0 119.5 -46t40.5 -151q0 -54 -8 -107q-42 -303 -279 -303q-56 0 -110.5 19t-87.5 48l104 740l54 5l-38 -275l-7 -42l2 -1q74 113 210 113zM358 554q-82 0 -141 -57t-73 -155l-37 -262q57 -46 144 -46q94 0 147.5 62t72.5 199q8 61 8 100q0 87 -30.5 123
t-90.5 36z" />
    <glyph glyph-name="c" unicode="c" horiz-adv-x="494" 
d="M331 598q81 0 144 -35l-22 -38q-59 27 -124 27q-96 0 -151 -63.5t-73 -195.5q-7 -49 -7 -92q0 -90 36 -128.5t107 -38.5q89 0 156 62l17 -34q-77 -71 -188 -71q-184 0 -184 210q0 45 7 94q21 150 92 226.5t190 76.5z" />
    <glyph glyph-name="d" unicode="d" horiz-adv-x="592" 
d="M341 598q76 0 137 -22l32 222l54 5l-112 -803h-40v62q0 15 2 41l-2 1q-76 -113 -212 -113q-79 0 -119.5 46t-40.5 150q0 51 8 103q22 153 96.5 230.5t196.5 77.5zM217 34q83 0 142 60t74 162l39 276q-53 22 -132 22q-200 0 -237 -267q-8 -59 -8 -96q0 -85 31 -121t91 -36
z" />
    <glyph glyph-name="e" unicode="e" horiz-adv-x="509" 
d="M324 598q78 0 117 -31t39 -80q0 -86 -89 -140.5t-292 -77.5q-4 -32 -4 -66q0 -91 37 -129.5t110 -38.5q106 0 174 62l16 -33q-78 -73 -203 -73q-187 0 -187 211q0 45 7 93q21 149 90.5 226t184.5 77zM319 556q-175 0 -214 -247q176 19 251 61.5t75 108.5q0 35 -28.5 56
t-83.5 21z" />
    <glyph glyph-name="f" unicode="f" horiz-adv-x="357" 
d="M49 549l7 37h95q18 123 73.5 169.5t174.5 46.5l-2 -39q-84 0 -130.5 -35t-61.5 -142h175l-8 -37h-172l-77 -549h-54l77 549h-97z" />
    <glyph glyph-name="g" unicode="g" horiz-adv-x="589" 
d="M533 588l-68 -485q-19 -134 -85.5 -192.5t-182.5 -58.5q-90 0 -160 39l15 41q71 -37 143 -37q93 0 147 45.5t70 159.5l5 37l-2 1q-63 -108 -190 -108q-81 0 -123.5 42.5t-42.5 141.5q0 178 88.5 280t240.5 102q30 0 73.5 -4t61.5 -4h10zM241 72q79 0 130.5 55.5
t65.5 155.5l38 265q-68 5 -92 5q-120 0 -195 -88.5t-75 -246.5q0 -80 32 -113t96 -33z" />
    <glyph glyph-name="h" unicode="h" horiz-adv-x="597" 
d="M469 0h-54l53 380q4 29 4 58q0 62 -27.5 88.5t-86.5 26.5q-85 0 -143 -56t-72 -156l-47 -341h-54l112 797l54 6l-38 -273q-5 -31 -7 -40l2 -1q73 109 209 109q153 0 153 -157q0 -24 -5 -61z" />
    <glyph glyph-name="i" unicode="i" horiz-adv-x="255" 
d="M104 0h-54l82 586l54 4zM187 796q38 0 38 -32q0 -45 -48 -45q-40 0 -40 30q0 22 13 34.5t37 12.5z" />
    <glyph glyph-name="j" unicode="j" horiz-adv-x="282" 
d="M214 590l-69 -493q-17 -119 -71.5 -174t-160.5 -71v38q84 15 123.5 59t54.5 147l69 490zM213 796q38 0 38 -32q0 -45 -48 -45q-40 0 -40 30q0 22 13 34.5t37 12.5z" />
    <glyph glyph-name="k" unicode="k" horiz-adv-x="582" 
d="M96 0h-54l112 797l54 6l-48 -347q-5 -31 -7 -40l2 -1q46 87 113.5 135t141.5 48q113 0 113 -98q0 -73 -59 -138.5t-166 -102.5q30 -92 89.5 -152.5t132.5 -72.5l-11 -42q-91 9 -165.5 87t-107.5 202q111 29 172 87t61 120q0 65 -75 65q-92 0 -171 -100.5t-100 -256.5z
" />
    <glyph glyph-name="l" unicode="l" horiz-adv-x="238" 
d="M96 0h-54l112 797l54 6z" />
    <glyph glyph-name="m" unicode="m" horiz-adv-x="879" 
d="M367 0l52 371q5 42 5 67q0 61 -23 87.5t-72 26.5q-76 0 -127 -56t-64 -155l-47 -341h-53l82 586l43 5l-7 -99l2 -1q65 107 187 107q118 0 130 -122l2 -1q32 59 82.5 91t114.5 32q133 0 133 -156q0 -38 -5 -71l-52 -371h-54l52 371q5 42 5 67q0 61 -23 87.5t-72 26.5
q-75 0 -126 -56t-64 -156l-47 -340h-54z" />
    <glyph glyph-name="n" unicode="n" horiz-adv-x="593" 
d="M410 0l53 379q4 29 4 58q0 63 -27.5 89.5t-86.5 26.5q-85 0 -143 -56t-72 -156l-47 -341h-54l82 586l43 5l-7 -106l2 -1q72 114 212 114q153 0 153 -157q0 -24 -5 -61l-53 -380h-54z" />
    <glyph glyph-name="o" unicode="o" horiz-adv-x="576" 
d="M316 554q-95 0 -144 -59.5t-68 -201.5q-8 -52 -8 -101q0 -87 34.5 -123t111.5 -36q94 0 143.5 60t69.5 202q8 59 8 98q0 87 -35 124t-112 37zM324 598q102 0 148 -47t46 -153q0 -42 -8 -104q-23 -160 -87 -232t-188 -72q-102 0 -148 47t-46 152q0 54 8 106q22 159 86 231
t189 72z" />
    <glyph glyph-name="p" unicode="p" horiz-adv-x="590" 
d="M371 598q79 0 119.5 -45.5t40.5 -151.5q0 -54 -8 -107q-42 -303 -266 -303q-100 0 -160 50l-2 -1q-1 -6 -2.5 -20.5t-2.5 -20.5l-20 -142h-53l103 730l43 5l-5 -73q-2 -30 -4 -40l2 -1q75 120 215 120zM354 554q-82 0 -141.5 -57t-73.5 -155l-37 -257q56 -51 146 -51
q93 0 146.5 63.5t72.5 197.5q8 61 8 100q0 87 -30.5 123t-90.5 36z" />
    <glyph glyph-name="q" unicode="q" horiz-adv-x="590" 
d="M393 597q32 0 74 -4t60 -4h7l-103 -732h-54l29 206q3 19 8 41l-2 1q-75 -114 -211 -114q-81 0 -122 44t-41 141q0 195 96 308t259 113zM217 33q82 0 141.5 57t73.5 155l43 303q-68 5 -88 5q-122 0 -195 -74.5t-92 -214.5q-7 -54 -7 -82q0 -149 124 -149z" />
    <glyph glyph-name="r" unicode="r" horiz-adv-x="428" 
d="M361 596q41 0 70 -12l-15 -49q-26 11 -65 11q-82 0 -143.5 -71t-78.5 -199l-38 -276h-53l82 586l43 4l-9 -105q-2 -26 -4 -40l2 -1q72 152 209 152z" />
    <glyph glyph-name="s" unicode="s" horiz-adv-x="486" 
d="M294 598q88 0 150 -38l-21 -38q-61 32 -138 32q-67 0 -110 -31.5t-43 -80.5q0 -34 28.5 -58.5t69 -40.5t81.5 -34t69.5 -50t28.5 -78q0 -86 -58 -137.5t-161 -51.5q-52 0 -99 17t-77 45l22 39q58 -58 157 -58q77 0 120 39t43 97q0 32 -20.5 56.5t-51.5 38.5l-67.5 30.5
l-67.5 31.5t-51.5 42.5t-20.5 63.5q0 76 59 120t158 44z" />
    <glyph glyph-name="t" unicode="t" horiz-adv-x="408" 
d="M62 547l10 40h91l32 162l43 9l-24 -171h175l-9 -40h-172l-51 -368q-4 -25 -4 -51q0 -92 75 -92q44 0 91 31l6 -37q-54 -37 -115 -37q-56 0 -83.5 30t-27.5 96q0 29 4 58l52 370h-93z" />
    <glyph glyph-name="u" unicode="u" horiz-adv-x="580" 
d="M534 588l-57 -404q-13 -93 -73.5 -144.5t-165.5 -51.5q-93 0 -140 41t-47 116q0 18 3 39l57 402l54 5l-57 -406q-2 -11 -2 -32q0 -118 138 -118q77 0 123 38.5t57 111.5l56 403h54z" />
    <glyph glyph-name="v" unicode="v" horiz-adv-x="578" 
d="M507 599q20 -57 20 -120q0 -89 -25.5 -171t-64 -138t-83 -98t-82.5 -62t-62 -20q-51 0 -94 71.5t-43 198.5q0 57 8 110l30 216l53 4l-30 -220q-9 -62 -9 -112q0 -104 30 -161.5t65 -57.5q19 0 49.5 19t65.5 58t66 89.5t51.5 121t20.5 145.5q0 56 -16 110z" />
    <glyph glyph-name="w" unicode="w" horiz-adv-x="876" 
d="M805 599q20 -57 20 -120q0 -89 -23.5 -170.5t-58.5 -137.5t-75.5 -98.5t-76 -62.5t-58.5 -20q-42 0 -80 62t-43 175h-1q-45 -109 -112.5 -173t-105.5 -64q-44 0 -81.5 70.5t-37.5 192.5q0 54 9 117l30 216l53 4l-30 -220q-9 -68 -9 -120q0 -98 24.5 -154t53.5 -56
q14 0 43 24t62.5 66t63 112.5t40.5 149.5l27 196h54l-30 -217q-9 -64 -9 -116q0 -102 27.5 -158.5t61.5 -56.5q14 0 40.5 18t59 55.5t61 87t48 121.5t19.5 150q0 56 -16 110z" />
    <glyph glyph-name="x" unicode="x" horiz-adv-x="588" 
d="M151 591l115 -218q13 -23 18 -36h2q5 8 25 32l178 219h62l-235 -286l164 -302h-66l-121 236q-12 22 -18 38h-2q-8 -12 -26 -34l-198 -240h-65l260 308l-155 279z" />
    <glyph glyph-name="y" unicode="y" horiz-adv-x="571" 
d="M483 588h54q-71 -246 -185.5 -438.5t-271.5 -294.5l-18 39q102 75 171 166l-166 525l57 5l134 -447q4 -19 11 -39h2q137 202 212 484z" />
    <glyph glyph-name="z" unicode="z" horiz-adv-x="545" 
d="M502 551l-386 -477q-12 -15 -26 -29l1 -2h343l-8 -43h-404l5 36l388 479q12 15 26 29l-1 2h-329l8 42h388z" />
    <glyph glyph-name="braceleft" unicode="{" horiz-adv-x="359" 
d="M249 440q-5 -36 -26 -62.5t-54 -36.5v-2q53 -18 53 -79q0 -13 -1 -19q-7 -46 -25.5 -119t-24.5 -118q-2 -14 -2 -20q0 -66 99 -66h27l-6 -41h-25q-77 0 -112 24t-35 72q0 7 2 25q7 48 28 123.5t27 120.5q0 2 0.5 6t0.5 6q0 30 -19.5 49.5t-54.5 23.5l4 27q39 3 65 26
t31 59q6 45 6.5 120.5t7.5 123.5q9 60 51 90.5t128 30.5h25l-5 -42h-27q-61 0 -88 -21t-33 -64q-6 -46 -8 -118.5t-9 -118.5z" />
    <glyph glyph-name="bar" unicode="|" horiz-adv-x="275" 
d="M116 -177v994h42v-994h-42z" />
    <glyph glyph-name="braceright" unicode="}" horiz-adv-x="360" 
d="M105 241q12 78 79 98v2q-52 17 -52 80q0 12 1 19q7 46 26 118.5t25 118.5q1 6 1 18q0 34 -22.5 50.5t-75.5 16.5h-27l5 42h25q146 0 146 -97q0 -8 -2 -24q-7 -48 -27.5 -123.5t-26.5 -120.5q-1 -4 -1 -12q0 -31 20 -50.5t55 -22.5l-4 -27q-40 -4 -66 -27t-31 -58
q-7 -46 -8 -121.5t-7 -122.5q-9 -61 -50.5 -91t-127.5 -30h-24l6 41h26q59 0 87 21t34 65q7 46 8.5 118.5t7.5 118.5z" />
    <glyph glyph-name="asciitilde" unicode="~" horiz-adv-x="656" 
d="M145 651h-37q21 113 118 113q38 0 104 -37t97 -37q35 0 54 15.5t28 48.5h37q-22 -112 -119 -112q-38 0 -103.5 37t-96.5 37q-64 0 -82 -65z" />
    <glyph glyph-name="uni00A0" unicode="&#xa0;" horiz-adv-x="362" 
 />
    <glyph glyph-name="exclamdown" unicode="&#xa1;" horiz-adv-x="303" 
d="M149 480h42l-79 -616h-59zM195 673q39 0 39 -29q0 -47 -50 -47q-37 0 -37 29q0 47 48 47z" />
    <glyph glyph-name="cent" unicode="&#xa2;" horiz-adv-x="656" 
d="M409 733h45l-28 -137q58 -6 109 -33l-22 -38q-59 27 -124 27q-96 0 -151 -63.5t-73 -195.5q-7 -49 -7 -92q0 -90 36 -128.5t107 -38.5q89 0 156 62l17 -34q-64 -59 -150 -69l-28 -145h-45l27 143q-87 2 -131.5 52.5t-44.5 157.5q0 46 7 94q42 297 274 303z" />
    <glyph glyph-name="sterling" unicode="&#xa3;" horiz-adv-x="656" 
d="M95 356l4 43h54q-10 70 -10 105q0 112 67.5 183.5t216.5 71.5q111 0 183 -44l-15 -45q-71 42 -169 42q-119 0 -173.5 -58.5t-54.5 -152.5q0 -23 9 -102h277l-6 -43h-267q1 -14 1 -43q0 -196 -113 -270l1 -2q91 15 233 15q109 0 226 -13l-12 -49q-147 15 -243 15
q-133 0 -283 -14l4 45q70 28 102 101t32 169q0 32 -1 46h-63z" />
    <glyph glyph-name="currency" unicode="&#xa4;" horiz-adv-x="656" 
d="M349 526q60 0 99 -36l78 67l25 -30l-78 -68q22 -36 22 -78q0 -70 -48 -121l57 -67l-35 -30l-56 65q-52 -36 -111 -36t-97 36l-75 -65l-25 30l74 65q-22 35 -22 77q0 69 51 127l-55 65l34 30l56 -66q49 35 106 35zM344 488q-58 0 -102.5 -44t-44.5 -103q0 -47 31 -78
t80 -31q59 0 103 43t44 103q0 48 -31 79t-80 31z" />
    <glyph glyph-name="yen" unicode="&#xa5;" horiz-adv-x="656" 
d="M157 320h124l-178 430h66l143 -381q1 -2 6 -16.5t7 -21.5h2q4 7 21 34l252 385h63l-294 -430h119l-5 -38h-133l-8 -58h134l-5 -37h-134l-26 -187h-59l26 187h-139l5 37h139l8 58h-139z" />
    <glyph glyph-name="brokenbar" unicode="&#xa6;" horiz-adv-x="275" 
d="M116 375v442h42v-442h-42zM116 -173v451h42v-451h-42z" />
    <glyph glyph-name="section" unicode="&#xa7;" horiz-adv-x="558" 
d="M357 794q114 0 177 -51l-14 -40q-69 50 -167 50q-78 0 -123.5 -32t-45.5 -86q0 -34 33 -63.5t79.5 -53.5l93 -50.5t79.5 -68t33 -92.5q0 -53 -32.5 -99.5t-99.5 -70.5v-2q77 -51 77 -113q0 -76 -62 -121t-165 -45q-111 0 -177 51l14 40q67 -50 167 -50q78 0 123 31.5
t45 85.5q0 35 -32.5 64.5t-79.5 53.5t-93.5 50.5t-79 67.5t-32.5 92q0 52 32 99t99 72v2q-77 51 -77 113q0 76 62 121t166 45zM247 487q-60 -17 -89.5 -53t-29.5 -81q0 -22 9.5 -43t21 -35.5t37 -32.5t40 -27t48.5 -27.5t46 -25.5q59 17 89.5 53t30.5 80q0 22 -10 43
t-21 35.5t-37 33t-40.5 27l-48.5 27.5z" />
    <glyph glyph-name="dieresis" unicode="&#xa8;" horiz-adv-x="355" 
d="M169 793q28 0 28 -26q0 -42 -38 -42q-27 0 -27 25q0 20 10 31.5t27 11.5zM317 793q27 0 27 -26q0 -42 -37 -42q-29 0 -29 25q0 43 39 43z" />
    <glyph glyph-name="copyright" unicode="&#xa9;" horiz-adv-x="928" 
d="M523 772q148 0 245 -97t97 -241q0 -118 -64.5 -222t-168.5 -165t-219 -61q-149 0 -246 97t-97 241q0 88 37.5 171t99.5 143.5t145 97t171 36.5zM518 740q-107 0 -203 -56.5t-153 -151.5t-57 -201q0 -132 87.5 -223t223.5 -91q106 0 202.5 56.5t155.5 152.5t59 205
q0 131 -89 220t-226 89zM513 636q87 0 140 -41l-10 -40q-55 36 -127 36q-109 0 -177 -71t-68 -178q0 -80 49.5 -129.5t135.5 -49.5q80 0 152 46l2 -37q-80 -55 -168 -55q-103 0 -164 60t-61 158q0 122 81.5 211.5t214.5 89.5z" />
    <glyph glyph-name="ordfeminine" unicode="&#xaa;" horiz-adv-x="441" 
d="M334 818q21 0 50 -3t40 -3h13l-58 -408h-38l2 34q0 15 4 41l-2 1q-53 -82 -147 -82q-60 0 -88.5 32t-28.5 99q0 131 68 210t185 79zM213 437q56 0 95.5 40t49.5 108l27 193q-48 3 -53 3q-95 0 -148.5 -66t-53.5 -180q0 -51 20.5 -74.5t62.5 -23.5z" />
    <glyph glyph-name="guillemotleft" unicode="&#xab;" horiz-adv-x="608" 
d="M516 466l-238 -136l200 -135l-6 -43l-253 175l1 7l302 175zM322 466l-238 -136l200 -135l-6 -43l-253 175l1 7l302 175z" />
    <glyph glyph-name="logicalnot" unicode="&#xac;" horiz-adv-x="656" 
d="M486 318h-364v48h410v-207h-46v159z" />
    <glyph glyph-name="uni00AD" unicode="&#xad;" horiz-adv-x="416" 
d="M83 359h251l-6 -39h-251z" />
    <glyph glyph-name="registered" unicode="&#xae;" horiz-adv-x="455" 
d="M295 838q64 0 106 -42t42 -104q0 -78 -59 -136.5t-137 -58.5q-64 0 -106.5 42t-42.5 105q0 78 60.5 136t136.5 58zM293 817q-68 0 -120.5 -50.5t-52.5 -118.5q0 -56 37 -93t94 -37q67 0 118.5 51.5t51.5 119.5q0 55 -36.5 91.5t-91.5 36.5zM214 771h83q64 0 64 -47
q0 -24 -14 -42t-38 -23l40 -86h-32l-36 84h-55l-12 -84h-28zM239 748l-10 -70h60q21 0 32.5 12t11.5 30q0 28 -39 28h-55z" />
    <glyph glyph-name="macron" unicode="&#xaf;" horiz-adv-x="365" 
d="M371 763l-5 -34h-258l5 34h258z" />
    <glyph glyph-name="degree" unicode="&#xb0;" horiz-adv-x="359" 
d="M105 694q7 51 47 86.5t91 35.5q46 0 76 -29.5t30 -74.5q0 -55 -42 -97t-98 -42q-45 0 -75 30.5t-30 74.5q0 10 1 16zM136 694q-1 -4 -1 -13q0 -32 22 -54.5t56 -22.5q41 0 72.5 30.5t31.5 72.5q0 34 -22 56.5t-56 22.5q-39 0 -68.5 -27t-34.5 -65z" />
    <glyph glyph-name="plusminus" unicode="&#xb1;" horiz-adv-x="656" 
d="M543 350h-194v-177h-49v177h-188v45h188v192h49v-192h194v-45zM540 87h-429v41h429v-41z" />
    <glyph glyph-name="twosuperior" unicode="&#xb2;" horiz-adv-x="340" 
d="M250 903q55 0 84.5 -23.5t29.5 -64.5q0 -65 -57.5 -124.5t-179.5 -147.5v-3h204l-6 -36h-259l4 29l41.5 34l41 34l37.5 31.5t35.5 31.5l29.5 29.5t26.5 30.5t18.5 28t13 29t4 28q0 58 -82 58q-55 0 -111 -39l-7 33q62 42 133 42z" />
    <glyph glyph-name="threesuperior" unicode="&#xb3;" horiz-adv-x="340" 
d="M250 903q56 0 86.5 -21t30.5 -60q0 -84 -89 -106v-2q73 -14 73 -74q0 -64 -43 -102.5t-119 -38.5q-69 0 -118 32l16 32q44 -30 107 -30q56 0 86 29t30 74q0 34 -28 48t-94 14l4 33q135 0 135 82q0 55 -83 55q-63 0 -115 -38l-8 30q54 43 129 43z" />
    <glyph glyph-name="acute" unicode="&#xb4;" horiz-adv-x="395" 
d="M309 808h74l-130 -141h-46z" />
    <glyph glyph-name="mu" unicode="&#xb5;" horiz-adv-x="615" 
d="M219 -7q-101 0 -126 76h-2q-1 -6 -19 -211l-55 -6l103 736h52l-56 -403q-3 -21 -3 -39q0 -110 113 -110q79 0 145 53.5t78 140.5l50 358h53l-82 -587l-40 -4l5 76q2 30 4 41l-2 1q-34 -56 -93.5 -89t-124.5 -33z" />
    <glyph glyph-name="paragraph" unicode="&#xb6;" horiz-adv-x="640" 
d="M174 -145h-50l93 659q-57 1 -90 27t-33 73q0 59 41.5 97.5t116.5 38.5h386l-9 -45h-78l-120 -850h-51l120 850h-206z" />
    <glyph glyph-name="periodcentered" unicode="&#xb7;" horiz-adv-x="275" 
d="M141 383q37 0 37 -33q0 -23 -13 -35.5t-35 -12.5q-39 0 -39 31q0 50 50 50z" />
    <glyph glyph-name="cedilla" unicode="&#xb8;" horiz-adv-x="395" 
d="M60 -193l87 193h40l-68 -193h-59z" />
    <glyph glyph-name="onesuperior" unicode="&#xb9;" horiz-adv-x="263" 
d="M265 901l-55 -397h-44l41 298q4 26 8 40l-2 2q-22 -16 -34 -23l-66 -41l2 38l120 83h30z" />
    <glyph glyph-name="ordmasculine" unicode="&#xba;" horiz-adv-x="436" 
d="M418 607q-16 -114 -61.5 -162t-132.5 -48q-72 0 -106 32.5t-34 107.5q0 31 6 70q16 114 61.5 162.5t131.5 48.5q73 0 106.5 -33t33.5 -108q0 -37 -5 -70zM140 608q-5 -31 -5 -66q0 -56 22.5 -80t72.5 -24q62 0 94 38t45 132q5 31 5 65q0 56 -23 80t-73 24
q-62 0 -93.5 -37.5t-44.5 -131.5z" />
    <glyph glyph-name="guillemotright" unicode="&#xbb;" horiz-adv-x="608" 
d="M252 152l6 43l236 135l-198 136l6 43l251 -175l-1 -7zM58 152l6 43l236 135l-198 136l6 43l251 -175l-1 -7z" />
    <glyph glyph-name="onequarter" unicode="&#xbc;" horiz-adv-x="868" 
d="M716 90h-49l-12 -90h-39l12 90h-208v25l237 279h53l-38 -271h51zM633 123l29 194q2 16 8 40l-2 2l-26 -33l-146 -172q-9 -11 -27 -29l1 -2h163zM326 752l-55 -397h-44l41 298q4 26 8 40l-2 2q-22 -16 -34 -23l-66 -41l2 38l120 83h30zM725 750h45l-615 -750h-45z" />
    <glyph glyph-name="onehalf" unicode="&#xbd;" horiz-adv-x="868" 
d="M651 399q55 0 84.5 -23.5t29.5 -64.5q0 -65 -57.5 -124.5t-179.5 -147.5v-3h204l-6 -36h-259l4 29l41.5 34l41 34l37.5 31.5t35.5 31.5l29.5 29.5t26.5 30.5t18.5 28t13 29t4 28q0 58 -82 58q-55 0 -111 -39l-7 33q62 42 133 42zM326 752l-55 -397h-44l41 298q4 26 8 40
l-2 2q-22 -16 -34 -23l-66 -41l2 38l120 83h30zM712 750h45l-615 -750h-45z" />
    <glyph glyph-name="threequarters" unicode="&#xbe;" horiz-adv-x="868" 
d="M259 754q56 0 86.5 -21t30.5 -60q0 -84 -89 -106v-2q73 -14 73 -74q0 -64 -43 -102.5t-119 -38.5q-69 0 -118 32l16 32q44 -30 107 -30q56 0 86 29t30 74q0 34 -28 48t-94 14l4 33q135 0 135 82q0 55 -83 55q-63 0 -115 -38l-8 30q54 43 129 43zM716 90h-49l-12 -90h-39
l12 90h-208v25l237 279h53l-38 -271h51zM633 123l29 194q2 16 8 40l-2 2l-26 -33l-146 -172q-9 -11 -27 -29l1 -2h163zM731 750h45l-615 -750h-45z" />
    <glyph glyph-name="questiondown" unicode="&#xbf;" horiz-adv-x="490" 
d="M189 -102q-177 0 -177 138q0 93 57.5 160.5t169.5 126.5l24 152h45l-20 -171q-114 -68 -166 -124t-52 -133q0 -101 131 -101q107 0 204 79l17 -39q-97 -88 -233 -88zM312 672q39 0 39 -30q0 -48 -50 -48q-40 0 -40 32q0 46 51 46z" />
    <glyph glyph-name="Agrave" unicode="&#xc0;" horiz-adv-x="696" 
d="M555 0l-47 206h-366l-103 -206h-62l392 750h69l181 -750h-64zM398 707h-2q-4 -11 -17 -37l-213 -418h332l-92 415q-6 24 -8 40zM436 799h-47l-100 114h75z" />
    <glyph glyph-name="Aacute" unicode="&#xc1;" horiz-adv-x="696" 
d="M555 0l-47 206h-366l-103 -206h-62l392 750h69l181 -750h-64zM398 707h-2q-4 -11 -17 -37l-213 -418h332l-92 415q-6 24 -8 40zM476 912h81l-140 -113h-47z" />
    <glyph glyph-name="Acircumflex" unicode="&#xc2;" horiz-adv-x="696" 
d="M555 0l-47 206h-366l-103 -206h-62l392 750h69l181 -750h-64zM398 707h-2q-4 -11 -17 -37l-213 -418h332l-92 415q-6 24 -8 40zM381 913h57l107 -114h-59l-80 90l-103 -90h-57z" />
    <glyph glyph-name="Atilde" unicode="&#xc3;" horiz-adv-x="696" 
d="M555 0l-47 206h-366l-103 -206h-62l392 750h69l181 -750h-64zM398 707h-2q-4 -11 -17 -37l-213 -418h332l-92 415q-6 24 -8 40zM309 801h-30q26 94 89 94q22 0 42 -19t37.5 -38t32.5 -19q30 0 52 60h28q-24 -93 -86 -93q-22 0 -42 19l-38 37.5t-33 18.5q-30 0 -52 -60z
" />
    <glyph glyph-name="Adieresis" unicode="&#xc4;" horiz-adv-x="696" 
d="M555 0l-47 206h-366l-103 -206h-62l392 750h69l181 -750h-64zM398 707h-2q-4 -11 -17 -37l-213 -418h332l-92 415q-6 24 -8 40zM326 877q27 0 27 -26q0 -41 -37 -41q-29 0 -29 25q0 20 10.5 31t28.5 11zM514 877q27 0 27 -26q0 -41 -37 -41q-29 0 -29 25q0 20 10.5 31
t28.5 11z" />
    <glyph glyph-name="Aring" unicode="&#xc5;" horiz-adv-x="696" 
d="M420 874q33 0 51.5 -15.5t18.5 -41.5q0 -53 -51 -73l180 -744h-64l-47 206h-366l-103 -206h-62l388 743q-33 12 -33 50q0 35 24 58t64 23zM398 707h-2q-4 -11 -17 -37l-213 -418h332l-92 415q-6 24 -8 40zM417 846q-25 0 -39.5 -14t-14.5 -34q0 -34 42 -34
q23 0 37.5 12.5t14.5 34.5q0 35 -40 35z" />
    <glyph glyph-name="AE" unicode="&#xc6;" horiz-adv-x="1050" 
d="M1034 702h-418l-3 -286h322l-6 -44h-316l-3 -324h341l-8 -48h-387l2 207h-336l-143 -207h-70l532 750h497zM568 708l-2 1l-23 -35l-291 -422h307l7 415z" />
    <glyph glyph-name="Ccedilla" unicode="&#xc7;" horiz-adv-x="614" 
d="M226 -193l81 181q-124 5 -182.5 71t-58.5 202q0 65 9 123q29 198 117.5 288t250.5 90q103 0 170 -37l-15 -47q-67 36 -159 36q-135 0 -206.5 -74.5t-97.5 -256.5q-10 -75 -10 -120q0 -124 53.5 -176t167.5 -52q88 0 170 40l3 -43q-77 -39 -171 -44l-63 -181h-59z" />
    <glyph glyph-name="Egrave" unicode="&#xc8;" horiz-adv-x="628" 
d="M127 48h403l-8 -48h-458l105 750h439l-4 -48h-385l-40 -285h334l-6 -46h-334zM438 799h-47l-100 114h75z" />
    <glyph glyph-name="Eacute" unicode="&#xc9;" horiz-adv-x="628" 
d="M127 48h403l-8 -48h-458l105 750h439l-4 -48h-385l-40 -285h334l-6 -46h-334zM449 912h81l-140 -113h-47z" />
    <glyph glyph-name="Ecircumflex" unicode="&#xca;" horiz-adv-x="628" 
d="M127 48h403l-8 -48h-458l105 750h439l-4 -48h-385l-40 -285h334l-6 -46h-334zM387 913h57l107 -114h-59l-80 90l-103 -90h-57z" />
    <glyph glyph-name="Edieresis" unicode="&#xcb;" horiz-adv-x="628" 
d="M127 48h403l-8 -48h-458l105 750h439l-4 -48h-385l-40 -285h334l-6 -46h-334zM313 877q27 0 27 -26q0 -41 -37 -41q-29 0 -29 25q0 20 10.5 31t28.5 11zM501 877q27 0 27 -26q0 -41 -37 -41q-29 0 -29 25q0 20 10.5 31t28.5 11z" />
    <glyph glyph-name="Igrave" unicode="&#xcc;" horiz-adv-x="315" 
d="M79 0l105 750h58l-105 -750h-58zM257 799h-47l-100 114h75z" />
    <glyph glyph-name="Iacute" unicode="&#xcd;" horiz-adv-x="315" 
d="M79 0l105 750h58l-105 -750h-58zM287 912h81l-140 -113h-47z" />
    <glyph glyph-name="Icircumflex" unicode="&#xce;" horiz-adv-x="315" 
d="M79 0l105 750h58l-105 -750h-58zM208 913h57l107 -114h-59l-80 90l-103 -90h-57z" />
    <glyph glyph-name="Idieresis" unicode="&#xcf;" horiz-adv-x="315" 
d="M79 0l105 750h58l-105 -750h-58zM136 877q27 0 27 -26q0 -41 -37 -41q-29 0 -29 25q0 20 10.5 31t28.5 11zM324 877q27 0 27 -26q0 -41 -37 -41q-29 0 -29 25q0 20 10.5 31t28.5 11z" />
    <glyph glyph-name="Eth" unicode="&#xd0;" horiz-adv-x="748" 
d="M175 750h243q140 0 205 -60.5t65 -196.5q0 -51 -9 -116q-28 -202 -115.5 -289.5t-249.5 -87.5h-244l52 376h-79l5 36h79zM226 700l-41 -288h120l-5 -36h-120l-45 -326h185q133 0 203.5 71.5t96.5 256.5q9 62 9 110q0 116 -52.5 164t-166.5 48h-184z" />
    <glyph glyph-name="Ntilde" unicode="&#xd1;" horiz-adv-x="767" 
d="M602 0h-43l-350 669h-2q0 -15 -4 -41l-87 -628h-52l105 750h60l336 -650h2q0 14 4 40l85 610h51zM342 801h-30q26 94 89 94q22 0 42 -19t37.5 -38t32.5 -19q30 0 52 60h28q-24 -93 -86 -93q-22 0 -42 19l-38 37.5t-33 18.5q-30 0 -52 -60z" />
    <glyph glyph-name="Ograve" unicode="&#xd2;" horiz-adv-x="738" 
d="M668 375q-29 -211 -108.5 -299.5t-241.5 -88.5q-134 0 -194.5 59.5t-60.5 195.5q0 54 11 133q30 210 110.5 298.5t242.5 88.5q133 0 192.5 -58.5t59.5 -191.5q0 -57 -11 -137zM609 375q11 80 11 134q0 115 -47 160t-153 45q-131 0 -195 -72.5t-91 -266.5
q-11 -80 -11 -132q0 -115 47.5 -161.5t153.5 -46.5q130 0 194 73.5t91 266.5zM480 799h-47l-100 114h75z" />
    <glyph glyph-name="Oacute" unicode="&#xd3;" horiz-adv-x="738" 
d="M668 375q-29 -211 -108.5 -299.5t-241.5 -88.5q-134 0 -194.5 59.5t-60.5 195.5q0 54 11 133q30 210 110.5 298.5t242.5 88.5q133 0 192.5 -58.5t59.5 -191.5q0 -57 -11 -137zM609 375q11 80 11 134q0 115 -47 160t-153 45q-131 0 -195 -72.5t-91 -266.5
q-11 -80 -11 -132q0 -115 47.5 -161.5t153.5 -46.5q130 0 194 73.5t91 266.5zM487 912h81l-140 -113h-47z" />
    <glyph glyph-name="Ocircumflex" unicode="&#xd4;" horiz-adv-x="738" 
d="M668 375q-29 -211 -108.5 -299.5t-241.5 -88.5q-134 0 -194.5 59.5t-60.5 195.5q0 54 11 133q30 210 110.5 298.5t242.5 88.5q133 0 192.5 -58.5t59.5 -191.5q0 -57 -11 -137zM609 375q11 80 11 134q0 115 -47 160t-153 45q-131 0 -195 -72.5t-91 -266.5
q-11 -80 -11 -132q0 -115 47.5 -161.5t153.5 -46.5q130 0 194 73.5t91 266.5zM420 913h57l107 -114h-59l-80 90l-103 -90h-57z" />
    <glyph glyph-name="Otilde" unicode="&#xd5;" horiz-adv-x="738" 
d="M668 375q-29 -211 -108.5 -299.5t-241.5 -88.5q-134 0 -194.5 59.5t-60.5 195.5q0 54 11 133q30 210 110.5 298.5t242.5 88.5q133 0 192.5 -58.5t59.5 -191.5q0 -57 -11 -137zM609 375q11 80 11 134q0 115 -47 160t-153 45q-131 0 -195 -72.5t-91 -266.5
q-11 -80 -11 -132q0 -115 47.5 -161.5t153.5 -46.5q130 0 194 73.5t91 266.5zM313 801h-30q26 94 89 94q22 0 42 -19t37.5 -38t32.5 -19q30 0 52 60h28q-24 -93 -86 -93q-22 0 -42 19l-38 37.5t-33 18.5q-30 0 -52 -60z" />
    <glyph glyph-name="Odieresis" unicode="&#xd6;" horiz-adv-x="738" 
d="M668 375q-29 -211 -108.5 -299.5t-241.5 -88.5q-134 0 -194.5 59.5t-60.5 195.5q0 54 11 133q30 210 110.5 298.5t242.5 88.5q133 0 192.5 -58.5t59.5 -191.5q0 -57 -11 -137zM609 375q11 80 11 134q0 115 -47 160t-153 45q-131 0 -195 -72.5t-91 -266.5
q-11 -80 -11 -132q0 -115 47.5 -161.5t153.5 -46.5q130 0 194 73.5t91 266.5zM349 877q27 0 27 -26q0 -41 -37 -41q-29 0 -29 25q0 20 10.5 31t28.5 11zM537 877q27 0 27 -26q0 -41 -37 -41q-29 0 -29 25q0 20 10.5 31t28.5 11z" />
    <glyph glyph-name="multiply" unicode="&#xd7;" 
d="M485 182l-30 -32l-157 157l-158 -157l-32 32l158 157l-157 157l32 32l157 -157l155 157l33 -33l-157 -156z" />
    <glyph glyph-name="Oslash" unicode="&#xd8;" horiz-adv-x="739" 
d="M41 -13l-28 29l75 84q-24 52 -24 142q0 62 10 133q29 209 110 298t243 89q159 0 215 -86l81 84l28 -29l-90 -94q18 -52 18 -128q0 -63 -10 -134q-29 -211 -109 -299.5t-242 -88.5q-149 0 -209 77zM137 375q-11 -82 -11 -134q0 -55 11 -96l459 485q-40 81 -177 81
q-129 0 -192 -72t-90 -264zM607 375q11 79 11 131q0 45 -7 89l-458 -484q41 -73 172 -73q129 0 192 73t90 264z" />
    <glyph glyph-name="Ugrave" unicode="&#xd9;" horiz-adv-x="744" 
d="M701 750l-67 -478q-21 -149 -100.5 -217.5t-213.5 -68.5q-240 0 -240 216q0 39 5 70l67 478h57l-68 -480q-4 -28 -4 -59q0 -90 47 -132.5t143 -42.5q110 0 171.5 57t78.5 177l68 480h56zM478 799h-47l-100 114h75z" />
    <glyph glyph-name="Uacute" unicode="&#xda;" horiz-adv-x="744" 
d="M701 750l-67 -478q-21 -149 -100.5 -217.5t-213.5 -68.5q-240 0 -240 216q0 39 5 70l67 478h57l-68 -480q-4 -28 -4 -59q0 -90 47 -132.5t143 -42.5q110 0 171.5 57t78.5 177l68 480h56zM489 912h81l-140 -113h-47z" />
    <glyph glyph-name="Ucircumflex" unicode="&#xdb;" horiz-adv-x="744" 
d="M701 750l-67 -478q-21 -149 -100.5 -217.5t-213.5 -68.5q-240 0 -240 216q0 39 5 70l67 478h57l-68 -480q-4 -28 -4 -59q0 -90 47 -132.5t143 -42.5q110 0 171.5 57t78.5 177l68 480h56zM420 913h57l107 -114h-59l-80 90l-103 -90h-57z" />
    <glyph glyph-name="Udieresis" unicode="&#xdc;" horiz-adv-x="744" 
d="M701 750l-67 -478q-21 -149 -100.5 -217.5t-213.5 -68.5q-240 0 -240 216q0 39 5 70l67 478h57l-68 -480q-4 -28 -4 -59q0 -90 47 -132.5t143 -42.5q110 0 171.5 57t78.5 177l68 480h56zM350 877q27 0 27 -26q0 -41 -37 -41q-29 0 -29 25q0 20 10.5 31t28.5 11zM538 877
q27 0 27 -26q0 -41 -37 -41q-29 0 -29 25q0 20 10.5 31t28.5 11z" />
    <glyph glyph-name="Yacute" unicode="&#xdd;" horiz-adv-x="653" 
d="M86 750h68l154 -392q7 -16 14 -38h2q11 21 21 34l267 396h64l-332 -483l-37 -267h-59l37 267zM445 912h81l-140 -113h-47z" />
    <glyph glyph-name="Thorn" unicode="&#xde;" horiz-adv-x="644" 
d="M206 607h156q125 0 181.5 -39t56.5 -126q0 -27 -4 -52q-16 -115 -85 -168.5t-211 -53.5h-156l-23 -168h-57l105 750h57zM199 560l-48 -346h156q110 0 164 39.5t67 136.5q3 22 3 42q0 69 -44 98.5t-142 29.5h-156z" />
    <glyph glyph-name="germandbls" unicode="&#xdf;" horiz-adv-x="620" 
d="M66 97l59 417q17 119 82 184t172 65q64 0 103 -30.5t39 -77.5q0 -35 -19.5 -67t-46.5 -55.5t-54.5 -43.5t-47 -38t-19.5 -31q0 -15 21.5 -31t52.5 -33.5t62.5 -38.5t53 -54.5t21.5 -74.5q0 -90 -68 -143t-171 -53q-106 0 -158 45l12 46q54 -45 145 -45q78 0 131 38
t53 105q0 35 -22 64t-54 48.5t-64 36.5t-54 37t-22 43q0 22 20 45t48.5 44l57.5 43t49 50t20 58t-26.5 49t-70.5 19q-162 0 -191 -199l-60 -422q-17 -119 -71.5 -174t-160.5 -71v38q84 15 123.5 59.5t54.5 147.5z" />
    <glyph glyph-name="agrave" unicode="&#xe0;" horiz-adv-x="590" 
d="M393 597q29 0 69.5 -4.5t55.5 -4.5h16l-82 -588h-43l4 68q2 26 5 41l-2 1q-76 -119 -215 -119q-81 0 -122 44t-41 141q0 195 96 308t259 113zM217 34q82 0 141.5 57.5t73.5 154.5l43 302q-68 5 -89 5q-122 0 -194.5 -74.5t-91.5 -214.5q-7 -54 -7 -82q0 -77 31 -112.5
t93 -35.5zM433 667h-44l-82 141h72z" />
    <glyph glyph-name="aacute" unicode="&#xe1;" horiz-adv-x="590" 
d="M393 597q29 0 69.5 -4.5t55.5 -4.5h16l-82 -588h-43l4 68q2 26 5 41l-2 1q-76 -119 -215 -119q-81 0 -122 44t-41 141q0 195 96 308t259 113zM217 34q82 0 141.5 57.5t73.5 154.5l43 302q-68 5 -89 5q-122 0 -194.5 -74.5t-91.5 -214.5q-7 -54 -7 -82q0 -77 31 -112.5
t93 -35.5zM443 808h74l-130 -141h-46z" />
    <glyph glyph-name="acircumflex" unicode="&#xe2;" horiz-adv-x="590" 
d="M393 597q29 0 69.5 -4.5t55.5 -4.5h16l-82 -588h-43l4 68q2 26 5 41l-2 1q-76 -119 -215 -119q-81 0 -122 44t-41 141q0 195 96 308t259 113zM217 34q82 0 141.5 57.5t73.5 154.5l43 302q-68 5 -89 5q-122 0 -194.5 -74.5t-91.5 -214.5q-7 -54 -7 -82q0 -77 31 -112.5
t93 -35.5zM355 808h49l89 -141h-46l-70 118l-103 -118h-45z" />
    <glyph glyph-name="atilde" unicode="&#xe3;" horiz-adv-x="590" 
d="M393 597q29 0 69.5 -4.5t55.5 -4.5h16l-82 -588h-43l4 68q2 26 5 41l-2 1q-76 -119 -215 -119q-81 0 -122 44t-41 141q0 195 96 308t259 113zM217 34q82 0 141.5 57.5t73.5 154.5l43 302q-68 5 -89 5q-122 0 -194.5 -74.5t-91.5 -214.5q-7 -54 -7 -82q0 -77 31 -112.5
t93 -35.5zM448 683q-24 0 -43.5 19.5t-36.5 38.5t-33 19q-33 0 -53 -67h-34q12 47 36 74.5t55 27.5q23 0 43 -19.5t36.5 -38.5t33.5 -19q33 0 53 67h35q-13 -48 -37 -75t-55 -27z" />
    <glyph glyph-name="adieresis" unicode="&#xe4;" horiz-adv-x="590" 
d="M393 597q29 0 69.5 -4.5t55.5 -4.5h16l-82 -588h-43l4 68q2 26 5 41l-2 1q-76 -119 -215 -119q-81 0 -122 44t-41 141q0 195 96 308t259 113zM217 34q82 0 141.5 57.5t73.5 154.5l43 302q-68 5 -89 5q-122 0 -194.5 -74.5t-91.5 -214.5q-7 -54 -7 -82q0 -77 31 -112.5
t93 -35.5zM315 793q28 0 28 -26q0 -42 -38 -42q-27 0 -27 25q0 20 10 31.5t27 11.5zM463 793q27 0 27 -26q0 -42 -37 -42q-29 0 -29 25q0 43 39 43z" />
    <glyph glyph-name="aring" unicode="&#xe5;" horiz-adv-x="590" 
d="M393 597q29 0 69.5 -4.5t55.5 -4.5h16l-82 -588h-43l4 68q2 26 5 41l-2 1q-76 -119 -215 -119q-81 0 -122 44t-41 141q0 195 96 308t259 113zM217 34q82 0 141.5 57.5t73.5 154.5l43 302q-68 5 -89 5q-122 0 -194.5 -74.5t-91.5 -214.5q-7 -54 -7 -82q0 -77 31 -112.5
t93 -35.5zM378 819q35 0 55.5 -17.5t20.5 -45.5q0 -37 -27 -60t-70 -23q-35 0 -55 16t-20 45q0 36 27 60.5t69 24.5zM375 794q-27 0 -44.5 -16.5t-17.5 -40.5q0 -40 48 -40q27 0 45 15.5t18 39.5q0 18 -13 30t-36 12z" />
    <glyph glyph-name="ae" unicode="&#xe6;" horiz-adv-x="898" 
d="M391 597q26 0 49.5 -2t50 -6l33.5 -5l-8 -54q-3 -21 -8 -40l3 -1q67 109 202 109q76 0 116 -31.5t40 -83.5q0 -83 -89 -137t-292 -78q-4 -33 -4 -64q0 -92 37 -130.5t110 -38.5q106 0 174 62l16 -33q-78 -73 -203 -73q-161 0 -176 163h-2q-33 -79 -95.5 -121t-144.5 -42
q-81 0 -121.5 44t-40.5 142q0 202 96.5 311t256.5 109zM217 34q83 0 142 59.5t74 162.5l41 291q-61 7 -87 7q-140 0 -216 -98t-76 -273q0 -79 30 -114t92 -35zM714 557q-179 0 -220 -248q179 19 252 61.5t73 107.5q0 36 -26 57.5t-79 21.5z" />
    <glyph glyph-name="ccedilla" unicode="&#xe7;" horiz-adv-x="494" 
d="M138 -193l82 184q-88 2 -133 52.5t-45 157.5q0 45 7 94q21 150 92 226.5t190 76.5q81 0 144 -35l-22 -38q-59 27 -124 27q-96 0 -151 -63.5t-73 -195.5q-7 -49 -7 -92q0 -90 36 -128.5t107 -38.5q89 0 156 62l17 -34q-65 -60 -152 -69l-65 -186h-59z" />
    <glyph glyph-name="egrave" unicode="&#xe8;" horiz-adv-x="509" 
d="M324 598q78 0 117 -31t39 -80q0 -86 -89 -140.5t-292 -77.5q-4 -32 -4 -66q0 -91 37 -129.5t110 -38.5q106 0 174 62l16 -33q-78 -73 -203 -73q-187 0 -187 211q0 45 7 93q21 149 90.5 226t184.5 77zM319 556q-175 0 -214 -247q176 19 251 61.5t75 108.5q0 35 -28.5 56
t-83.5 21zM372 667h-44l-82 141h72z" />
    <glyph glyph-name="eacute" unicode="&#xe9;" horiz-adv-x="509" 
d="M324 598q78 0 117 -31t39 -80q0 -86 -89 -140.5t-292 -77.5q-4 -32 -4 -66q0 -91 37 -129.5t110 -38.5q106 0 174 62l16 -33q-78 -73 -203 -73q-187 0 -187 211q0 45 7 93q21 149 90.5 226t184.5 77zM319 556q-175 0 -214 -247q176 19 251 61.5t75 108.5q0 35 -28.5 56
t-83.5 21zM386 808h74l-130 -141h-46z" />
    <glyph glyph-name="ecircumflex" unicode="&#xea;" horiz-adv-x="509" 
d="M324 598q78 0 117 -31t39 -80q0 -86 -89 -140.5t-292 -77.5q-4 -32 -4 -66q0 -91 37 -129.5t110 -38.5q106 0 174 62l16 -33q-78 -73 -203 -73q-187 0 -187 211q0 45 7 93q21 149 90.5 226t184.5 77zM319 556q-175 0 -214 -247q176 19 251 61.5t75 108.5q0 35 -28.5 56
t-83.5 21zM312 808h49l89 -141h-46l-70 118l-103 -118h-45z" />
    <glyph glyph-name="edieresis" unicode="&#xeb;" horiz-adv-x="509" 
d="M324 598q78 0 117 -31t39 -80q0 -86 -89 -140.5t-292 -77.5q-4 -32 -4 -66q0 -91 37 -129.5t110 -38.5q106 0 174 62l16 -33q-78 -73 -203 -73q-187 0 -187 211q0 45 7 93q21 149 90.5 226t184.5 77zM319 556q-175 0 -214 -247q176 19 251 61.5t75 108.5q0 35 -28.5 56
t-83.5 21zM261 793q28 0 28 -26q0 -42 -38 -42q-27 0 -27 25q0 20 10 31.5t27 11.5zM409 793q27 0 27 -26q0 -42 -37 -42q-29 0 -29 25q0 43 39 43z" />
    <glyph glyph-name="igrave" unicode="&#xec;" horiz-adv-x="255" 
d="M105 0h-55l82 586l55 4zM196 667h-44l-82 141h72z" />
    <glyph glyph-name="iacute" unicode="&#xed;" horiz-adv-x="255" 
d="M105 0h-55l82 586l55 4zM247 808h74l-130 -141h-46z" />
    <glyph glyph-name="icircumflex" unicode="&#xee;" horiz-adv-x="255" 
d="M105 0h-55l82 586l55 4zM165 808h49l89 -141h-46l-70 118l-103 -118h-45z" />
    <glyph glyph-name="idieresis" unicode="&#xef;" horiz-adv-x="255" 
d="M105 0h-55l82 586l55 4zM114 793q28 0 28 -26q0 -42 -38 -42q-27 0 -27 25q0 20 10 31.5t27 11.5zM262 793q27 0 27 -26q0 -42 -37 -42q-29 0 -29 25q0 43 39 43z" />
    <glyph glyph-name="eth" unicode="&#xf0;" horiz-adv-x="608" 
d="M497 787l-88 -66q64 -67 102.5 -154.5t38.5 -179.5q0 -31 -4 -56q-26 -183 -94.5 -262t-196.5 -79q-109 0 -161.5 46.5t-52.5 158.5q0 45 7 94q21 151 85.5 220t188.5 69q105 0 161 -59l2 1q-35 96 -113 173l-95 -71l-22 20l95 72q-41 35 -91 67l38 29q52 -30 90 -67
l88 67zM327 533q-100 0 -152 -57t-71 -188q-7 -46 -7 -87q0 -93 40 -130t122 -37q96 0 153.5 69t76.5 219q4 36 4 50q0 161 -166 161z" />
    <glyph glyph-name="ntilde" unicode="&#xf1;" horiz-adv-x="593" 
d="M410 0l53 379q4 29 4 58q0 63 -27.5 89.5t-86.5 26.5q-85 0 -143 -56t-72 -156l-47 -341h-54l82 586l43 5l-7 -106l2 -1q72 114 212 114q153 0 153 -157q0 -24 -5 -61l-53 -380h-54zM408 684q-24 0 -43.5 19t-36.5 38.5t-33 19.5q-33 0 -53 -67h-34q12 47 36 74.5
t55 27.5q18 0 35 -12t27 -26.5t23.5 -26.5t27.5 -12q33 0 53 67h35q-13 -48 -37 -75t-55 -27z" />
    <glyph glyph-name="ograve" unicode="&#xf2;" horiz-adv-x="576" 
d="M316 554q-95 0 -144 -59.5t-68 -201.5q-8 -52 -8 -101q0 -87 34.5 -123t111.5 -36q94 0 143.5 60t69.5 202q8 59 8 98q0 87 -35 124t-112 37zM324 598q102 0 148 -47t46 -153q0 -42 -8 -104q-23 -160 -87 -232t-188 -72q-102 0 -148 47t-46 152q0 54 8 106q22 159 86 231
t189 72zM380 667h-44l-82 141h72z" />
    <glyph glyph-name="oacute" unicode="&#xf3;" horiz-adv-x="576" 
d="M316 554q-95 0 -144 -59.5t-68 -201.5q-8 -52 -8 -101q0 -87 34.5 -123t111.5 -36q94 0 143.5 60t69.5 202q8 59 8 98q0 87 -35 124t-112 37zM324 598q102 0 148 -47t46 -153q0 -42 -8 -104q-23 -160 -87 -232t-188 -72q-102 0 -148 47t-46 152q0 54 8 106q22 159 86 231
t189 72zM388 808h74l-130 -141h-46z" />
    <glyph glyph-name="ocircumflex" unicode="&#xf4;" horiz-adv-x="576" 
d="M316 554q-95 0 -144 -59.5t-68 -201.5q-8 -52 -8 -101q0 -87 34.5 -123t111.5 -36q94 0 143.5 60t69.5 202q8 59 8 98q0 87 -35 124t-112 37zM324 598q102 0 148 -47t46 -153q0 -42 -8 -104q-23 -160 -87 -232t-188 -72q-102 0 -148 47t-46 152q0 54 8 106q22 159 86 231
t189 72zM328 808h49l89 -141h-46l-70 118l-103 -118h-45z" />
    <glyph glyph-name="otilde" unicode="&#xf5;" horiz-adv-x="576" 
d="M316 554q-95 0 -144 -59.5t-68 -201.5q-8 -52 -8 -101q0 -87 34.5 -123t111.5 -36q94 0 143.5 60t69.5 202q8 59 8 98q0 87 -35 124t-112 37zM324 598q102 0 148 -47t46 -153q0 -42 -8 -104q-23 -160 -87 -232t-188 -72q-102 0 -148 47t-46 152q0 54 8 106q22 159 86 231
t189 72zM402 683q-24 0 -43.5 19.5t-36.5 38.5t-33 19q-33 0 -53 -67h-34q12 47 36 74.5t55 27.5q23 0 43 -19.5t36.5 -38.5t33.5 -19q33 0 53 67h35q-13 -48 -37 -75t-55 -27z" />
    <glyph glyph-name="odieresis" unicode="&#xf6;" horiz-adv-x="576" 
d="M316 554q-95 0 -144 -59.5t-68 -201.5q-8 -52 -8 -101q0 -87 34.5 -123t111.5 -36q94 0 143.5 60t69.5 202q8 59 8 98q0 87 -35 124t-112 37zM324 598q102 0 148 -47t46 -153q0 -42 -8 -104q-23 -160 -87 -232t-188 -72q-102 0 -148 47t-46 152q0 54 8 106q22 159 86 231
t189 72zM274 793q28 0 28 -26q0 -42 -38 -42q-27 0 -27 25q0 20 10 31.5t27 11.5zM422 793q27 0 27 -26q0 -42 -37 -42q-29 0 -29 25q0 43 39 43z" />
    <glyph glyph-name="divide" unicode="&#xf7;" horiz-adv-x="594" 
d="M339 487q0 -37 -44 -37q-45 0 -45 37t45 37q20 0 32 -10t12 -27zM339 195q0 -37 -44 -37q-45 0 -45 37t45 37q20 0 32 -10t12 -27zM524 317h-456v50h456v-50z" />
    <glyph glyph-name="oslash" unicode="&#xf8;" horiz-adv-x="576" 
d="M324 598q120 0 163 -67l49 54l22 -24l-55 -64q15 -40 15 -100q0 -41 -8 -103q-23 -160 -87 -232t-188 -72q-121 0 -164 67l-51 -54l-22 24l57 62q-14 39 -14 102q0 52 8 104q22 159 86 231t189 72zM455 295q8 61 8 100q0 7 -3 58l-351 -350q29 -70 133 -70q94 0 143.5 60
t69.5 202zM316 554q-95 0 -143.5 -59.5t-68.5 -201.5q-9 -68 -9 -100q0 -25 4 -57l349 349q-30 69 -132 69z" />
    <glyph glyph-name="ugrave" unicode="&#xf9;" horiz-adv-x="580" 
d="M534 588l-57 -404q-13 -93 -73.5 -144.5t-165.5 -51.5q-93 0 -140 41t-47 116q0 18 3 39l57 402l54 5l-57 -406q-2 -11 -2 -32q0 -118 138 -118q77 0 123 38.5t57 111.5l56 403h54zM384 668h-44l-82 141h72z" />
    <glyph glyph-name="uacute" unicode="&#xfa;" horiz-adv-x="580" 
d="M534 588l-57 -404q-13 -93 -73.5 -144.5t-165.5 -51.5q-93 0 -140 41t-47 116q0 18 3 39l57 402l54 5l-57 -406q-2 -11 -2 -32q0 -118 138 -118q77 0 123 38.5t57 111.5l56 403h54zM397 809h74l-130 -141h-46z" />
    <glyph glyph-name="ucircumflex" unicode="&#xfb;" horiz-adv-x="580" 
d="M534 588l-57 -404q-13 -93 -73.5 -144.5t-165.5 -51.5q-93 0 -140 41t-47 116q0 18 3 39l57 402l54 5l-57 -406q-2 -11 -2 -32q0 -118 138 -118q77 0 123 38.5t57 111.5l56 403h54zM326 809h49l89 -141h-46l-70 118l-103 -118h-45z" />
    <glyph glyph-name="udieresis" unicode="&#xfc;" horiz-adv-x="580" 
d="M534 588l-57 -404q-13 -93 -73.5 -144.5t-165.5 -51.5q-93 0 -140 41t-47 116q0 18 3 39l57 402l54 5l-57 -406q-2 -11 -2 -32q0 -118 138 -118q77 0 123 38.5t57 111.5l56 403h54zM272 793q28 0 28 -26q0 -42 -38 -42q-27 0 -27 25q0 20 10 31.5t27 11.5zM420 793
q27 0 27 -26q0 -42 -37 -42q-29 0 -29 25q0 43 39 43z" />
    <glyph glyph-name="yacute" unicode="&#xfd;" horiz-adv-x="571" 
d="M483 588h54q-71 -246 -185.5 -438.5t-271.5 -294.5l-18 39q102 75 171 166l-166 525l57 5l134 -447q4 -19 11 -39h2q137 202 212 484zM382 808h74l-130 -141h-46z" />
    <glyph glyph-name="thorn" unicode="&#xfe;" horiz-adv-x="594" 
d="M375 598q79 0 119.5 -46t40.5 -151q0 -54 -8 -107q-42 -303 -266 -303q-98 0 -159 50l-2 -1q-1 -16 -5 -41l-20 -142h-54l133 941l54 5l-38 -276q-5 -31 -7 -40l2 -1q73 112 210 112zM358 554q-82 0 -141 -57t-73 -155l-37 -257q54 -51 145 -51q94 0 147 63.5t72 197.5
q8 61 8 99q0 87 -30.5 123.5t-90.5 36.5z" />
    <glyph glyph-name="ydieresis" unicode="&#xff;" horiz-adv-x="571" 
d="M483 588h54q-71 -246 -185.5 -438.5t-271.5 -294.5l-18 39q102 75 171 166l-166 525l57 5l134 -447q4 -19 11 -39h2q137 202 212 484zM269 793q28 0 28 -26q0 -42 -38 -42q-27 0 -27 25q0 20 10 31.5t27 11.5zM417 793q27 0 27 -26q0 -42 -37 -42q-29 0 -29 25
q0 43 39 43z" />
    <glyph glyph-name="Amacron" unicode="&#x100;" horiz-adv-x="696" 
d="M555 0l-47 206h-366l-103 -206h-62l392 750h69l181 -750h-64zM398 707h-2q-4 -11 -17 -37l-213 -418h332l-92 415q-6 24 -8 40zM537 853l-4 -32h-259l4 32h259z" />
    <glyph glyph-name="amacron" unicode="&#x101;" horiz-adv-x="590" 
d="M393 597q29 0 69.5 -4.5t55.5 -4.5h16l-82 -588h-43l4 68q2 26 5 41l-2 1q-76 -119 -215 -119q-81 0 -122 44t-41 141q0 195 96 308t259 113zM217 34q82 0 141.5 57.5t73.5 154.5l43 302q-68 5 -89 5q-122 0 -194.5 -74.5t-91.5 -214.5q-7 -54 -7 -82q0 -77 31 -112.5
t93 -35.5zM500 763l-5 -34h-258l5 34h258z" />
    <glyph glyph-name="Abreve" unicode="&#x102;" horiz-adv-x="696" 
d="M555 0l-47 206h-366l-103 -206h-62l392 750h69l181 -750h-64zM398 707h-2q-4 -11 -17 -37l-213 -418h332l-92 415q-6 24 -8 40zM516 915h43q-8 -57 -48.5 -88t-111.5 -31q-130 0 -130 96q0 7 2 23h42q-1 -6 -1 -16q0 -36 25.5 -53.5t66.5 -17.5q101 0 112 87z" />
    <glyph glyph-name="abreve" unicode="&#x103;" horiz-adv-x="590" 
d="M393 597q29 0 69.5 -4.5t55.5 -4.5h16l-82 -588h-43l4 68q2 26 5 41l-2 1q-76 -119 -215 -119q-81 0 -122 44t-41 141q0 195 96 308t259 113zM217 34q82 0 141.5 57.5t73.5 154.5l43 302q-68 5 -89 5q-122 0 -194.5 -74.5t-91.5 -214.5q-7 -54 -7 -82q0 -77 31 -112.5
t93 -35.5zM471 808h41q-10 -69 -48 -109t-101 -40q-113 0 -113 113q0 16 3 36h40q-2 -10 -2 -28q0 -43 20.5 -65.5t56.5 -22.5q40 0 68 30t35 86z" />
    <glyph glyph-name="Aogonek" unicode="&#x104;" horiz-adv-x="696" 
d="M619 0h-12q-36 0 -61.5 -31t-25.5 -65q0 -47 58 -47q37 0 68 17l3 -29q-41 -23 -89 -23q-42 0 -64 18t-22 50q0 36 21.5 68t56.5 48l-44 200h-366l-103 -206h-62l392 750h69zM398 707h-2q-4 -11 -17 -37l-213 -418h332l-92 415q-6 24 -8 40z" />
    <glyph glyph-name="aogonek" unicode="&#x105;" horiz-adv-x="590" 
d="M405 -176q-84 0 -84 64q0 34 23.5 66t63.5 50l5 64q2 22 6 41l-3 1q-76 -119 -215 -119q-81 0 -122 44t-41 141q0 195 96 308t259 113q29 0 69.5 -4.5t55.5 -4.5h16l-82 -588q-42 -17 -64.5 -44.5t-22.5 -57.5q0 -41 56 -41q40 0 70 18l1 -29q-42 -22 -87 -22zM217 34
q82 0 141.5 57.5t73.5 154.5l43 302q-68 5 -89 5q-122 0 -194.5 -74.5t-91.5 -214.5q-7 -54 -7 -82q0 -77 31 -112.5t93 -35.5z" />
    <glyph glyph-name="Cacute" unicode="&#x106;" horiz-adv-x="614" 
d="M443 762q103 0 170 -37l-15 -47q-67 36 -159 36q-135 0 -206.5 -74.5t-97.5 -256.5q-10 -75 -10 -120q0 -124 53.5 -176t167.5 -52q88 0 170 40l3 -43q-86 -45 -186 -45q-138 0 -202.5 66t-64.5 209q0 64 9 122q29 198 117.5 288t250.5 90zM487 912h81l-140 -113h-47z
" />
    <glyph glyph-name="cacute" unicode="&#x107;" horiz-adv-x="494" 
d="M331 598q81 0 144 -35l-22 -38q-59 27 -124 27q-96 0 -151 -63.5t-73 -195.5q-7 -49 -7 -92q0 -90 36 -128.5t107 -38.5q89 0 156 62l17 -34q-77 -71 -188 -71q-184 0 -184 210q0 45 7 94q21 150 92 226.5t190 76.5zM384 808h74l-130 -141h-46z" />
    <glyph glyph-name="Ccircumflex" unicode="&#x108;" horiz-adv-x="614" 
d="M443 762q103 0 170 -37l-15 -47q-67 36 -159 36q-135 0 -206.5 -74.5t-97.5 -256.5q-10 -75 -10 -120q0 -124 53.5 -176t167.5 -52q88 0 170 40l3 -43q-86 -45 -186 -45q-138 0 -202.5 66t-64.5 209q0 64 9 122q29 198 117.5 288t250.5 90zM418 913h57l107 -114h-59
l-80 90l-103 -90h-57z" />
    <glyph glyph-name="ccircumflex" unicode="&#x109;" horiz-adv-x="494" 
d="M331 598q81 0 144 -35l-22 -38q-59 27 -124 27q-96 0 -151 -63.5t-73 -195.5q-7 -49 -7 -92q0 -90 36 -128.5t107 -38.5q89 0 156 62l17 -34q-77 -71 -188 -71q-184 0 -184 210q0 45 7 94q21 150 92 226.5t190 76.5zM316 808h49l89 -141h-46l-70 118l-103 -118h-45z" />
    <glyph glyph-name="Cdotaccent" unicode="&#x10a;" horiz-adv-x="614" 
d="M443 762q103 0 170 -37l-15 -47q-67 36 -159 36q-135 0 -206.5 -74.5t-97.5 -256.5q-10 -75 -10 -120q0 -124 53.5 -176t167.5 -52q88 0 170 40l3 -43q-86 -45 -186 -45q-138 0 -202.5 66t-64.5 209q0 64 9 122q29 198 117.5 288t250.5 90zM442 883q38 0 38 -29
q0 -45 -49 -45q-39 0 -39 27q0 47 50 47z" />
    <glyph glyph-name="cdotaccent" unicode="&#x10b;" horiz-adv-x="494" 
d="M331 598q81 0 144 -35l-22 -38q-59 27 -124 27q-96 0 -151 -63.5t-73 -195.5q-7 -49 -7 -92q0 -90 36 -128.5t107 -38.5q89 0 156 62l17 -34q-77 -71 -188 -71q-184 0 -184 210q0 45 7 94q21 150 92 226.5t190 76.5zM351 796q38 0 38 -32q0 -45 -48 -45q-40 0 -40 30
q0 22 13 34.5t37 12.5z" />
    <glyph glyph-name="Ccaron" unicode="&#x10c;" horiz-adv-x="614" 
d="M443 762q103 0 170 -37l-15 -47q-67 36 -159 36q-135 0 -206.5 -74.5t-97.5 -256.5q-10 -75 -10 -120q0 -124 53.5 -176t167.5 -52q88 0 170 40l3 -43q-86 -45 -186 -45q-138 0 -202.5 66t-64.5 209q0 64 9 122q29 198 117.5 288t250.5 90zM474 799h-57l-105 114h58
l79 -91l105 91h56z" />
    <glyph glyph-name="ccaron" unicode="&#x10d;" horiz-adv-x="494" 
d="M331 598q81 0 144 -35l-22 -38q-59 27 -124 27q-96 0 -151 -63.5t-73 -195.5q-7 -49 -7 -92q0 -90 36 -128.5t107 -38.5q89 0 156 62l17 -34q-77 -71 -188 -71q-184 0 -184 210q0 45 7 94q21 150 92 226.5t190 76.5zM342 667h-50l-87 141h46l70 -117l102 117h46z" />
    <glyph glyph-name="Dcaron" unicode="&#x10e;" horiz-adv-x="743" 
d="M169 750h243q140 0 205 -60.5t65 -196.5q0 -51 -9 -116q-28 -202 -115.5 -289.5t-249.5 -87.5h-244zM220 700l-91 -650h185q133 0 203.5 71.5t96.5 256.5q9 62 9 110q0 116 -52.5 164t-166.5 48h-184zM411 799h-57l-105 114h58l79 -91l105 91h56z" />
    <glyph glyph-name="dcaron" unicode="&#x10f;" horiz-adv-x="592" 
d="M341 598q76 0 137 -22l32 222l54 5l-112 -803h-40v62q0 15 2 41l-2 1q-76 -113 -212 -113q-79 0 -119.5 46t-40.5 150q0 51 8 103q22 153 96.5 230.5t196.5 77.5zM217 34q83 0 142 60t74 162l39 276q-53 22 -132 22q-200 0 -237 -267q-8 -59 -8 -96q0 -85 31 -121t91 -36
zM702 807q34 0 34 -30q0 -35 -79 -122l-16 9q35 50 48 81h-1q-30 0 -30 26q0 15 11.5 25.5t32.5 10.5z" />
    <glyph glyph-name="Dcroat" unicode="&#x110;" horiz-adv-x="748" 
d="M175 750h243q140 0 205 -60.5t65 -196.5q0 -51 -9 -116q-28 -202 -115.5 -289.5t-249.5 -87.5h-244l52 376h-79l5 36h79zM226 700l-41 -288h120l-5 -36h-120l-45 -326h185q133 0 203.5 71.5t96.5 256.5q9 62 9 110q0 116 -52.5 164t-166.5 48h-184z" />
    <glyph glyph-name="dcroat" unicode="&#x111;" horiz-adv-x="618" 
d="M341 598q76 0 137 -22l13 95h-113l4 33h114l14 94l54 5l-14 -99h85l-4 -33h-86l-93 -671h-40v62q0 15 2 41l-2 1q-76 -113 -212 -113q-79 0 -119.5 46t-40.5 150q0 51 8 103q22 153 96.5 230.5t196.5 77.5zM217 34q83 0 142 60t74 162l39 276q-53 22 -132 22
q-200 0 -237 -267q-8 -59 -8 -96q0 -85 31 -121t91 -36z" />
    <glyph glyph-name="Emacron" unicode="&#x112;" horiz-adv-x="628" 
d="M127 48h403l-8 -48h-458l105 750h439l-4 -48h-385l-40 -285h334l-6 -46h-334zM531 853l-4 -32h-259l4 32h259z" />
    <glyph glyph-name="emacron" unicode="&#x113;" horiz-adv-x="509" 
d="M324 598q78 0 117 -31t39 -80q0 -86 -89 -140.5t-292 -77.5q-4 -32 -4 -66q0 -91 37 -129.5t110 -38.5q106 0 174 62l16 -33q-78 -73 -203 -73q-187 0 -187 211q0 45 7 93q21 149 90.5 226t184.5 77zM319 556q-175 0 -214 -247q176 19 251 61.5t75 108.5q0 35 -28.5 56
t-83.5 21zM460 763l-5 -34h-258l5 34h258z" />
    <glyph glyph-name="Ebreve" unicode="&#x114;" horiz-adv-x="628" 
d="M127 48h403l-8 -48h-458l105 750h439l-4 -48h-385l-40 -285h334l-6 -46h-334zM517 915h43q-8 -57 -48.5 -88t-111.5 -31q-130 0 -130 96q0 7 2 23h42q-1 -6 -1 -16q0 -36 25.5 -53.5t66.5 -17.5q101 0 112 87z" />
    <glyph glyph-name="ebreve" unicode="&#x115;" horiz-adv-x="509" 
d="M324 598q78 0 117 -31t39 -80q0 -86 -89 -140.5t-292 -77.5q-4 -32 -4 -66q0 -91 37 -129.5t110 -38.5q106 0 174 62l16 -33q-78 -73 -203 -73q-187 0 -187 211q0 45 7 93q21 149 90.5 226t184.5 77zM319 556q-175 0 -214 -247q176 19 251 61.5t75 108.5q0 35 -28.5 56
t-83.5 21zM427 808h41q-10 -69 -48 -109t-101 -40q-113 0 -113 113q0 16 3 36h40q-2 -10 -2 -28q0 -43 20.5 -65.5t56.5 -22.5q40 0 68 30t35 86z" />
    <glyph glyph-name="Edotaccent" unicode="&#x116;" horiz-adv-x="628" 
d="M127 48h403l-8 -48h-458l105 750h439l-4 -48h-385l-40 -285h334l-6 -46h-334zM412 883q38 0 38 -29q0 -45 -49 -45q-39 0 -39 27q0 47 50 47z" />
    <glyph glyph-name="edotaccent" unicode="&#x117;" horiz-adv-x="509" 
d="M324 598q78 0 117 -31t39 -80q0 -86 -89 -140.5t-292 -77.5q-4 -32 -4 -66q0 -91 37 -129.5t110 -38.5q106 0 174 62l16 -33q-78 -73 -203 -73q-187 0 -187 211q0 45 7 93q21 149 90.5 226t184.5 77zM319 556q-175 0 -214 -247q176 19 251 61.5t75 108.5q0 35 -28.5 56
t-83.5 21zM352 796q38 0 38 -32q0 -45 -48 -45q-40 0 -40 30q0 22 13 34.5t37 12.5z" />
    <glyph glyph-name="Eogonek" unicode="&#x118;" horiz-adv-x="628" 
d="M127 48h403l-8 -48h-50q-36 0 -61.5 -31t-25.5 -65q0 -47 58 -47q37 0 68 17l3 -29q-41 -23 -89 -23q-42 0 -64 18t-22 50q0 33 18.5 63t53.5 47h-347l105 750h439l-4 -48h-385l-40 -285h334l-6 -46h-334z" />
    <glyph glyph-name="eogonek" unicode="&#x119;" horiz-adv-x="509" 
d="M234 -176q-83 0 -83 62q0 66 72 107q-89 1 -135 50.5t-46 158.5q0 45 7 93q21 149 90.5 226t184.5 77q78 0 117 -31t39 -80q0 -86 -89 -140.5t-292 -77.5q-4 -32 -4 -66q0 -91 37 -129.5t110 -38.5q106 0 174 62l16 -33q-58 -55 -146 -68q-36 -5 -64 -32.5t-28 -64.5
q0 -42 57 -42q40 0 70 18v-29q-42 -22 -87 -22zM319 556q-175 0 -214 -247q176 19 251 61.5t75 108.5q0 35 -28.5 56t-83.5 21z" />
    <glyph glyph-name="Ecaron" unicode="&#x11a;" horiz-adv-x="628" 
d="M127 48h403l-8 -48h-458l105 750h439l-4 -48h-385l-40 -285h334l-6 -46h-334zM416 799h-57l-105 114h58l79 -91l105 91h56z" />
    <glyph glyph-name="ecaron" unicode="&#x11b;" horiz-adv-x="509" 
d="M324 598q78 0 117 -31t39 -80q0 -86 -89 -140.5t-292 -77.5q-4 -32 -4 -66q0 -91 37 -129.5t110 -38.5q106 0 174 62l16 -33q-78 -73 -203 -73q-187 0 -187 211q0 45 7 93q21 149 90.5 226t184.5 77zM319 556q-175 0 -214 -247q176 19 251 61.5t75 108.5q0 35 -28.5 56
t-83.5 21zM343 667h-50l-87 141h46l70 -117l102 117h46z" />
    <glyph glyph-name="Gcircumflex" unicode="&#x11c;" horiz-adv-x="684" 
d="M615 393l-51 -362q-93 -45 -218 -45q-144 0 -212.5 64t-68.5 206q0 52 9 116q29 208 120.5 299t261.5 91q107 0 188 -38l-15 -48q-78 39 -177 39q-142 0 -216.5 -75.5t-101.5 -267.5q-9 -64 -9 -115q0 -119 53.5 -170.5t171.5 -51.5q92 0 165 31l46 327h54zM432 913h57
l107 -114h-59l-80 90l-103 -90h-57z" />
    <glyph glyph-name="gcircumflex" unicode="&#x11d;" horiz-adv-x="589" 
d="M533 588l-68 -485q-19 -134 -85.5 -192.5t-182.5 -58.5q-90 0 -160 39l15 41q71 -37 143 -37q93 0 147 45.5t70 159.5l5 37l-2 1q-63 -108 -190 -108q-81 0 -123.5 42.5t-42.5 141.5q0 178 88.5 280t240.5 102q30 0 73.5 -4t61.5 -4h10zM241 72q79 0 130.5 55.5
t65.5 155.5l38 265q-68 5 -92 5q-120 0 -195 -88.5t-75 -246.5q0 -80 32 -113t96 -33zM356 808h49l89 -141h-46l-70 118l-103 -118h-45z" />
    <glyph glyph-name="Gbreve" unicode="&#x11e;" horiz-adv-x="684" 
d="M615 393l-51 -362q-93 -45 -218 -45q-144 0 -212.5 64t-68.5 206q0 52 9 116q29 208 120.5 299t261.5 91q107 0 188 -38l-15 -48q-78 39 -177 39q-142 0 -216.5 -75.5t-101.5 -267.5q-9 -64 -9 -115q0 -119 53.5 -170.5t171.5 -51.5q92 0 165 31l46 327h54zM562 915h43
q-8 -57 -48.5 -88t-111.5 -31q-130 0 -130 96q0 7 2 23h42q-1 -6 -1 -16q0 -36 25.5 -53.5t66.5 -17.5q101 0 112 87z" />
    <glyph glyph-name="gbreve" unicode="&#x11f;" horiz-adv-x="589" 
d="M533 588l-68 -485q-19 -134 -85.5 -192.5t-182.5 -58.5q-90 0 -160 39l15 41q71 -37 143 -37q93 0 147 45.5t70 159.5l5 37l-2 1q-63 -108 -190 -108q-81 0 -123.5 42.5t-42.5 141.5q0 178 88.5 280t240.5 102q30 0 73.5 -4t61.5 -4h10zM241 72q79 0 130.5 55.5
t65.5 155.5l38 265q-68 5 -92 5q-120 0 -195 -88.5t-75 -246.5q0 -80 32 -113t96 -33zM466 808h41q-10 -69 -48 -109t-101 -40q-113 0 -113 113q0 16 3 36h40q-2 -10 -2 -28q0 -43 20.5 -65.5t56.5 -22.5q40 0 68 30t35 86z" />
    <glyph glyph-name="Gdotaccent" unicode="&#x120;" horiz-adv-x="684" 
d="M615 393l-51 -362q-93 -45 -218 -45q-144 0 -212.5 64t-68.5 206q0 52 9 116q29 208 120.5 299t261.5 91q107 0 188 -38l-15 -48q-78 39 -177 39q-142 0 -216.5 -75.5t-101.5 -267.5q-9 -64 -9 -115q0 -119 53.5 -170.5t171.5 -51.5q92 0 165 31l46 327h54zM459 883
q38 0 38 -29q0 -45 -49 -45q-39 0 -39 27q0 47 50 47z" />
    <glyph glyph-name="gdotaccent" unicode="&#x121;" horiz-adv-x="589" 
d="M533 588l-68 -485q-19 -134 -85.5 -192.5t-182.5 -58.5q-90 0 -160 39l15 41q71 -37 143 -37q93 0 147 45.5t70 159.5l5 37l-2 1q-63 -108 -190 -108q-81 0 -123.5 42.5t-42.5 141.5q0 178 88.5 280t240.5 102q30 0 73.5 -4t61.5 -4h10zM241 72q79 0 130.5 55.5
t65.5 155.5l38 265q-68 5 -92 5q-120 0 -195 -88.5t-75 -246.5q0 -80 32 -113t96 -33zM403 796q38 0 38 -32q0 -45 -48 -45q-40 0 -40 30q0 22 13 34.5t37 12.5z" />
    <glyph glyph-name="Gcommaaccent" unicode="&#x122;" horiz-adv-x="684" 
d="M615 393l-51 -362q-93 -45 -218 -45q-144 0 -212.5 64t-68.5 206q0 52 9 116q29 208 120.5 299t261.5 91q107 0 188 -38l-15 -48q-78 39 -177 39q-142 0 -216.5 -75.5t-101.5 -267.5q-9 -64 -9 -115q0 -119 53.5 -170.5t171.5 -51.5q92 0 165 31l46 327h54zM336 -45
q39 0 39 -28q0 -32 -86 -124l-13 9q35 51 47 81h-2q-15 0 -24 7t-9 18q0 16 12 26.5t36 10.5z" />
    <glyph glyph-name="gcommaaccent" unicode="&#x123;" horiz-adv-x="589" 
d="M533 588l-68 -485q-19 -134 -85.5 -192.5t-182.5 -58.5q-90 0 -160 39l15 41q71 -37 143 -37q93 0 147 45.5t70 159.5l5 37l-2 1q-63 -108 -190 -108q-81 0 -123.5 42.5t-42.5 141.5q0 178 88.5 280t240.5 102q30 0 73.5 -4t61.5 -4h10zM241 72q79 0 130.5 55.5
t65.5 155.5l38 265q-68 5 -92 5q-120 0 -195 -88.5t-75 -246.5q0 -80 32 -113t96 -33zM382 672q-34 0 -34 31q0 37 80 121l15 -9q-40 -63 -48 -80h2q29 0 29 -27q0 -15 -11.5 -25.5t-32.5 -10.5z" />
    <glyph glyph-name="Hcircumflex" unicode="&#x124;" horiz-adv-x="762" 
d="M597 0h-57l51 369h-418l-51 -369h-58l105 750h58l-47 -333h418l47 333h57zM423 913h57l107 -114h-59l-80 90l-103 -90h-57z" />
    <glyph glyph-name="hcircumflex" unicode="&#x125;" horiz-adv-x="597" 
d="M469 0h-54l53 380q4 29 4 58q0 62 -27.5 88.5t-86.5 26.5q-85 0 -143 -56t-72 -156l-47 -341h-54l112 797l54 6l-38 -273q-5 -31 -7 -40l2 -1q73 109 209 109q153 0 153 -157q0 -24 -5 -61zM176 933h57l107 -114h-59l-80 90l-103 -90h-57z" />
    <glyph glyph-name="Hbar" unicode="&#x126;" horiz-adv-x="762" 
d="M597 0h-57l51 369h-418l-51 -369h-58l78 556h-65l5 35h65l22 159h58l-22 -159h418l22 159h57l-22 -159h74l-5 -35h-74zM180 417h418l20 139h-418z" />
    <glyph glyph-name="hbar" unicode="&#x127;" horiz-adv-x="604" 
d="M102 0h-54l92 657h-77l5 35h77l15 105l54 6l-15 -111h123l-5 -35h-123l-18 -130q-5 -31 -7 -40l2 -1q71 110 208 110q154 0 154 -157q0 -24 -5 -61l-53 -378h-53l52 377q5 37 5 59q0 62 -27.5 88.5t-86.5 26.5q-85 0 -143.5 -56t-72.5 -156z" />
    <glyph glyph-name="Itilde" unicode="&#x128;" horiz-adv-x="315" 
d="M79 0l105 750h58l-105 -750h-58zM116 801h-30q26 94 89 94q22 0 42 -19t37.5 -38t32.5 -19q30 0 52 60h28q-24 -93 -86 -93q-22 0 -42 19l-38 37.5t-33 18.5q-30 0 -52 -60z" />
    <glyph glyph-name="itilde" unicode="&#x129;" horiz-adv-x="255" 
d="M105 0h-55l82 586l55 4zM237 683q-24 0 -43.5 19.5t-36.5 38.5t-33 19q-33 0 -53 -67h-34q12 47 36 74.5t55 27.5q23 0 43 -19.5t36.5 -38.5t33.5 -19q33 0 53 67h35q-13 -48 -37 -75t-55 -27z" />
    <glyph glyph-name="Imacron" unicode="&#x12a;" horiz-adv-x="315" 
d="M79 0l105 750h58l-105 -750h-58zM354 853l-4 -32h-259l4 32h259z" />
    <glyph glyph-name="imacron" unicode="&#x12b;" horiz-adv-x="255" 
d="M105 0h-55l82 586l55 4zM313 763l-5 -34h-258l5 34h258z" />
    <glyph glyph-name="Ibreve" unicode="&#x12c;" horiz-adv-x="315" 
d="M79 0l105 750h58l-105 -750h-58zM335 915h43q-8 -57 -48.5 -88t-111.5 -31q-130 0 -130 96q0 7 2 23h42q-1 -6 -1 -16q0 -36 25.5 -53.5t66.5 -17.5q101 0 112 87z" />
    <glyph glyph-name="ibreve" unicode="&#x12d;" horiz-adv-x="255" 
d="M105 0h-55l82 586l55 4zM280 808h41q-10 -69 -48 -109t-101 -40q-113 0 -113 113q0 16 3 36h40q-2 -10 -2 -28q0 -43 20.5 -65.5t56.5 -22.5q40 0 68 30t35 86z" />
    <glyph glyph-name="Iogonek" unicode="&#x12e;" horiz-adv-x="315" 
d="M137 0h-4q-36 0 -61.5 -31t-25.5 -65q0 -47 58 -47q37 0 68 17l3 -29q-41 -23 -89 -23q-42 0 -64 18t-22 50q0 36 21.5 68t57.5 48l105 744h58z" />
    <glyph glyph-name="iogonek" unicode="&#x12f;" horiz-adv-x="255" 
d="M54 -176q-84 0 -84 64q0 31 22 62t58 50l82 586l54 4l-82 -590q-41 -12 -65.5 -41.5t-24.5 -60.5q0 -41 56 -41q40 0 70 18l1 -29q-42 -22 -87 -22zM187 796q38 0 38 -32q0 -45 -48 -45q-40 0 -40 30q0 22 13 34.5t37 12.5z" />
    <glyph glyph-name="Idotaccent" unicode="&#x130;" horiz-adv-x="315" 
d="M79 0l105 750h58l-105 -750h-58zM231 883q38 0 38 -29q0 -45 -49 -45q-39 0 -39 27q0 47 50 47z" />
    <glyph glyph-name="dotlessi" unicode="&#x131;" horiz-adv-x="255" 
d="M105 0h-55l82 586l55 4z" />
    <glyph glyph-name="IJ" unicode="&#x132;" horiz-adv-x="844" 
d="M79 0l105 750h58l-105 -750h-58zM784 750l-72 -513q-19 -131 -82.5 -189.5t-183.5 -58.5q-44 0 -87.5 12.5t-70.5 33.5l14 46q55 -45 147 -45t141.5 46.5t64.5 154.5l72 513h57z" />
    <glyph glyph-name="ij" unicode="&#x133;" horiz-adv-x="522" 
d="M104 0h-54l82 586l54 4zM454 590l-69 -493q-17 -120 -72 -174.5t-161 -70.5v38q85 15 124.5 59t54.5 147l69 490zM187 796q38 0 38 -32q0 -45 -48 -45q-40 0 -40 30q0 22 13 34.5t37 12.5zM455 796q38 0 38 -32q0 -45 -48 -45q-40 0 -40 30q0 22 13 34.5t37 12.5z" />
    <glyph glyph-name="Jcircumflex" unicode="&#x134;" horiz-adv-x="549" 
d="M489 750l-72 -513q-19 -131 -82.5 -189.5t-183.5 -58.5q-44 0 -87.5 12.5t-70.5 33.5l14 46q55 -45 147 -45t141.5 46.5t64.5 154.5l72 513h57zM443 913h57l107 -114h-59l-80 90l-103 -90h-57z" />
    <glyph glyph-name="jcircumflex" unicode="&#x135;" horiz-adv-x="282" 
d="M214 590l-69 -493q-17 -119 -71.5 -174t-160.5 -71v38q84 15 123.5 59t54.5 147l69 490zM186 808h49l89 -141h-46l-70 118l-103 -118h-45z" />
    <glyph glyph-name="Kcommaaccent" unicode="&#x136;" horiz-adv-x="693" 
d="M607 0h-76l-230 371h-127l-52 -371h-58l105 750h58l-47 -333h127l314 333h74l-334 -353zM300 -45q39 0 39 -28q0 -32 -86 -124l-13 9q35 51 47 81h-2q-15 0 -24 7t-9 18q0 16 12 26.5t36 10.5z" />
    <glyph glyph-name="kcommaaccent" unicode="&#x137;" horiz-adv-x="582" 
d="M96 0h-54l112 797l54 6l-48 -347q-5 -31 -7 -40l2 -1q46 87 113.5 135t141.5 48q113 0 113 -98q0 -73 -59 -138.5t-166 -102.5q30 -92 89.5 -152.5t132.5 -72.5l-11 -42q-91 9 -165.5 87t-107.5 202q111 29 172 87t61 120q0 65 -75 65q-92 0 -171 -100.5t-100 -256.5z
M252 -45q39 0 39 -28q0 -32 -86 -124l-13 9q35 51 47 81h-2q-15 0 -24 7t-9 18q0 16 12 26.5t36 10.5z" />
    <glyph glyph-name="kgreenlandic" unicode="&#x138;" horiz-adv-x="527" 
d="M91 0h-53l82 586l54 5l-30 -216q-4 -28 -7 -41h1q76 34 172 110t149 144h56q-40 -65 -141 -149t-187 -126q42 -89 131.5 -175.5t157.5 -103.5l-13 -42q-94 21 -188.5 114t-139.5 205h-2q-2 -30 -4 -41z" />
    <glyph glyph-name="Lacute" unicode="&#x139;" horiz-adv-x="578" 
d="M128 49h377l-9 -49h-432l105 750h58zM313 912h81l-140 -113h-47z" />
    <glyph glyph-name="lacute" unicode="&#x13a;" horiz-adv-x="238" 
d="M96 0h-54l112 797l54 6zM261 931h81l-140 -113h-47z" />
    <glyph glyph-name="Lcommaaccent" unicode="&#x13b;" horiz-adv-x="578" 
d="M128 49h377l-9 -49h-432l105 750h58zM272 -45q39 0 39 -28q0 -32 -86 -124l-13 9q35 51 47 81h-2q-15 0 -24 7t-9 18q0 16 12 26.5t36 10.5z" />
    <glyph glyph-name="lcommaaccent" unicode="&#x13c;" horiz-adv-x="238" 
d="M96 0h-54l112 797l54 6zM62 -45q39 0 39 -28q0 -32 -86 -124l-13 9q35 51 47 81h-2q-15 0 -24 7t-9 18q0 16 12 26.5t36 10.5z" />
    <glyph glyph-name="Lcaron" unicode="&#x13d;" horiz-adv-x="578" 
d="M128 49h377l-9 -49h-432l105 750h58zM457 792q34 0 34 -30q0 -35 -79 -122l-16 9q35 50 48 81h-1q-30 0 -30 26q0 15 11.5 25.5t32.5 10.5z" />
    <glyph glyph-name="lcaron" unicode="&#x13e;" horiz-adv-x="238" 
d="M96 0h-54l112 797l54 6zM340 807q34 0 34 -30q0 -35 -79 -122l-16 9q35 50 48 81h-1q-30 0 -30 26q0 15 11.5 25.5t32.5 10.5z" />
    <glyph glyph-name="Ldot" unicode="&#x13f;" horiz-adv-x="578" 
d="M128 49h377l-9 -49h-432l105 750h58zM441 447q36 0 36 -33q0 -22 -13 -34.5t-34 -12.5q-38 0 -38 30q0 50 49 50z" />
    <glyph glyph-name="ldot" unicode="&#x140;" horiz-adv-x="349" 
d="M97 0h-54l112 797l54 6zM303 427q36 0 36 -30q0 -49 -48 -49q-37 0 -37 30q0 49 49 49z" />
    <glyph glyph-name="Lslash" unicode="&#x141;" horiz-adv-x="599" 
d="M149 49h377l-9 -49h-432l43 311l-88 -42l2 46l93 45l55 390h58l-52 -365l244 116v-48l-251 -117z" />
    <glyph glyph-name="lslash" unicode="&#x142;" horiz-adv-x="339" 
d="M57 398l6 45l100 52l43 302l54 6l-40 -285l108 57l-5 -43l-109 -58l-66 -474h-54l63 451z" />
    <glyph glyph-name="Nacute" unicode="&#x143;" horiz-adv-x="767" 
d="M602 0h-43l-350 669h-2q0 -15 -4 -41l-87 -628h-52l105 750h60l336 -650h2q0 14 4 40l85 610h51zM509 912h81l-140 -113h-47z" />
    <glyph glyph-name="nacute" unicode="&#x144;" horiz-adv-x="593" 
d="M410 0l53 379q4 29 4 58q0 63 -27.5 89.5t-86.5 26.5q-85 0 -143 -56t-72 -156l-47 -341h-54l82 586l43 5l-7 -106l2 -1q72 114 212 114q153 0 153 -157q0 -24 -5 -61l-53 -380h-54zM397 809h74l-130 -141h-46z" />
    <glyph glyph-name="Ncommaaccent" unicode="&#x145;" horiz-adv-x="767" 
d="M602 0h-43l-350 669h-2q0 -15 -4 -41l-87 -628h-52l105 750h60l336 -650h2q0 14 4 40l85 610h51zM330 -45q39 0 39 -28q0 -32 -86 -124l-13 9q35 51 47 81h-2q-15 0 -24 7t-9 18q0 16 12 26.5t36 10.5z" />
    <glyph glyph-name="ncommaaccent" unicode="&#x146;" horiz-adv-x="593" 
d="M410 0l53 379q4 29 4 58q0 63 -27.5 89.5t-86.5 26.5q-85 0 -143 -56t-72 -156l-47 -341h-54l82 586l43 5l-7 -106l2 -1q72 114 212 114q153 0 153 -157q0 -24 -5 -61l-53 -380h-54zM257 -45q39 0 39 -28q0 -32 -86 -124l-13 9q35 51 47 81h-2q-15 0 -24 7t-9 18
q0 16 12 26.5t36 10.5z" />
    <glyph glyph-name="Ncaron" unicode="&#x147;" horiz-adv-x="767" 
d="M602 0h-43l-350 669h-2q0 -15 -4 -41l-87 -628h-52l105 750h60l336 -650h2q0 14 4 40l85 610h51zM478 799h-57l-105 114h58l79 -91l105 91h56z" />
    <glyph glyph-name="ncaron" unicode="&#x148;" horiz-adv-x="593" 
d="M410 0l53 379q4 29 4 58q0 63 -27.5 89.5t-86.5 26.5q-85 0 -143 -56t-72 -156l-47 -341h-54l82 586l43 5l-7 -106l2 -1q72 114 212 114q153 0 153 -157q0 -24 -5 -61l-53 -380h-54zM357 668h-50l-87 141h46l70 -117l102 117h46z" />
    <glyph glyph-name="napostrophe" unicode="&#x149;" horiz-adv-x="593" 
d="M410 0l53 379q4 29 4 58q0 63 -27.5 89.5t-86.5 26.5q-85 0 -143 -56t-72 -156l-47 -341h-54l82 586l43 5l-7 -106l2 -1q72 114 212 114q153 0 153 -157q0 -24 -5 -61l-53 -380h-54zM95 807q34 0 34 -30q0 -35 -79 -122l-16 9q35 50 48 81h-1q-30 0 -30 26
q0 15 11.5 25.5t32.5 10.5z" />
    <glyph glyph-name="Eng" unicode="&#x14a;" horiz-adv-x="767" 
d="M707 750l-98 -696q-14 -98 -56.5 -140.5t-113.5 -42.5q-59 0 -99 26l10 37q41 -23 86 -23q89 0 115 104l-340 654h-2q0 -15 -4 -41l-89 -628h-52l105 750h60l335 -655h2q0 14 4 40l86 615h51z" />
    <glyph glyph-name="eng" unicode="&#x14b;" horiz-adv-x="593" 
d="M246 -110q84 15 123 59t54 147l40 283q4 29 4 58q0 63 -27.5 89.5t-86.5 26.5q-85 0 -143 -56t-72 -156l-47 -341h-54l82 586l43 5l-7 -106l2 -1q72 114 212 114q153 0 153 -157q0 -24 -5 -61l-40 -283q-17 -120 -71.5 -175t-159.5 -70v38z" />
    <glyph glyph-name="Omacron" unicode="&#x14c;" horiz-adv-x="738" 
d="M668 375q-29 -211 -108.5 -299.5t-241.5 -88.5q-134 0 -194.5 59.5t-60.5 195.5q0 54 11 133q30 210 110.5 298.5t242.5 88.5q133 0 192.5 -58.5t59.5 -191.5q0 -57 -11 -137zM609 375q11 80 11 134q0 115 -47 160t-153 45q-131 0 -195 -72.5t-91 -266.5
q-11 -80 -11 -132q0 -115 47.5 -161.5t153.5 -46.5q130 0 194 73.5t91 266.5zM561 853l-4 -32h-259l4 32h259z" />
    <glyph glyph-name="omacron" unicode="&#x14d;" horiz-adv-x="576" 
d="M316 554q-95 0 -144 -59.5t-68 -201.5q-8 -52 -8 -101q0 -87 34.5 -123t111.5 -36q94 0 143.5 60t69.5 202q8 59 8 98q0 87 -35 124t-112 37zM324 598q102 0 148 -47t46 -153q0 -42 -8 -104q-23 -160 -87 -232t-188 -72q-102 0 -148 47t-46 152q0 54 8 106q22 159 86 231
t189 72zM476 763l-5 -34h-258l5 34h258z" />
    <glyph glyph-name="Obreve" unicode="&#x14e;" horiz-adv-x="738" 
d="M668 375q-29 -211 -108.5 -299.5t-241.5 -88.5q-134 0 -194.5 59.5t-60.5 195.5q0 54 11 133q30 210 110.5 298.5t242.5 88.5q133 0 192.5 -58.5t59.5 -191.5q0 -57 -11 -137zM609 375q11 80 11 134q0 115 -47 160t-153 45q-131 0 -195 -72.5t-91 -266.5
q-11 -80 -11 -132q0 -115 47.5 -161.5t153.5 -46.5q130 0 194 73.5t91 266.5zM546 915h43q-8 -57 -48.5 -88t-111.5 -31q-130 0 -130 96q0 7 2 23h42q-1 -6 -1 -16q0 -36 25.5 -53.5t66.5 -17.5q101 0 112 87z" />
    <glyph glyph-name="obreve" unicode="&#x14f;" horiz-adv-x="576" 
d="M316 554q-95 0 -144 -59.5t-68 -201.5q-8 -52 -8 -101q0 -87 34.5 -123t111.5 -36q94 0 143.5 60t69.5 202q8 59 8 98q0 87 -35 124t-112 37zM324 598q102 0 148 -47t46 -153q0 -42 -8 -104q-23 -160 -87 -232t-188 -72q-102 0 -148 47t-46 152q0 54 8 106q22 159 86 231
t189 72zM440 808h41q-10 -69 -48 -109t-101 -40q-113 0 -113 113q0 16 3 36h40q-2 -10 -2 -28q0 -43 20.5 -65.5t56.5 -22.5q40 0 68 30t35 86z" />
    <glyph glyph-name="Ohungarumlaut" unicode="&#x150;" horiz-adv-x="738" 
d="M668 375q-29 -211 -108.5 -299.5t-241.5 -88.5q-134 0 -194.5 59.5t-60.5 195.5q0 54 11 133q30 210 110.5 298.5t242.5 88.5q133 0 192.5 -58.5t59.5 -191.5q0 -57 -11 -137zM609 375q11 80 11 134q0 115 -47 160t-153 45q-131 0 -195 -72.5t-91 -266.5
q-11 -80 -11 -132q0 -115 47.5 -161.5t153.5 -46.5q130 0 194 73.5t91 266.5zM433 915h67l-120 -115h-39zM573 915h68l-137 -115h-44z" />
    <glyph glyph-name="ohungarumlaut" unicode="&#x151;" horiz-adv-x="576" 
d="M316 554q-95 0 -144 -59.5t-68 -201.5q-8 -52 -8 -101q0 -87 34.5 -123t111.5 -36q94 0 143.5 60t69.5 202q8 59 8 98q0 87 -35 124t-112 37zM324 598q102 0 148 -47t46 -153q0 -42 -8 -104q-23 -160 -87 -232t-188 -72q-102 0 -148 47t-46 152q0 54 8 106q22 159 86 231
t189 72zM346 808h66l-129 -141h-38zM482 808h65l-131 -141h-44z" />
    <glyph glyph-name="OE" unicode="&#x152;" horiz-adv-x="1115" 
d="M1009 0h-452l12 86q1 16 7 41l-2 1q-78 -141 -266 -141q-128 0 -186.5 59.5t-58.5 194.5q0 55 11 134q30 210 109 298.5t235 88.5q190 0 226 -134h2q1 17 5 41l11 81h434l-5 -48h-384l-40 -286h333l-6 -44h-333l-46 -324h402zM605 375q11 83 11 137q0 113 -45.5 157.5
t-150.5 44.5q-131 0 -195 -73t-91 -266q-11 -80 -11 -132q0 -115 47.5 -161.5t153.5 -46.5q129 0 191.5 73t89.5 267z" />
    <glyph glyph-name="oe" unicode="&#x153;" horiz-adv-x="915" 
d="M324 598q84 0 127.5 -35.5t53.5 -113.5h2q64 149 223 149q76 0 115.5 -31t39.5 -84q0 -83 -88.5 -137t-291.5 -78q-4 -32 -4 -66q0 -91 37 -129t110 -38q105 0 173 62l17 -33q-79 -73 -204 -73q-75 0 -118.5 35t-54.5 113h-2q-59 -149 -224 -149q-102 0 -148 47t-46 152
q0 54 8 106q22 159 86 231t189 72zM316 554q-95 -1 -144 -60.5t-68 -200.5q-8 -52 -8 -101q0 -87 34.5 -123t111.5 -36q94 0 143.5 60t69.5 202q8 59 8 98q0 87 -35 124t-112 37zM731 556q-181 0 -220 -247q179 19 252 61.5t73 107.5q0 36 -26 57t-79 21z" />
    <glyph glyph-name="Racute" unicode="&#x154;" horiz-adv-x="651" 
d="M169 750h242q190 0 190 -153q0 -219 -195 -242l164 -355h-71l-150 346h-179l-48 -346h-58zM220 703l-44 -312h178q188 0 188 198q0 60 -34 87t-105 27h-183zM425 912h81l-140 -113h-47z" />
    <glyph glyph-name="racute" unicode="&#x155;" horiz-adv-x="428" 
d="M361 596q41 0 70 -12l-15 -49q-26 11 -65 11q-82 0 -143.5 -71t-78.5 -199l-38 -276h-53l82 586l43 4l-9 -105q-2 -26 -4 -40l2 -1q72 152 209 152zM317 808h74l-130 -141h-46z" />
    <glyph glyph-name="Rcommaaccent" unicode="&#x156;" horiz-adv-x="651" 
d="M169 750h242q190 0 190 -153q0 -219 -195 -242l164 -355h-71l-150 346h-179l-48 -346h-58zM220 703l-44 -312h178q188 0 188 198q0 60 -34 87t-105 27h-183zM282 -45q39 0 39 -28q0 -32 -86 -124l-13 9q35 51 47 81h-2q-15 0 -24 7t-9 18q0 16 12 26.5t36 10.5z" />
    <glyph glyph-name="rcommaaccent" unicode="&#x157;" horiz-adv-x="428" 
d="M361 596q41 0 70 -12l-15 -49q-26 11 -65 11q-82 0 -143.5 -71t-78.5 -199l-38 -276h-53l82 586l43 4l-9 -105q-2 -26 -4 -40l2 -1q72 152 209 152zM55 -45q39 0 39 -28q0 -32 -86 -124l-13 9q35 51 47 81h-2q-15 0 -24 7t-9 18q0 16 12 26.5t36 10.5z" />
    <glyph glyph-name="Rcaron" unicode="&#x158;" horiz-adv-x="651" 
d="M169 750h242q190 0 190 -153q0 -219 -195 -242l164 -355h-71l-150 346h-179l-48 -346h-58zM220 703l-44 -312h178q188 0 188 198q0 60 -34 87t-105 27h-183zM381 799h-57l-105 114h58l79 -91l105 91h56z" />
    <glyph glyph-name="rcaron" unicode="&#x159;" horiz-adv-x="428" 
d="M363 596q41 0 70 -12l-15 -49q-26 11 -65 11q-82 0 -143.5 -71t-78.5 -199l-38 -276h-53l82 586l43 4l-9 -105q-2 -26 -4 -40l2 -1q72 152 209 152zM286 667h-50l-87 141h46l70 -117l102 117h46z" />
    <glyph glyph-name="Sacute" unicode="&#x15a;" horiz-adv-x="563" 
d="M355 762q108 0 184 -41l-17 -46q-83 39 -171 39q-97 0 -148.5 -47.5t-51.5 -116.5q0 -34 19 -58.5t49 -40t66.5 -28.5t73 -27.5t66.5 -33.5t49 -51t19 -75q0 -115 -74 -182t-199 -67q-121 0 -205 58l19 48q78 -58 191 -58q95 0 153.5 50.5t58.5 137.5q0 42 -25.5 71.5
t-63.5 45l-82 33t-82 34.5t-63.5 51.5t-25.5 81.5q0 96 69 159t191 63zM404 912h81l-140 -113h-47z" />
    <glyph glyph-name="sacute" unicode="&#x15b;" horiz-adv-x="486" 
d="M294 598q88 0 150 -38l-21 -38q-61 32 -138 32q-67 0 -110 -31.5t-43 -80.5q0 -34 28.5 -58.5t69 -40.5t81.5 -34t69.5 -50t28.5 -78q0 -86 -58 -137.5t-161 -51.5q-52 0 -99 17t-77 45l22 39q58 -58 157 -58q77 0 120 39t43 97q0 32 -20.5 56.5t-51.5 38.5l-67.5 30.5
l-67.5 31.5t-51.5 42.5t-20.5 63.5q0 76 59 120t158 44zM348 808h74l-130 -141h-46z" />
    <glyph glyph-name="Scircumflex" unicode="&#x15c;" horiz-adv-x="563" 
d="M355 762q108 0 184 -41l-17 -46q-83 39 -171 39q-97 0 -148.5 -47.5t-51.5 -116.5q0 -34 19 -58.5t49 -40t66.5 -28.5t73 -27.5t66.5 -33.5t49 -51t19 -75q0 -115 -74 -182t-199 -67q-121 0 -205 58l19 48q78 -58 191 -58q95 0 153.5 50.5t58.5 137.5q0 42 -25.5 71.5
t-63.5 45l-82 33t-82 34.5t-63.5 51.5t-25.5 81.5q0 96 69 159t191 63zM353 913h57l107 -114h-59l-80 90l-103 -90h-57z" />
    <glyph glyph-name="scircumflex" unicode="&#x15d;" horiz-adv-x="486" 
d="M294 598q88 0 150 -38l-21 -38q-61 32 -138 32q-67 0 -110 -31.5t-43 -80.5q0 -34 28.5 -58.5t69 -40.5t81.5 -34t69.5 -50t28.5 -78q0 -86 -58 -137.5t-161 -51.5q-52 0 -99 17t-77 45l22 39q58 -58 157 -58q77 0 120 39t43 97q0 32 -20.5 56.5t-51.5 38.5l-67.5 30.5
l-67.5 31.5t-51.5 42.5t-20.5 63.5q0 76 59 120t158 44zM278 808h49l89 -141h-46l-70 118l-103 -118h-45z" />
    <glyph glyph-name="Scedilla" unicode="&#x15e;" horiz-adv-x="563" 
d="M130 -193l81 180q-117 3 -196 58l19 48q78 -58 191 -58q95 0 153.5 50.5t58.5 137.5q0 42 -25.5 71.5t-63.5 45l-82 33t-82 34.5t-63.5 51.5t-25.5 81.5q0 96 69 159t191 63q108 0 184 -41l-17 -46q-83 39 -171 39q-97 0 -148.5 -47.5t-51.5 -116.5q0 -34 19 -58.5
t49 -40t66.5 -28.5t73 -27.5t66.5 -33.5t49 -51t19 -75q0 -107 -65.5 -173t-175.5 -74l-63 -182h-59z" />
    <glyph glyph-name="scedilla" unicode="&#x15f;" horiz-adv-x="486" 
d="M89 -193l83 186q-102 6 -158 61l22 39q58 -58 157 -58q77 0 120 39t43 97q0 32 -20.5 56.5t-51.5 38.5l-67.5 30.5l-67.5 31.5t-51.5 42.5t-20.5 63.5q0 76 59 120t158 44q88 0 150 -38l-21 -38q-61 32 -138 32q-67 0 -110 -31.5t-43 -80.5q0 -34 28.5 -58.5t69 -40.5
t81.5 -34t69.5 -50t28.5 -78q0 -80 -52 -131.5t-144 -56.5l-65 -186h-59z" />
    <glyph glyph-name="Scaron" unicode="&#x160;" horiz-adv-x="563" 
d="M355 762q108 0 184 -41l-17 -46q-83 39 -171 39q-97 0 -148.5 -47.5t-51.5 -116.5q0 -34 19 -58.5t49 -40t66.5 -28.5t73 -27.5t66.5 -33.5t49 -51t19 -75q0 -115 -74 -182t-199 -67q-121 0 -205 58l19 48q78 -58 191 -58q95 0 153.5 50.5t58.5 137.5q0 42 -25.5 71.5
t-63.5 45l-82 33t-82 34.5t-63.5 51.5t-25.5 81.5q0 96 69 159t191 63zM397 799h-57l-105 114h58l79 -91l105 91h56z" />
    <glyph glyph-name="scaron" unicode="&#x161;" horiz-adv-x="486" 
d="M294 598q88 0 150 -38l-21 -38q-61 32 -138 32q-67 0 -110 -31.5t-43 -80.5q0 -34 28.5 -58.5t69 -40.5t81.5 -34t69.5 -50t28.5 -78q0 -86 -58 -137.5t-161 -51.5q-52 0 -99 17t-77 45l22 39q58 -58 157 -58q77 0 120 39t43 97q0 32 -20.5 56.5t-51.5 38.5l-67.5 30.5
l-67.5 31.5t-51.5 42.5t-20.5 63.5q0 76 59 120t158 44zM323 667h-50l-87 141h46l70 -117l102 117h46z" />
    <glyph glyph-name="Tcommaaccent" unicode="&#x162;" horiz-adv-x="574" 
d="M130 -193l87 193h-9l98 701h-239l9 49h532l-5 -49h-240l-98 -701h-8l-68 -193h-59z" />
    <glyph glyph-name="tcommaaccent" unicode="&#x163;" horiz-adv-x="408" 
d="M106 -193l84 187q-91 9 -91 125q0 29 4 58l52 370h-93l10 40h91l32 162l43 9l-24 -171h175l-9 -40h-172l-51 -368q-4 -25 -4 -51q0 -92 75 -92q44 0 91 31l6 -37q-43 -31 -94 -36l-66 -187h-59z" />
    <glyph glyph-name="Tcaron" unicode="&#x164;" horiz-adv-x="574" 
d="M603 701h-240l-98 -701h-57l98 701h-239l9 49h532zM375 799h-57l-105 114h58l79 -91l105 91h56z" />
    <glyph glyph-name="tcaron" unicode="&#x165;" horiz-adv-x="408" 
d="M62 547l10 40h91l32 162l43 9l-24 -171h175l-9 -40h-172l-51 -368q-4 -25 -4 -51q0 -92 75 -92q44 0 91 31l6 -37q-54 -37 -115 -37q-56 0 -83.5 30t-27.5 96q0 29 4 58l52 370h-93zM471 807q34 0 34 -30q0 -35 -79 -122l-16 9q35 50 48 81h-1q-30 0 -30 26
q0 15 11.5 25.5t32.5 10.5z" />
    <glyph glyph-name="Tbar" unicode="&#x166;" horiz-adv-x="574" 
d="M603 701h-240l-28 -202h152l-6 -39h-152l-64 -460h-57l64 460h-130l6 39h130l28 202h-239l9 49h532z" />
    <glyph glyph-name="tbar" unicode="&#x167;" horiz-adv-x="408" 
d="M65 549l8 38h90l33 162l43 9l-24 -171h175l-9 -38h-171l-15 -106h166l-9 -38h-163l-31 -226q-4 -25 -4 -51q0 -92 75 -92q44 0 91 31l5 -37q-54 -37 -114 -37q-56 0 -84 30t-28 96q0 30 4 58l32 228h-88l10 37h84l15 107h-91z" />
    <glyph glyph-name="Utilde" unicode="&#x168;" horiz-adv-x="744" 
d="M701 750l-67 -478q-21 -149 -100.5 -217.5t-213.5 -68.5q-240 0 -240 216q0 39 5 70l67 478h57l-68 -480q-4 -28 -4 -59q0 -90 47 -132.5t143 -42.5q110 0 171.5 57t78.5 177l68 480h56zM326 801h-30q26 94 89 94q22 0 42 -19t37.5 -38t32.5 -19q30 0 52 60h28
q-24 -93 -86 -93q-22 0 -42 19l-38 37.5t-33 18.5q-30 0 -52 -60z" />
    <glyph glyph-name="utilde" unicode="&#x169;" horiz-adv-x="580" 
d="M534 588l-57 -404q-13 -93 -73.5 -144.5t-165.5 -51.5q-93 0 -140 41t-47 116q0 18 3 39l57 402l54 5l-57 -406q-2 -11 -2 -32q0 -118 138 -118q77 0 123 38.5t57 111.5l56 403h54zM400 684q-24 0 -43.5 19t-36.5 38.5t-33 19.5q-33 0 -53 -67h-34q12 47 36 74.5t55 27.5
q18 0 35 -12t27 -26.5t23.5 -26.5t27.5 -12q33 0 53 67h35q-13 -48 -37 -75t-55 -27z" />
    <glyph glyph-name="Umacron" unicode="&#x16a;" horiz-adv-x="744" 
d="M701 750l-67 -478q-21 -149 -100.5 -217.5t-213.5 -68.5q-240 0 -240 216q0 39 5 70l67 478h57l-68 -480q-4 -28 -4 -59q0 -90 47 -132.5t143 -42.5q110 0 171.5 57t78.5 177l68 480h56zM567 853l-4 -32h-259l4 32h259z" />
    <glyph glyph-name="umacron" unicode="&#x16b;" horiz-adv-x="580" 
d="M534 588l-57 -404q-13 -93 -73.5 -144.5t-165.5 -51.5q-93 0 -140 41t-47 116q0 18 3 39l57 402l54 5l-57 -406q-2 -11 -2 -32q0 -118 138 -118q77 0 123 38.5t57 111.5l56 403h54zM469 764l-5 -34h-258l5 34h258z" />
    <glyph glyph-name="Ubreve" unicode="&#x16c;" horiz-adv-x="744" 
d="M701 750l-67 -478q-21 -149 -100.5 -217.5t-213.5 -68.5q-240 0 -240 216q0 39 5 70l67 478h57l-68 -480q-4 -28 -4 -59q0 -90 47 -132.5t143 -42.5q110 0 171.5 57t78.5 177l68 480h56zM549 915h43q-8 -57 -48.5 -88t-111.5 -31q-130 0 -130 96q0 7 2 23h42
q-1 -6 -1 -16q0 -36 25.5 -53.5t66.5 -17.5q101 0 112 87z" />
    <glyph glyph-name="ubreve" unicode="&#x16d;" horiz-adv-x="580" 
d="M534 588l-57 -404q-13 -93 -73.5 -144.5t-165.5 -51.5q-93 0 -140 41t-47 116q0 18 3 39l57 402l54 5l-57 -406q-2 -11 -2 -32q0 -118 138 -118q77 0 123 38.5t57 111.5l56 403h54zM439 809h41q-10 -69 -48 -109t-101 -40q-113 0 -113 113q0 17 3 36h40q-2 -10 -2 -28
q0 -43 20.5 -65.5t56.5 -22.5q40 0 68 30t35 86z" />
    <glyph glyph-name="Uring" unicode="&#x16e;" horiz-adv-x="744" 
d="M701 750l-67 -478q-21 -149 -100.5 -217.5t-213.5 -68.5q-240 0 -240 216q0 39 5 70l67 478h57l-68 -480q-4 -28 -4 -59q0 -90 47 -132.5t143 -42.5q110 0 171.5 57t78.5 177l68 480h56zM442 866q33 0 51.5 -15.5t18.5 -41.5q0 -35 -25 -57t-64 -22q-69 0 -69 55
q0 35 24 58t64 23zM439 838q-25 0 -39.5 -14t-14.5 -34q0 -34 42 -34q23 0 37.5 12.5t14.5 34.5q0 35 -40 35z" />
    <glyph glyph-name="uring" unicode="&#x16f;" horiz-adv-x="580" 
d="M534 588l-57 -404q-13 -93 -73.5 -144.5t-165.5 -51.5q-93 0 -140 41t-47 116q0 18 3 39l57 402l54 5l-57 -406q-2 -11 -2 -32q0 -118 138 -118q77 0 123 38.5t57 111.5l56 403h54zM357 820q35 0 55.5 -17.5t20.5 -45.5q0 -37 -27 -60t-70 -23q-35 0 -55 16t-20 45
q0 36 27 60.5t69 24.5zM354 795q-27 0 -44.5 -16.5t-17.5 -40.5q0 -40 48 -40q27 0 45 15.5t18 39.5q0 18 -13 30t-36 12z" />
    <glyph glyph-name="Uhungarumlaut" unicode="&#x170;" horiz-adv-x="744" 
d="M701 750l-67 -478q-21 -149 -100.5 -217.5t-213.5 -68.5q-240 0 -240 216q0 39 5 70l67 478h57l-68 -480q-4 -28 -4 -59q0 -90 47 -132.5t143 -42.5q110 0 171.5 57t78.5 177l68 480h56zM420 915h67l-120 -115h-39zM560 915h68l-137 -115h-44z" />
    <glyph glyph-name="uhungarumlaut" unicode="&#x171;" horiz-adv-x="580" 
d="M534 588l-57 -404q-13 -93 -73.5 -144.5t-165.5 -51.5q-93 0 -140 41t-47 116q0 18 3 39l57 402l54 5l-57 -406q-2 -11 -2 -32q0 -118 138 -118q77 0 123 38.5t57 111.5l56 403h54zM334 809h66l-129 -141h-38zM470 809h65l-131 -141h-44z" />
    <glyph glyph-name="Uogonek" unicode="&#x172;" horiz-adv-x="744" 
d="M381 -176q-84 0 -84 64q0 27 17.5 54.5t47.5 46.5q-20 -3 -42 -3q-240 0 -240 216q0 39 5 70l67 478h57l-68 -480q-4 -28 -4 -59q0 -90 47 -132.5t143 -42.5q110 0 171.5 57t78.5 177l68 480h56l-67 -478q-32 -225 -205 -272q-34 -9 -61 -38.5t-27 -63.5q0 -41 56 -41
q40 0 70 18l1 -29q-42 -22 -87 -22z" />
    <glyph glyph-name="uogonek" unicode="&#x173;" horiz-adv-x="580" 
d="M258 -176q-84 0 -84 64q0 57 63 100q-186 3 -186 156q0 19 3 40l57 402l54 5l-57 -406q-2 -11 -2 -32q0 -118 138 -118q77 0 123 38.5t57 111.5l56 403h54l-57 -404q-24 -165 -185 -192q-25 -4 -49.5 -32t-24.5 -62q0 -41 56 -41q40 0 70 18l1 -29q-42 -22 -87 -22z" />
    <glyph glyph-name="Wcircumflex" unicode="&#x174;" horiz-adv-x="994" 
d="M520 750h67l76 -657q4 -32 4 -41h2q5 20 13 38l246 660h57l-289 -750h-73l-74 657q-2 11 -4 41h-2q-2 -7 -7 -20l-7 -18l-258 -660h-72l-80 750h59l61 -660q3 -39 3 -41h2q7 22 14 38zM534 913h57l107 -114h-59l-80 90l-103 -90h-57z" />
    <glyph glyph-name="wcircumflex" unicode="&#x175;" horiz-adv-x="876" 
d="M461 808h49l89 -141h-46l-70 118l-103 -118h-45zM805 599q20 -57 20 -120q0 -89 -23.5 -170.5t-58.5 -137.5t-75.5 -98.5t-76 -62.5t-58.5 -20q-42 0 -80 62t-43 175h-1q-45 -109 -112.5 -173t-105.5 -64q-44 0 -81.5 70.5t-37.5 192.5q0 54 9 117l30 216l53 4l-30 -220
q-9 -68 -9 -120q0 -98 24.5 -154t53.5 -56q14 0 43 24t62.5 66t63 112.5t40.5 149.5l27 196h54l-30 -217q-9 -64 -9 -116q0 -102 27.5 -158.5t61.5 -56.5q14 0 40.5 18t59 55.5t61 87t48 121.5t19.5 150q0 56 -16 110z" />
    <glyph glyph-name="Ycircumflex" unicode="&#x176;" horiz-adv-x="653" 
d="M86 750h68l154 -392q7 -16 14 -38h2q11 21 21 34l267 396h64l-332 -483l-37 -267h-59l37 267zM372 913h57l107 -114h-59l-80 90l-103 -90h-57z" />
    <glyph glyph-name="ycircumflex" unicode="&#x177;" horiz-adv-x="571" 
d="M483 588h54q-71 -246 -185.5 -438.5t-271.5 -294.5l-18 39q102 75 171 166l-166 525l57 5l134 -447q4 -19 11 -39h2q137 202 212 484zM314 808h49l89 -141h-46l-70 118l-103 -118h-45z" />
    <glyph glyph-name="Ydieresis" unicode="&#x178;" horiz-adv-x="653" 
d="M86 750h68l154 -392q7 -16 14 -38h2q11 21 21 34l267 396h64l-332 -483l-37 -267h-59l37 267zM308 877q27 0 27 -26q0 -41 -37 -41q-29 0 -29 25q0 20 10.5 31t28.5 11zM496 877q27 0 27 -26q0 -41 -37 -41q-29 0 -29 25q0 20 10.5 31t28.5 11z" />
    <glyph glyph-name="Zacute" unicode="&#x179;" horiz-adv-x="618" 
d="M504 0h-498l5 36l500 634q16 20 26 29l-1 2h-418l10 49h482l-6 -42l-495 -628q-12 -15 -26 -29l1 -2h428zM436 912h81l-140 -113h-47z" />
    <glyph glyph-name="zacute" unicode="&#x17a;" horiz-adv-x="545" 
d="M502 551l-386 -477q-12 -15 -26 -29l1 -2h343l-8 -43h-404l5 36l388 479q12 15 26 29l-1 2h-329l8 42h388zM375 807h74l-130 -141h-46z" />
    <glyph glyph-name="Zdotaccent" unicode="&#x17b;" horiz-adv-x="618" 
d="M504 0h-498l5 36l500 634q16 20 26 29l-1 2h-418l10 49h482l-6 -42l-495 -628q-12 -15 -26 -29l1 -2h428zM394 883q38 0 38 -29q0 -45 -49 -45q-39 0 -39 27q0 47 50 47z" />
    <glyph glyph-name="zdotaccent" unicode="&#x17c;" horiz-adv-x="545" 
d="M502 551l-386 -477q-12 -15 -26 -29l1 -2h343l-8 -43h-404l5 36l388 479q12 15 26 29l-1 2h-329l8 42h388zM341 795q38 0 38 -32q0 -45 -48 -45q-40 0 -40 30q0 22 13 34.5t37 12.5z" />
    <glyph glyph-name="Zcaron" unicode="&#x17d;" horiz-adv-x="618" 
d="M504 0h-498l5 36l500 634q16 20 26 29l-1 2h-418l10 49h482l-6 -42l-495 -628q-12 -15 -26 -29l1 -2h428zM412 799h-57l-105 114h58l79 -91l105 91h56z" />
    <glyph glyph-name="zcaron" unicode="&#x17e;" horiz-adv-x="545" 
d="M502 551l-386 -477q-12 -15 -26 -29l1 -2h343l-8 -43h-404l5 36l388 479q12 15 26 29l-1 2h-329l8 42h388zM333 666h-50l-87 141h46l70 -117l102 117h46z" />
    <glyph glyph-name="longs" unicode="&#x17f;" horiz-adv-x="288" 
d="M49 549l7 37h95q18 123 73.5 169.5t174.5 46.5l-2 -39q-84 0 -130.5 -35t-61.5 -142l-69 -489q-17 -119 -71.5 -174t-160.5 -71v38q84 15 123.5 59t54.5 147l63 453h-96z" />
    <glyph glyph-name="uni018F" unicode="&#x18f;" horiz-adv-x="738" 
d="M79 398h533q5 39 5 86q0 126 -55.5 177.5t-169.5 51.5q-127 0 -218 -41l-3 44q95 45 232 45q135 0 204 -66.5t69 -210.5q0 -56 -8 -109q-29 -210 -108.5 -299t-241.5 -89q-134 0 -194.5 59.5t-60.5 192.5q0 67 16 159zM324 35q127 0 190.5 69t91.5 249h-475
q-8 -67 -8 -112q0 -114 47.5 -160t153.5 -46z" />
    <glyph glyph-name="florin" unicode="&#x192;" horiz-adv-x="398" 
d="M-9 -144h-54l245 690h-63l15 42h64l20 61q41 128 180 128q41 0 73 -12l-18 -37q-24 11 -59 11q-89 0 -120 -91l-21 -60h154l-15 -42h-155z" />
    <glyph glyph-name="uni01B5" unicode="&#x1b5;" horiz-adv-x="618" 
d="M504 0h-498l5 36l267 339h-171l8 36h192l204 259q16 20 26 29l-1 2h-418l10 49h482l-6 -42l-234 -297h169l-8 -36h-190l-232 -295q-12 -15 -26 -29l1 -2h428z" />
    <glyph glyph-name="uni01B6" unicode="&#x1b6;" horiz-adv-x="545" 
d="M502 551l-187 -231h121l-6 -35h-144l-170 -211q-12 -15 -26 -29l1 -2h343l-8 -43h-404l5 36l201 249h-117l7 35h139l158 195q12 15 26 29l-1 2h-329l8 42h388z" />
    <glyph glyph-name="Aringacute" unicode="&#x1fa;" horiz-adv-x="696" 
d="M502 953h81l-123 -99q29 -15 29 -48q0 -51 -48 -71l178 -735h-64l-47 206h-366l-103 -206h-62l383 734q-29 12 -29 48q0 34 23.5 57t62.5 24zM398 707h-2q-4 -11 -17 -37l-213 -418h332l-92 415q-6 24 -8 40zM416 835q-25 0 -39.5 -14t-14.5 -34q0 -34 42 -34
q23 0 37.5 12.5t14.5 34.5q0 35 -40 35z" />
    <glyph glyph-name="aringacute" unicode="&#x1fb;" horiz-adv-x="590" 
d="M419 800q3 0 8 -0.5t8 -0.5l86 119h74l-123 -134q23 -17 23 -47q0 -37 -27 -60t-70 -23q-35 0 -55 16t-20 45q0 36 27 60.5t69 24.5zM416 775q-27 0 -44.5 -16.5t-17.5 -40.5q0 -40 48 -40q27 0 45 15.5t18 39.5q0 18 -13 30t-36 12zM393 597q29 0 69.5 -4.5t55.5 -4.5
h16l-82 -588h-43l4 68q2 26 5 41l-2 1q-76 -119 -215 -119q-81 0 -122 44t-41 141q0 195 96 308t259 113zM217 34q82 0 141.5 57.5t73.5 154.5l43 302q-68 5 -89 5q-122 0 -194.5 -74.5t-91.5 -214.5q-7 -54 -7 -82q0 -77 31 -112.5t93 -35.5z" />
    <glyph glyph-name="AEacute" unicode="&#x1fc;" horiz-adv-x="1050" 
d="M1034 702h-418l-3 -286h322l-6 -44h-316l-3 -324h341l-8 -48h-387l2 207h-336l-143 -207h-70l532 750h497zM568 708l-2 1l-23 -35l-291 -422h307l7 415zM804 912h81l-140 -113h-47z" />
    <glyph glyph-name="aeacute" unicode="&#x1fd;" horiz-adv-x="898" 
d="M391 597q26 0 49.5 -2t50 -6l33.5 -5l-8 -54q-3 -21 -8 -40l3 -1q67 109 202 109q76 0 116 -31.5t40 -83.5q0 -83 -89 -137t-292 -78q-4 -33 -4 -64q0 -92 37 -130.5t110 -38.5q106 0 174 62l16 -33q-78 -73 -203 -73q-161 0 -176 163h-2q-33 -79 -95.5 -121t-144.5 -42
q-81 0 -121.5 44t-40.5 142q0 202 96.5 311t256.5 109zM217 34q83 0 142 59.5t74 162.5l41 291q-61 7 -87 7q-140 0 -216 -98t-76 -273q0 -79 30 -114t92 -35zM714 557q-179 0 -220 -248q179 19 252 61.5t73 107.5q0 36 -26 57.5t-79 21.5zM571 808h74l-130 -141h-46z" />
    <glyph glyph-name="Oslashacute" unicode="&#x1fe;" horiz-adv-x="739" 
d="M504 912h81l-140 -113h-47zM41 -13l-28 29l75 84q-24 52 -24 142q0 62 10 133q29 209 110 298t243 89q159 0 215 -86l81 84l28 -29l-90 -94q18 -52 18 -128q0 -63 -10 -134q-29 -211 -109 -299.5t-242 -88.5q-149 0 -209 77zM137 375q-11 -82 -11 -134q0 -55 11 -96
l459 485q-40 81 -177 81q-129 0 -192 -72t-90 -264zM607 375q11 79 11 131q0 45 -7 89l-458 -484q41 -73 172 -73q129 0 192 73t90 264z" />
    <glyph glyph-name="oslashacute" unicode="&#x1ff;" horiz-adv-x="576" 
d="M414 808h74l-130 -141h-46zM324 598q120 0 163 -67l49 54l22 -24l-55 -64q15 -40 15 -100q0 -41 -8 -103q-23 -160 -87 -232t-188 -72q-121 0 -164 67l-51 -54l-22 24l57 62q-14 39 -14 102q0 52 8 104q22 159 86 231t189 72zM455 295q8 61 8 100q0 7 -3 58l-351 -350
q29 -70 133 -70q94 0 143.5 60t69.5 202zM316 554q-95 0 -143.5 -59.5t-68.5 -201.5q-9 -68 -9 -100q0 -25 4 -57l349 349q-30 69 -132 69z" />
    <glyph glyph-name="Scommaaccent" unicode="&#x218;" horiz-adv-x="563" 
d="M355 762q108 0 184 -41l-17 -46q-83 39 -171 39q-97 0 -148.5 -47.5t-51.5 -116.5q0 -34 19 -58.5t49 -40t66.5 -28.5t73 -27.5t66.5 -33.5t49 -51t19 -75q0 -115 -74 -182t-199 -67q-121 0 -205 58l19 48q78 -58 191 -58q95 0 153.5 50.5t58.5 137.5q0 42 -25.5 71.5
t-63.5 45l-82 33t-82 34.5t-63.5 51.5t-25.5 81.5q0 96 69 159t191 63zM218 -45q39 0 39 -28q0 -32 -86 -124l-13 9q35 51 47 81h-2q-15 0 -24 7t-9 18q0 16 12 26.5t36 10.5z" />
    <glyph glyph-name="scommaaccent" unicode="&#x219;" horiz-adv-x="486" 
d="M294 598q88 0 150 -38l-21 -38q-61 32 -138 32q-67 0 -110 -31.5t-43 -80.5q0 -34 28.5 -58.5t69 -40.5t81.5 -34t69.5 -50t28.5 -78q0 -86 -58 -137.5t-161 -51.5q-52 0 -99 17t-77 45l22 39q58 -58 157 -58q77 0 120 39t43 97q0 32 -20.5 56.5t-51.5 38.5l-67.5 30.5
l-67.5 31.5t-51.5 42.5t-20.5 63.5q0 76 59 120t158 44zM193 -45q39 0 39 -28q0 -32 -86 -124l-13 9q35 51 47 81h-2q-15 0 -24 7t-9 18q0 16 12 26.5t36 10.5z" />
    <glyph glyph-name="uni021A" unicode="&#x21a;" horiz-adv-x="574" 
d="M603 701h-240l-98 -701h-57l98 701h-239l9 49h532zM229 -45q39 0 39 -28q0 -32 -86 -124l-13 9q35 51 47 81h-2q-15 0 -24 7t-9 18q0 16 12 26.5t36 10.5z" />
    <glyph glyph-name="uni021B" unicode="&#x21b;" horiz-adv-x="408" 
d="M62 547l10 40h91l32 162l43 9l-24 -171h175l-9 -40h-172l-51 -368q-4 -25 -4 -51q0 -92 75 -92q44 0 91 31l6 -37q-54 -37 -115 -37q-56 0 -83.5 30t-27.5 96q0 29 4 58l52 370h-93zM190 -45q39 0 39 -28q0 -32 -86 -124l-13 9q35 51 47 81h-2q-15 0 -24 7t-9 18
q0 16 12 26.5t36 10.5z" />
    <glyph glyph-name="uni0237" unicode="&#x237;" horiz-adv-x="282" 
d="M214 590l-69 -493q-17 -119 -71.5 -174t-160.5 -71v38q84 15 123.5 59t54.5 147l69 490z" />
    <glyph glyph-name="uni0259" unicode="&#x259;" horiz-adv-x="509" 
d="M190 -9q-155 0 -155 116q0 201 382 246q1 11 1 31q0 92 -36.5 131t-110.5 39q-105 0 -172 -62l-18 33q83 73 204 73q188 0 188 -213q0 -45 -7 -91q-21 -150 -91 -226.5t-185 -76.5zM411 296l2 17q-180 -19 -254.5 -73.5t-74.5 -123.5q0 -84 112 -84q93 0 144.5 66.5
t70.5 197.5z" />
    <glyph glyph-name="uni02BB" unicode="&#x2bb;" horiz-adv-x="219" 
d="M145 614q-37 0 -37 38q0 55 93 172l18 -13q-41 -68 -58 -114h2q32 0 32 -32q0 -21 -13 -36t-37 -15z" />
    <glyph glyph-name="afii57929" unicode="&#x2bc;" horiz-adv-x="219" 
d="M172 798q38 0 38 -38q0 -55 -94 -171l-18 12q41 66 58 115h-3q-32 0 -32 31q0 21 14 36t37 15z" />
    <glyph glyph-name="circumflex" unicode="&#x2c6;" horiz-adv-x="365" 
d="M220 808h49l89 -141h-46l-70 118l-103 -118h-45z" />
    <glyph glyph-name="caron" unicode="&#x2c7;" horiz-adv-x="365" 
d="M251 667h-50l-87 141h46l70 -117l102 117h46z" />
    <glyph glyph-name="breve" unicode="&#x2d8;" horiz-adv-x="365" 
d="M334 808h41q-10 -69 -48 -109t-101 -40q-113 0 -113 113q0 16 3 36h40q-2 -10 -2 -28q0 -43 20.5 -65.5t56.5 -22.5q40 0 68 30t35 86z" />
    <glyph glyph-name="dotaccent" unicode="&#x2d9;" horiz-adv-x="395" 
d="M258 796q38 0 38 -32q0 -45 -48 -45q-40 0 -40 30q0 22 13 34.5t37 12.5z" />
    <glyph glyph-name="ring" unicode="&#x2da;" horiz-adv-x="365" 
d="M247 819q35 0 55.5 -17.5t20.5 -45.5q0 -37 -27 -60t-70 -23q-35 0 -55 16t-20 45q0 36 27 60.5t69 24.5zM244 794q-27 0 -44.5 -16.5t-17.5 -40.5q0 -40 48 -40q27 0 45 15.5t18 39.5q0 18 -13 30t-36 12z" />
    <glyph glyph-name="ogonek" unicode="&#x2db;" horiz-adv-x="395" 
d="M163 -176q-84 0 -84 64q0 36 29 70.5t76 52.5l22 -11q-39 -17 -61 -44.5t-22 -57.5q0 -41 56 -41q40 0 70 18l1 -29q-42 -22 -87 -22z" />
    <glyph glyph-name="tilde" unicode="&#x2dc;" horiz-adv-x="395" 
d="M312 683q-24 0 -43.5 19.5t-36.5 38.5t-33 19q-33 0 -53 -67h-34q12 47 36 74.5t55 27.5q23 0 43 -19.5t36.5 -38.5t33.5 -19q33 0 53 67h35q-13 -48 -37 -75t-55 -27z" />
    <glyph glyph-name="hungarumlaut" unicode="&#x2dd;" horiz-adv-x="365" 
d="M247 808h66l-129 -141h-38zM383 808h65l-131 -141h-44z" />
    <glyph glyph-name="uni0394" unicode="&#x394;" horiz-adv-x="764" 
d="M457 754l203 -754h-657l413 754h41zM429 693h-2q-3 -8 -18 -36l-328 -612h511l-154 608l-5 23t-4 17z" />
    <glyph glyph-name="uni03A9" unicode="&#x3a9;" horiz-adv-x="741" 
d="M428 762q248 0 248 -246q0 -138 -64 -262t-196 -208v-3h209l-6 -43h-252l8 58q115 82 179 198.5t64 254.5q0 104 -48 154t-149 50q-121 0 -186 -70.5t-86 -222.5q-4 -28 -4 -62q0 -182 138 -302l-8 -58h-253l6 43h208l1 3q-152 113 -152 312q0 29 5 66q48 338 338 338z
" />
    <glyph glyph-name="uni03BC" unicode="&#x3bc;" horiz-adv-x="615" 
d="M219 -7q-101 0 -126 76h-2q-1 -6 -19 -211l-55 -6l103 736h52l-56 -403q-3 -21 -3 -39q0 -110 113 -110q79 0 145 53.5t78 140.5l50 358h53l-82 -587l-40 -4l5 76q2 30 4 41l-2 1q-34 -56 -93.5 -89t-124.5 -33z" />
    <glyph glyph-name="pi" unicode="&#x3c0;" horiz-adv-x="673" 
d="M428 133l58 411h-251l-76 -544h-52l76 544q-72 -1 -108 -29l-16 38q44 35 152 35h440l-6 -44h-107l-58 -411q-3 -21 -3 -37q0 -33 15.5 -46t53.5 -13l-6 -40q-65 0 -90.5 18.5t-25.5 67.5q0 25 4 50z" />
    <glyph glyph-name="Wgrave" unicode="&#x1e80;" horiz-adv-x="994" 
d="M520 750h67l76 -657q4 -32 4 -41h2q5 20 13 38l246 660h57l-289 -750h-73l-74 657q-2 11 -4 41h-2q-2 -7 -7 -20l-7 -18l-258 -660h-72l-80 750h59l61 -660q3 -39 3 -41h2q7 22 14 38zM589 799h-47l-100 114h75z" />
    <glyph glyph-name="wgrave" unicode="&#x1e81;" horiz-adv-x="876" 
d="M507 667h-44l-82 141h72zM805 599q20 -57 20 -120q0 -89 -23.5 -170.5t-58.5 -137.5t-75.5 -98.5t-76 -62.5t-58.5 -20q-42 0 -80 62t-43 175h-1q-45 -109 -112.5 -173t-105.5 -64q-44 0 -81.5 70.5t-37.5 192.5q0 54 9 117l30 216l53 4l-30 -220q-9 -68 -9 -120
q0 -98 24.5 -154t53.5 -56q14 0 43 24t62.5 66t63 112.5t40.5 149.5l27 196h54l-30 -217q-9 -64 -9 -116q0 -102 27.5 -158.5t61.5 -56.5q14 0 40.5 18t59 55.5t61 87t48 121.5t19.5 150q0 56 -16 110z" />
    <glyph glyph-name="Wacute" unicode="&#x1e82;" horiz-adv-x="994" 
d="M520 750h67l76 -657q4 -32 4 -41h2q5 20 13 38l246 660h57l-289 -750h-73l-74 657q-2 11 -4 41h-2q-2 -7 -7 -20l-7 -18l-258 -660h-72l-80 750h59l61 -660q3 -39 3 -41h2q7 22 14 38zM635 912h81l-140 -113h-47z" />
    <glyph glyph-name="wacute" unicode="&#x1e83;" horiz-adv-x="876" 
d="M543 808h74l-130 -141h-46zM805 599q20 -57 20 -120q0 -89 -23.5 -170.5t-58.5 -137.5t-75.5 -98.5t-76 -62.5t-58.5 -20q-42 0 -80 62t-43 175h-1q-45 -109 -112.5 -173t-105.5 -64q-44 0 -81.5 70.5t-37.5 192.5q0 54 9 117l30 216l53 4l-30 -220q-9 -68 -9 -120
q0 -98 24.5 -154t53.5 -56q14 0 43 24t62.5 66t63 112.5t40.5 149.5l27 196h54l-30 -217q-9 -64 -9 -116q0 -102 27.5 -158.5t61.5 -56.5q14 0 40.5 18t59 55.5t61 87t48 121.5t19.5 150q0 56 -16 110z" />
    <glyph glyph-name="Wdieresis" unicode="&#x1e84;" horiz-adv-x="994" 
d="M520 750h67l76 -657q4 -32 4 -41h2q5 20 13 38l246 660h57l-289 -750h-73l-74 657q-2 11 -4 41h-2q-2 -7 -7 -20l-7 -18l-258 -660h-72l-80 750h59l61 -660q3 -39 3 -41h2q7 22 14 38zM476 877q27 0 27 -26q0 -41 -37 -41q-29 0 -29 25q0 20 10.5 31t28.5 11zM664 877
q27 0 27 -26q0 -41 -37 -41q-29 0 -29 25q0 20 10.5 31t28.5 11z" />
    <glyph glyph-name="wdieresis" unicode="&#x1e85;" horiz-adv-x="876" 
d="M415 793q28 0 28 -26q0 -42 -38 -42q-27 0 -27 25q0 20 10 31.5t27 11.5zM563 793q27 0 27 -26q0 -42 -37 -42q-29 0 -29 25q0 43 39 43zM805 599q20 -57 20 -120q0 -89 -23.5 -170.5t-58.5 -137.5t-75.5 -98.5t-76 -62.5t-58.5 -20q-42 0 -80 62t-43 175h-1
q-45 -109 -112.5 -173t-105.5 -64q-44 0 -81.5 70.5t-37.5 192.5q0 54 9 117l30 216l53 4l-30 -220q-9 -68 -9 -120q0 -98 24.5 -154t53.5 -56q14 0 43 24t62.5 66t63 112.5t40.5 149.5l27 196h54l-30 -217q-9 -64 -9 -116q0 -102 27.5 -158.5t61.5 -56.5q14 0 40.5 18
t59 55.5t61 87t48 121.5t19.5 150q0 56 -16 110z" />
    <glyph glyph-name="uni1E8A" unicode="&#x1e8a;" horiz-adv-x="689" 
d="M520 0l-160 317q-11 21 -18 38h-2q-4 -7 -25 -34l-245 -321h-70l306 392l-191 358h71l147 -290q11 -21 18 -38h2q6 10 25 34l229 294h68l-288 -364l202 -386h-69zM419 883q38 0 38 -29q0 -45 -49 -45q-39 0 -39 27q0 47 50 47z" />
    <glyph glyph-name="uni1E8B" unicode="&#x1e8b;" horiz-adv-x="588" 
d="M151 591l115 -218q13 -23 18 -36h2q5 8 25 32l178 219h62l-235 -286l164 -302h-66l-121 236q-12 22 -18 38h-2q-8 -12 -26 -34l-198 -240h-65l260 308l-155 279zM356 796q38 0 38 -32q0 -45 -48 -45q-40 0 -40 30q0 22 13 34.5t37 12.5z" />
    <glyph glyph-name="Ygrave" unicode="&#x1ef2;" horiz-adv-x="653" 
d="M86 750h68l154 -392q7 -16 14 -38h2q11 21 21 34l267 396h64l-332 -483l-37 -267h-59l37 267zM435 799h-47l-100 114h75z" />
    <glyph glyph-name="ygrave" unicode="&#x1ef3;" horiz-adv-x="571" 
d="M483 588h54q-71 -246 -185.5 -438.5t-271.5 -294.5l-18 39q102 75 171 166l-166 525l57 5l134 -447q4 -19 11 -39h2q137 202 212 484zM364 667h-44l-82 141h72z" />
    <glyph glyph-name="uni2007" unicode="&#x2007;" horiz-adv-x="656" 
 />
    <glyph glyph-name="uni2008" unicode="&#x2008;" horiz-adv-x="240" 
 />
    <glyph glyph-name="uni200B" unicode="&#x200b;" horiz-adv-x="0" 
 />
    <glyph glyph-name="endash" unicode="&#x2013;" horiz-adv-x="544" 
d="M82 359h379l-6 -39h-379z" />
    <glyph glyph-name="emdash" unicode="&#x2014;" horiz-adv-x="715" 
d="M82 359h551l-6 -39h-551z" />
    <glyph glyph-name="quoteleft" unicode="&#x2018;" horiz-adv-x="219" 
d="M145 614q-37 0 -37 38q0 55 93 172l18 -13q-41 -68 -58 -114h2q32 0 32 -32q0 -21 -13 -36t-37 -15z" />
    <glyph glyph-name="quoteright" unicode="&#x2019;" horiz-adv-x="219" 
d="M172 798q38 0 38 -38q0 -55 -94 -171l-18 12q41 66 58 115h-3q-32 0 -32 31q0 21 14 36t37 15z" />
    <glyph glyph-name="quotesinglbase" unicode="&#x201a;" horiz-adv-x="219" 
d="M69 71q39 0 39 -39q0 -54 -94 -170l-18 12q37 61 58 115h-3q-32 0 -32 31q0 21 13.5 36t36.5 15z" />
    <glyph glyph-name="quotedblleft" unicode="&#x201c;" horiz-adv-x="380" 
d="M145 614q-37 0 -37 38q0 55 93 172l18 -13q-41 -68 -58 -114h2q32 0 32 -32q0 -21 -13 -36t-37 -15zM307 614q-37 0 -37 38q0 55 93 172l18 -13q-41 -68 -58 -114h2q32 0 32 -32q0 -21 -13 -36t-37 -15z" />
    <glyph glyph-name="quotedblright" unicode="&#x201d;" horiz-adv-x="380" 
d="M172 798q38 0 38 -38q0 -55 -94 -171l-18 12q41 66 58 115h-3q-32 0 -32 31q0 21 14 36t37 15zM333 798q38 0 38 -38q0 -55 -94 -171l-18 12q41 66 58 115h-3q-32 0 -32 31q0 21 14 36t37 15z" />
    <glyph glyph-name="quotedblbase" unicode="&#x201e;" horiz-adv-x="380" 
d="M230 71q39 0 39 -39q0 -54 -94 -170l-18 12q37 61 58 115h-3q-32 0 -32 31q0 21 13.5 36t36.5 15zM69 71q39 0 39 -39q0 -54 -94 -170l-18 12q37 61 58 115h-3q-32 0 -32 31q0 21 13.5 36t36.5 15z" />
    <glyph glyph-name="dagger" unicode="&#x2020;" horiz-adv-x="508" 
d="M88 591l173 -5l25 213h52l-34 -213l182 5l-7 -44h-181l-92 -689h-52l101 686h-174z" />
    <glyph glyph-name="daggerdbl" unicode="&#x2021;" horiz-adv-x="508" 
d="M418 113l-6 -43h-181l-26 -213h-52l35 210h-174l6 42h175l60 435h-174l7 47l173 -5l25 213h52l-34 -213l182 5l-7 -44h-181l-61 -438z" />
    <glyph glyph-name="bullet" unicode="&#x2022;" horiz-adv-x="402" 
d="M74 322q16 118 135 118q105 0 105 -91q0 -74 -36.5 -110.5t-101.5 -36.5q-104 0 -104 90q0 19 2 30z" />
    <glyph glyph-name="ellipsis" unicode="&#x2026;" horiz-adv-x="597" 
d="M439 71q38 0 38 -31q0 -50 -49 -50q-39 0 -39 31q0 50 50 50zM265 71q38 0 38 -31q0 -50 -49 -50q-39 0 -39 31q0 50 50 50zM80 71q38 0 38 -31q0 -50 -49 -50q-39 0 -39 31q0 50 50 50z" />
    <glyph glyph-name="perthousand" unicode="&#x2030;" horiz-adv-x="1000" 
d="M251 765q58 0 86.5 -27.5t28.5 -91.5q0 -28 -4 -55q-13 -92 -52 -133t-108 -41q-59 0 -87 28t-28 89q0 22 5 57q13 93 49.5 133.5t109.5 40.5zM246 732q-51 0 -78 -30t-38 -110q-4 -27 -4 -53q0 -49 20 -68.5t61 -19.5q51 0 77.5 30.5t38.5 110.5q4 27 4 52
q0 49 -19.5 68.5t-61.5 19.5zM565 749l34 -20l-479 -724l-35 20zM498 343q58 0 85.5 -27.5t27.5 -91.5q0 -29 -4 -57q-13 -92 -51 -133t-107 -41q-59 0 -87.5 28.5t-28.5 91.5q0 27 4 54q13 93 50.5 134.5t110.5 41.5zM493 308q-51 0 -78 -30.5t-39 -110.5q-4 -27 -4 -52
q0 -49 19.5 -68.5t61.5 -19.5q51 0 78 30.5t38 109.5q4 28 4 54q0 49 -19.5 68t-60.5 19zM804 343q58 0 86 -28t28 -92q0 -28 -4 -56q-13 -92 -51.5 -133t-107.5 -41q-59 0 -87 28.5t-28 90.5q0 28 4 55q13 93 50 134.5t110 41.5zM799 308q-50 0 -77 -30.5t-39 -110.5
q-4 -27 -4 -52q0 -49 19.5 -68.5t60.5 -19.5q51 0 78 30.5t38 109.5q4 28 4 54q0 49 -19.5 68t-60.5 19z" />
    <glyph glyph-name="guilsinglleft" unicode="&#x2039;" horiz-adv-x="413" 
d="M347 466l-238 -136l200 -135l-6 -43l-253 175l1 7l302 175z" />
    <glyph glyph-name="guilsinglright" unicode="&#x203a;" horiz-adv-x="413" 
d="M53 152l6 43l236 135l-198 136l6 43l251 -175l-1 -7z" />
    <glyph glyph-name="fraction" unicode="&#x2044;" horiz-adv-x="276" 
d="M440 750h45l-615 -750h-45z" />
    <glyph glyph-name="uni2070" unicode="&#x2070;" horiz-adv-x="358" 
d="M256 904q60 0 89.5 -31.5t29.5 -100.5q0 -31 -6 -70q-15 -106 -56 -155t-114 -49q-61 0 -91 33t-30 104q0 36 5 67q15 107 56.5 154.5t116.5 47.5zM251 869q-53 0 -83 -36.5t-43 -130.5q-5 -31 -5 -66q0 -57 20.5 -80t63.5 -23q51 0 80.5 37t42.5 132q6 39 6 68
q0 55 -20.5 77t-61.5 22z" />
    <glyph glyph-name="uni2074" unicode="&#x2074;" horiz-adv-x="358" 
d="M368 594h-49l-12 -90h-39l12 90h-208v25l237 279h53l-38 -271h51zM285 627l29 194q2 16 8 40l-2 2l-26 -33l-146 -172q-9 -11 -27 -29l1 -2h163z" />
    <glyph glyph-name="uni2075" unicode="&#x2075;" horiz-adv-x="358" 
d="M373 898l-3 -34h-188l-19 -89q-7 -29 -10 -39l1 -1q42 18 89 18q114 0 114 -91q0 -79 -42 -121t-117 -42q-69 0 -114 31l15 34q44 -32 100 -32q117 0 117 124q0 65 -86 65q-52 0 -100 -22l-19 11l44 188h218z" />
    <glyph glyph-name="uni2076" unicode="&#x2076;" horiz-adv-x="358" 
d="M371 887l-9 -35q-35 16 -80 16q-62 0 -98.5 -37.5t-50.5 -114.5l1 -1q51 39 115 39q110 0 110 -89q0 -80 -42 -123t-114 -43q-60 0 -89.5 30.5t-29.5 99.5q0 29 4 58q30 216 197 216q43 0 86 -16zM240 721q-27 0 -59.5 -12t-50.5 -31q-3 -26 -3 -46q0 -99 82 -99
q48 0 77.5 31.5t29.5 93.5q0 63 -76 63z" />
    <glyph glyph-name="uni2077" unicode="&#x2077;" horiz-adv-x="358" 
d="M395 898l-5 -37l-221 -357h-51l205 322q14 22 22 32l-1 2h-231l7 38h275z" />
    <glyph glyph-name="uni2078" unicode="&#x2078;" horiz-adv-x="358" 
d="M199 499q-127 0 -127 88q0 87 94 125v2q-51 24 -51 73q0 55 35.5 85.5t105.5 30.5q111 0 111 -80q0 -77 -80 -112v-2q69 -23 69 -81q0 -64 -41.5 -96.5t-115.5 -32.5zM204 532q45 0 76 22.5t31 64.5q0 10 -3 18.5t-10 15.5t-12.5 12t-18 10t-19.5 7.5l-22.5 8l-21.5 7.5
q-44 -19 -67 -43t-23 -62q0 -61 90 -61zM251 872q-44 0 -70 -21.5t-26 -58.5q0 -19 13 -32.5t29.5 -20t51.5 -16.5q77 33 77 92q0 57 -75 57z" />
    <glyph glyph-name="uni2079" unicode="&#x2079;" horiz-adv-x="358" 
d="M247 904q121 0 121 -130q0 -28 -4 -53q-16 -116 -62 -169t-125 -53q-46 0 -89 18l13 33q37 -17 79 -17q60 0 94.5 40t50.5 132l-2 2q-46 -41 -109 -41q-115 0 -115 93q0 63 39 104t109 41zM242 871q-47 0 -75 -28.5t-28 -76.5q0 -67 84 -67q66 0 100 39q3 22 3 40
q0 93 -84 93z" />
    <glyph glyph-name="uni207A" unicode="&#x207a;" horiz-adv-x="360" 
d="M361 687h-116v-117h-37v117h-115v36h115v119h37v-119h116v-36z" />
    <glyph glyph-name="uni207B" unicode="&#x207b;" horiz-adv-x="360" 
d="M360 690h-263l5 34h263z" />
    <glyph glyph-name="uni207C" unicode="&#x207c;" horiz-adv-x="360" 
d="M361 744h-268v33h268v-33zM361 639h-268v33h268v-33z" />
    <glyph glyph-name="uni207D" unicode="&#x207d;" horiz-adv-x="203" 
d="M230 931l34 -3q-116 -140 -116 -300q0 -95 48 -184l-35 -1q-54 73 -54 183q0 177 123 305z" />
    <glyph glyph-name="uni207E" unicode="&#x207e;" horiz-adv-x="203" 
d="M97 928l37 3q53 -81 53 -180q0 -89 -33.5 -170t-88.5 -138l-36 1q116 145 116 299q0 96 -48 185z" />
    <glyph glyph-name="uni2080" unicode="&#x2080;" horiz-adv-x="358" 
d="M167 258q60 0 89.5 -31.5t29.5 -100.5q0 -31 -6 -70q-15 -106 -56 -155t-114 -49q-61 0 -91 33t-30 104q0 36 5 67q15 107 56.5 154.5t116.5 47.5zM162 223q-53 0 -83 -36.5t-43 -130.5q-5 -31 -5 -66q0 -57 20.5 -80t63.5 -23q51 0 80.5 37t42.5 132q6 39 6 68
q0 55 -20.5 77t-61.5 22z" />
    <glyph glyph-name="uni2081" unicode="&#x2081;" horiz-adv-x="263" 
d="M176 255l-55 -397h-44l41 298q4 26 8 40l-2 2q-22 -16 -34 -23l-66 -41l2 38l120 83h30z" />
    <glyph glyph-name="uni2082" unicode="&#x2082;" horiz-adv-x="339" 
d="M161 257q55 0 84.5 -23.5t29.5 -64.5q0 -65 -57.5 -124.5t-179.5 -147.5v-3h204l-6 -36h-259l4 29l41.5 34l41 34l37.5 31.5t35.5 31.5l29.5 29.5t26.5 30.5t18.5 28t13 29t4 28q0 58 -82 58q-55 0 -111 -39l-7 33q62 42 133 42z" />
    <glyph glyph-name="uni2083" unicode="&#x2083;" horiz-adv-x="339" 
d="M161 257q56 0 86.5 -21t30.5 -60q0 -84 -89 -106v-2q73 -14 73 -74q0 -64 -43 -102.5t-119 -38.5q-69 0 -118 32l16 32q44 -30 107 -30q56 0 86 29t30 74q0 34 -28 48t-94 14l4 33q135 0 135 82q0 55 -83 55q-63 0 -115 -38l-8 30q54 43 129 43z" />
    <glyph glyph-name="uni2084" unicode="&#x2084;" horiz-adv-x="358" 
d="M279 -52h-49l-12 -90h-39l12 90h-208v25l237 279h53l-38 -271h51zM196 -19l29 194q2 16 8 40l-2 2q-4 -6 -26 -33l-146 -172q-9 -11 -27 -29l1 -2h163z" />
    <glyph glyph-name="uni2085" unicode="&#x2085;" horiz-adv-x="358" 
d="M284 252l-3 -34h-188l-19 -89q-7 -29 -10 -39l1 -1q42 18 89 18q114 0 114 -91q0 -79 -42 -121t-117 -42q-69 0 -114 31l15 34q44 -32 100 -32q117 0 117 124q0 65 -86 65q-52 0 -100 -22l-19 11l44 188h218z" />
    <glyph glyph-name="uni2086" unicode="&#x2086;" horiz-adv-x="358" 
d="M282 241l-9 -35q-35 16 -80 16q-62 0 -98.5 -37.5t-50.5 -114.5l1 -1q51 39 115 39q110 0 110 -89q0 -80 -42 -123t-114 -43q-60 0 -89.5 30.5t-29.5 99.5q0 29 4 58q30 216 197 216q43 0 86 -16zM151 75q-27 0 -59.5 -12t-50.5 -31q-3 -26 -3 -46q0 -99 82 -99
q48 0 77.5 31.5t29.5 93.5q0 63 -76 63z" />
    <glyph glyph-name="uni2087" unicode="&#x2087;" horiz-adv-x="358" 
d="M306 252l-5 -37l-221 -357h-51l205 322q14 22 22 32l-1 2h-231l7 38h275z" />
    <glyph glyph-name="uni2088" unicode="&#x2088;" horiz-adv-x="358" 
d="M110 -147q-127 0 -127 88q0 87 94 125v2q-51 24 -51 73q0 55 35.5 85.5t105.5 30.5q111 0 111 -80q0 -77 -80 -112v-2q69 -23 69 -81q0 -64 -41.5 -96.5t-115.5 -32.5zM115 -114q45 0 76 22.5t31 64.5q0 10 -3 18.5t-10 15.5t-12.5 12t-18 10t-19.5 7.5l-22.5 8
l-21.5 7.5q-44 -19 -67 -43t-23 -62q0 -61 90 -61zM162 226q-44 0 -70 -21.5t-26 -58.5q0 -19 13 -32.5t29.5 -20t51.5 -16.5q77 33 77 92q0 57 -75 57z" />
    <glyph glyph-name="uni2089" unicode="&#x2089;" horiz-adv-x="358" 
d="M158 258q121 0 121 -130q0 -28 -4 -53q-16 -116 -62 -169t-125 -53q-46 0 -89 18l13 33q37 -17 79 -17q60 0 94.5 40t50.5 132l-2 2q-46 -41 -109 -41q-115 0 -115 93q0 63 39 104t109 41zM153 225q-47 0 -75 -28.5t-28 -76.5q0 -67 84 -67q66 0 100 39q3 22 3 40
q0 93 -84 93z" />
    <glyph glyph-name="uni208A" unicode="&#x208a;" horiz-adv-x="360" 
d="M272 41h-116v-117h-37v117h-115v36h115v119h37v-119h116v-36z" />
    <glyph glyph-name="uni208B" unicode="&#x208b;" horiz-adv-x="360" 
d="M270 44h-263l4 34h263z" />
    <glyph glyph-name="uni208C" unicode="&#x208c;" horiz-adv-x="360" 
d="M272 98h-268v33h268v-33zM272 -7h-268v33h268v-33z" />
    <glyph glyph-name="uni208D" unicode="&#x208d;" horiz-adv-x="203" 
d="M141 285l34 -3q-116 -140 -116 -300q0 -95 48 -184l-35 -1q-54 73 -54 183q0 177 123 305z" />
    <glyph glyph-name="uni208E" unicode="&#x208e;" horiz-adv-x="203" 
d="M8 282l37 3q53 -81 53 -180q0 -89 -33.5 -170t-88.5 -138l-36 1q116 145 116 299q0 96 -48 185z" />
    <glyph glyph-name="franc" unicode="&#x20a3;" horiz-adv-x="656" 
d="M1 165h97l82 585h447l-5 -50h-392l-40 -286h311l-7 -47h-311l-28 -202h102l-6 -39h-102l-17 -126h-57l17 126h-97z" />
    <glyph glyph-name="lira" unicode="&#x20a4;" horiz-adv-x="656" 
d="M103 409l3 38h41q-3 25 -3 53q0 114 66 186.5t215 72.5q113 0 186 -44l-16 -45q-71 42 -171 42q-119 0 -172.5 -59t-53.5 -156q0 -26 3 -50h307l-5 -38h-298q5 -35 6 -72h282l-5 -38h-275q-1 -33 -6 -69q-19 -130 -108 -187l1 -2q91 15 233 15q111 0 226 -13l-11 -49
q-147 15 -243 15q-134 0 -284 -14l4 45q52 21 85.5 71.5t43.5 115.5q5 33 7 72h-71l4 38h65q-1 26 -7 72h-49z" />
    <glyph glyph-name="peseta" unicode="&#x20a7;" horiz-adv-x="656" 
d="M637 514h-68q-19 -105 -79.5 -152.5t-174.5 -47.5h-164l-44 -314h-54l72 514h-72l5 35h72l28 201h218q105 0 153 -38t48 -123q0 -12 -2 -40h67zM321 357q85 0 131.5 35.5t62.5 121.5h-336l-22 -157h164zM206 705l-22 -156h336q2 20 2 31q0 67 -37 96t-115 29h-164z" />
    <glyph glyph-name="Euro" unicode="&#x20ac;" horiz-adv-x="656" 
d="M494 340l-16 -36h-298q0 -5 -0.5 -15t-0.5 -15q0 -125 54 -181t165 -56q105 0 202 58v-42q-92 -61 -218 -61q-135 0 -196.5 65t-61.5 202q0 29 1 45h-93l6 36h90q2 25 10 75h-89l4 37h92q35 150 123.5 227.5t226.5 77.5q117 0 179 -40l-20 -42q-71 35 -159 35
q-231 0 -294 -258h349l-16 -37h-341q-10 -55 -10 -75h311z" />
    <glyph glyph-name="trademark" unicode="&#x2122;" horiz-adv-x="645" 
d="M607 510h-29l27 190q4 24 9 41l-2 1l-133 -232h-27l-68 231h-2q-2 -30 -4 -41l-27 -190h-30l38 267h45l56 -192l10 -39h2q7 16 19 36l112 195h42zM309 748h-89l-34 -238h-34l34 238h-90l4 29h213z" />
    <glyph glyph-name="Omega" unicode="&#x2126;" horiz-adv-x="741" 
d="M428 762q248 0 248 -246q0 -138 -64 -262t-196 -208v-3h209l-6 -43h-252l8 58q115 82 179 198.5t64 254.5q0 104 -48 154t-149 50q-121 0 -186 -70.5t-86 -222.5q-4 -28 -4 -62q0 -182 138 -302l-8 -58h-253l6 43h208l1 3q-152 113 -152 312q0 29 5 66q48 338 338 338z
" />
    <glyph glyph-name="uni2150" unicode="&#x2150;" horiz-adv-x="897" 
d="M244 752l-55 -397h-44l41 298q4 26 8 40l-2 2q-22 -16 -34 -23l-66 -41l2 38l120 83h30zM703 750h45l-615 -750h-45zM864 394l-5 -37l-221 -357h-51l205 322q14 22 22 32l-1 2h-231l7 38h275z" />
    <glyph glyph-name="uni2151" unicode="&#x2151;" horiz-adv-x="897" 
d="M244 752l-55 -397h-44l41 298q4 26 8 40l-2 2q-22 -16 -34 -23l-66 -41l2 38l120 83h30zM703 750h45l-615 -750h-45zM716 400q121 0 121 -130q0 -28 -4 -53q-16 -116 -62 -169t-125 -53q-46 0 -89 18l13 33q37 -17 79 -17q60 0 94.5 40t50.5 132l-2 2q-46 -41 -109 -41
q-115 0 -115 93q0 63 39 104t109 41zM711 367q-47 0 -75 -28.5t-28 -76.5q0 -67 84 -67q66 0 100 39q3 23 3 40q0 93 -84 93z" />
    <glyph glyph-name="uni2152" unicode="&#x2152;" horiz-adv-x="1160" 
d="M244 752l-55 -397h-44l41 298q4 26 8 40l-2 2q-22 -16 -34 -23l-66 -41l2 38l120 83h30zM703 750h45l-615 -750h-45zM734 397l-55 -397h-44l41 298q4 26 8 40l-2 2q-22 -16 -34 -23l-66 -41l2 38l120 83h30zM988 400q60 0 89.5 -31.5t29.5 -100.5q0 -31 -6 -70
q-15 -106 -56 -155t-114 -49q-61 0 -91 33t-30 104q0 36 5 67q15 107 56.5 154.5t116.5 47.5zM983 365q-53 0 -83 -36.5t-43 -130.5q-5 -31 -5 -66q0 -57 20.5 -80t63.5 -23q51 0 80.5 37t42.5 132q6 39 6 68q0 55 -20.5 77t-61.5 22z" />
    <glyph glyph-name="onethird" unicode="&#x2153;" horiz-adv-x="868" 
d="M651 399q56 0 86.5 -21t30.5 -60q0 -84 -89 -106v-2q73 -14 73 -74q0 -64 -43 -102.5t-119 -38.5q-69 0 -118 32l16 32q44 -30 107 -30q56 0 86 29t30 74q0 34 -28 48t-94 14l4 33q135 0 135 82q0 55 -83 55q-63 0 -115 -38l-8 30q54 43 129 43zM326 752l-55 -397h-44
l41 298q4 26 8 40l-2 2q-22 -16 -34 -23l-66 -41l2 38l120 83h30zM712 750h45l-615 -750h-45z" />
    <glyph glyph-name="twothirds" unicode="&#x2154;" horiz-adv-x="868" 
d="M652 399q56 0 86.5 -21t30.5 -60q0 -84 -89 -106v-2q73 -14 73 -74q0 -64 -43 -102.5t-119 -38.5q-69 0 -118 32l16 32q44 -30 107 -30q56 0 86 29t30 74q0 34 -28 48t-94 14l4 33q135 0 135 82q0 55 -83 55q-63 0 -115 -38l-8 30q54 43 129 43zM258 754q55 0 84.5 -23.5
t29.5 -64.5q0 -65 -57.5 -124.5t-179.5 -147.5v-3h204l-6 -36h-259l4 29l41.5 34l41 34l37.5 31.5t35.5 31.5l29.5 29.5t26.5 30.5t18.5 28t13 29t4 28q0 58 -82 58q-55 0 -111 -39l-7 33q62 42 133 42zM716 750h45l-615 -750h-45z" />
    <glyph glyph-name="uni2155" unicode="&#x2155;" horiz-adv-x="897" 
d="M244 752l-55 -397h-44l41 298q4 26 8 40l-2 2q-22 -16 -34 -23l-66 -41l2 38l120 83h30zM703 750h45l-615 -750h-45zM842 394l-3 -34h-188l-19 -89q-7 -29 -10 -39l1 -1q42 18 89 18q114 0 114 -91q0 -79 -42 -121t-117 -42q-69 0 -114 31l15 34q44 -32 100 -32
q117 0 117 124q0 65 -86 65q-52 0 -100 -22l-19 11l44 188h218z" />
    <glyph glyph-name="uni2156" unicode="&#x2156;" horiz-adv-x="974" 
d="M229 754q55 0 84.5 -23.5t29.5 -64.5q0 -65 -57.5 -124.5t-179.5 -147.5v-3h204l-6 -36h-259l4 29l41.5 34l41 34l37.5 31.5t35.5 31.5l29.5 29.5t26.5 30.5t18.5 28t13 29t4 28q0 58 -82 58q-55 0 -111 -39l-7 33q62 42 133 42zM780 750h45l-615 -750h-45zM919 394
l-3 -34h-188l-19 -89q-7 -29 -10 -39l1 -1q42 18 89 18q114 0 114 -91q0 -79 -42 -121t-117 -42q-69 0 -114 31l15 34q44 -32 100 -32q117 0 117 124q0 65 -86 65q-52 0 -100 -22l-19 11l44 188h218z" />
    <glyph glyph-name="uni2157" unicode="&#x2157;" horiz-adv-x="974" 
d="M229 754q56 0 86.5 -21t30.5 -60q0 -84 -89 -106v-2q73 -14 73 -74q0 -64 -43 -102.5t-119 -38.5q-69 0 -118 32l16 32q44 -30 107 -30q56 0 86 29t30 74q0 34 -28 48t-94 14l4 33q135 0 135 82q0 55 -83 55q-63 0 -115 -38l-8 30q54 43 129 43zM780 750h45l-615 -750
h-45zM919 394l-3 -34h-188l-19 -89q-7 -29 -10 -39l1 -1q42 18 89 18q114 0 114 -91q0 -79 -42 -121t-117 -42q-69 0 -114 31l15 34q44 -32 100 -32q117 0 117 124q0 65 -86 65q-52 0 -100 -22l-19 11l44 188h218z" />
    <glyph glyph-name="uni2158" unicode="&#x2158;" horiz-adv-x="992" 
d="M347 445h-49l-12 -90h-39l12 90h-208v25l237 279h53l-38 -271h51zM264 478l29 194q2 16 8 40l-2 2q-4 -6 -26 -33l-146 -172q-9 -11 -27 -29l1 -2h163zM798 750h45l-615 -750h-45zM937 394l-3 -34h-188l-19 -89q-7 -29 -10 -39l1 -1q42 18 89 18q114 0 114 -91
q0 -79 -42 -121t-117 -42q-69 0 -114 31l15 34q44 -32 100 -32q117 0 117 124q0 65 -86 65q-52 0 -100 -22l-19 11l44 188h218z" />
    <glyph glyph-name="uni2159" unicode="&#x2159;" horiz-adv-x="897" 
d="M244 752l-55 -397h-44l41 298q4 26 8 40l-2 2q-22 -16 -34 -23l-66 -41l2 38l120 83h30zM703 750h45l-615 -750h-45zM840 383l-9 -35q-35 16 -80 16q-62 0 -98.5 -37.5t-50.5 -114.5l1 -1q51 39 115 39q110 0 110 -89q0 -80 -42 -123t-114 -43q-60 0 -89.5 30.5
t-29.5 99.5q0 29 4 58q30 216 197 216q43 0 86 -16zM709 217q-27 0 -59.5 -12t-50.5 -31q-3 -26 -3 -46q0 -99 82 -99q48 0 77.5 31.5t29.5 93.5q0 63 -76 63z" />
    <glyph glyph-name="uni215A" unicode="&#x215a;" horiz-adv-x="992" 
d="M352 749l-3 -34h-188l-19 -89q-7 -29 -10 -39l1 -1q42 18 89 18q114 0 114 -91q0 -79 -42 -121t-117 -42q-69 0 -114 31l15 34q44 -32 100 -32q117 0 117 124q0 65 -86 65q-52 0 -100 -22l-19 11l44 188h218zM798 750h45l-615 -750h-45zM935 383l-9 -35q-35 16 -80 16
q-62 0 -98.5 -37.5t-50.5 -114.5l1 -1q51 39 115 39q110 0 110 -89q0 -80 -42 -123t-114 -43q-60 0 -89.5 30.5t-29.5 99.5q0 29 4 58q30 216 197 216q43 0 86 -16zM804 217q-27 0 -59.5 -12t-50.5 -31q-3 -26 -3 -46q0 -99 82 -99q48 0 77.5 31.5t29.5 93.5q0 63 -76 63z
" />
    <glyph glyph-name="oneeighth" unicode="&#x215b;" horiz-adv-x="868" 
d="M600 -5q-127 0 -127 88q0 87 94 125v2q-51 24 -51 73q0 55 35.5 85.5t105.5 30.5q111 0 111 -80q0 -77 -80 -112v-2q69 -23 69 -81q0 -64 -41.5 -96.5t-115.5 -32.5zM605 28q45 0 76 22.5t31 64.5q0 10 -3 18.5t-10 15.5t-12.5 12t-18 10t-19.5 7.5l-22.5 8l-21.5 7.5
q-44 -19 -67 -43t-23 -62q0 -61 90 -61zM652 368q-44 0 -70 -21.5t-26 -58.5q0 -19 13 -32.5t29.5 -20t51.5 -16.5q77 33 77 92q0 57 -75 57zM326 752l-55 -397h-44l41 298q4 26 8 40l-2 2q-22 -16 -34 -23l-66 -41l2 38l120 83h30zM712 750h45l-615 -750h-45z" />
    <glyph glyph-name="threeeighths" unicode="&#x215c;" horiz-adv-x="868" 
d="M601 -5q-127 0 -127 88q0 87 94 125v2q-51 24 -51 73q0 55 35.5 85.5t105.5 30.5q111 0 111 -80q0 -77 -80 -112v-2q69 -23 69 -81q0 -64 -41.5 -96.5t-115.5 -32.5zM606 28q45 0 76 22.5t31 64.5q0 10 -3 18.5t-10 15.5t-12.5 12t-18 10t-19.5 7.5l-22.5 8l-21.5 7.5
q-44 -19 -67 -43t-23 -62q0 -61 90 -61zM653 368q-44 0 -70 -21.5t-26 -58.5q0 -19 13 -32.5t29.5 -20t51.5 -16.5q77 33 77 92q0 57 -75 57zM259 754q56 0 86.5 -21t30.5 -60q0 -84 -89 -106v-2q73 -14 73 -74q0 -64 -43 -102.5t-119 -38.5q-69 0 -118 32l16 32
q44 -30 107 -30q56 0 86 29t30 74q0 34 -28 48t-94 14l4 33q135 0 135 82q0 55 -83 55q-63 0 -115 -38l-8 30q54 43 129 43zM716 750h45l-615 -750h-45z" />
    <glyph glyph-name="fiveeighths" unicode="&#x215d;" horiz-adv-x="868" 
d="M601 -5q-127 0 -127 88q0 87 94 125v2q-51 24 -51 73q0 55 35.5 85.5t105.5 30.5q111 0 111 -80q0 -77 -80 -112v-2q69 -23 69 -81q0 -64 -41.5 -96.5t-115.5 -32.5zM606 28q45 0 76 22.5t31 64.5q0 10 -3 18.5t-10 15.5t-12.5 12t-18 10t-19.5 7.5l-22.5 8l-21.5 7.5
q-44 -19 -67 -43t-23 -62q0 -61 90 -61zM653 368q-44 0 -70 -21.5t-26 -58.5q0 -19 13 -32.5t29.5 -20t51.5 -16.5q77 33 77 92q0 57 -75 57zM382 749l-3 -34h-188l-19 -89q-7 -29 -10 -39l1 -1q42 18 89 18q114 0 114 -91q0 -79 -42 -121t-117 -42q-69 0 -114 31l15 34
q44 -32 100 -32q117 0 117 124q0 65 -86 65q-52 0 -100 -22l-19 11l44 188h218zM716 750h45l-615 -750h-45z" />
    <glyph glyph-name="seveneighths" unicode="&#x215e;" horiz-adv-x="868" 
d="M600 -5q-127 0 -127 88q0 87 94 125v2q-51 24 -51 73q0 55 35.5 85.5t105.5 30.5q111 0 111 -80q0 -77 -80 -112v-2q69 -23 69 -81q0 -64 -41.5 -96.5t-115.5 -32.5zM605 28q45 0 76 22.5t31 64.5q0 10 -3 18.5t-10 15.5t-12.5 12t-18 10t-19.5 7.5l-22.5 8l-21.5 7.5
q-44 -19 -67 -43t-23 -62q0 -61 90 -61zM652 368q-44 0 -70 -21.5t-26 -58.5q0 -19 13 -32.5t29.5 -20t51.5 -16.5q77 33 77 92q0 57 -75 57zM456 749l-5 -37l-221 -357h-51l205 322q14 22 22 32l-1 2h-231l7 38h275zM712 750h45l-615 -750h-45z" />
    <glyph glyph-name="uni215F" unicode="&#x215f;" horiz-adv-x="539" 
d="M244 752l-55 -397h-44l41 298q4 26 8 40l-2 2q-22 -16 -34 -23l-66 -41l2 38l120 83h30zM703 750h45l-615 -750h-45z" />
    <glyph glyph-name="uni2189" unicode="&#x2189;" horiz-adv-x="960" 
d="M235 755q60 0 89.5 -31.5t29.5 -100.5q0 -31 -6 -70q-15 -106 -56 -155t-114 -49q-61 0 -91 33t-30 104q0 36 5 67q15 107 56.5 154.5t116.5 47.5zM230 720q-53 0 -83 -36.5t-43 -130.5q-5 -31 -5 -66q0 -57 20.5 -80t63.5 -23q51 0 80.5 37t42.5 132q6 39 6 68
q0 55 -20.5 77t-61.5 22zM785 750h45l-615 -750h-45zM801 399q56 0 86.5 -21t30.5 -60q0 -84 -89 -106v-2q73 -14 73 -74q0 -64 -43 -102.5t-119 -38.5q-69 0 -118 32l16 32q44 -30 107 -30q56 0 86 29t30 74q0 34 -28 48t-94 14l4 33q135 0 135 82q0 55 -83 55
q-63 0 -115 -38l-8 30q54 43 129 43z" />
    <glyph glyph-name="partialdiff" unicode="&#x2202;" horiz-adv-x="627" 
d="M363 571q124 0 172 -79l2 1q-2 6 -2 17q0 204 -182 204q-117 0 -202 -74l-12 36q97 82 227 82q102 0 160 -62t58 -187q0 -33 -7 -89q-26 -185 -125 -309t-233 -124q-183 0 -183 179q0 30 4 58q23 161 108 254t215 93zM517 395q1 5 1 15q0 48 -40.5 84.5t-111.5 36.5
q-108 0 -180.5 -80.5t-92.5 -227.5q-4 -24 -4 -50q0 -144 140 -144q75 0 137.5 53.5t100 135t50.5 177.5z" />
    <glyph glyph-name="Delta" unicode="&#x2206;" horiz-adv-x="764" 
d="M457 754l203 -754h-657l413 754h41zM429 693h-2q-3 -8 -18 -36l-328 -612h511l-154 608l-5 23t-4 17z" />
    <glyph glyph-name="product" unicode="&#x220f;" horiz-adv-x="741" 
d="M222 -147h-57v846l-89 5l-1 46h594l-1 -45l-88 -6v-846h-58v842h-300v-842z" />
    <glyph glyph-name="summation" unicode="&#x2211;" horiz-adv-x="706" 
d="M478 302l-248 -332l-50 -63l2 -3l80 2l390 2l-3 -55h-542v39l306 419l-306 398v41h524l2 -55h-446l-1 -2l50 -61l242 -314v-16z" />
    <glyph glyph-name="minus" unicode="&#x2212;" 
d="M504 317h-424l7 48h424z" />
    <glyph glyph-name="uni2219" unicode="&#x2219;" 
d="M178 322q16 118 135 118q105 0 105 -91q0 -74 -36.5 -110.5t-101.5 -36.5q-104 0 -104 90q0 19 2 30z" />
    <glyph glyph-name="radical" unicode="&#x221a;" horiz-adv-x="565" 
d="M21 440l7 46h127l76 -391l7 -40h2q3 10 15 38l302 709h56l-347 -802h-63l-93 440h-89z" />
    <glyph glyph-name="infinity" unicode="&#x221e;" horiz-adv-x="729" 
d="M526 178q-102 0 -166 103q-28 -49 -64 -76t-93 -27q-67 0 -109 46t-42 128q0 78 40 126t110 48q100 0 166 -105q28 50 64 77.5t94 27.5q66 0 108.5 -47t42.5 -129q0 -76 -40.5 -124t-110.5 -48zM203 232q19 0 35 4.5t29.5 16.5t22.5 21t20.5 30t16.5 31.5l17 35.5
q-27 52 -60 77t-80 25t-73.5 -34t-26.5 -85q0 -57 28 -89.5t71 -32.5zM525 471q-28 0 -49.5 -10.5t-39.5 -35.5t-26.5 -41.5t-25.5 -53.5q27 -50 59.5 -75t80.5 -25q47 0 73.5 34t26.5 86q0 56 -28 88.5t-71 32.5z" />
    <glyph glyph-name="integral" unicode="&#x222b;" horiz-adv-x="312" 
d="M188 611l-1 -574q0 -190 -181 -190l-1 45q63 1 91 36t28 107v577q0 90 46 138.5t134 49.5l2 -46q-57 -1 -87.5 -37.5t-30.5 -105.5z" />
    <glyph glyph-name="approxequal" unicode="&#x2248;" horiz-adv-x="656" 
d="M436 371q-38 0 -112.5 30.5t-107.5 30.5q-53 0 -108 -37v44q52 35 108 35q37 0 111.5 -30.5t108.5 -30.5q54 0 111 37v-42q-51 -37 -111 -37zM436 211q-38 0 -112.5 30.5t-107.5 30.5q-53 0 -108 -37v42q50 37 108 37q37 0 111.5 -30.5t108.5 -30.5q56 0 111 37v-43
q-50 -36 -111 -36z" />
    <glyph glyph-name="notequal" unicode="&#x2260;" horiz-adv-x="656" 
d="M424 570l37 -17l-58 -109h144v-42h-166l-65 -123h231v-42h-253l-69 -130l-38 17l60 113h-139v42h161l66 123h-227v42h249z" />
    <glyph glyph-name="lessequal" unicode="&#x2264;" horiz-adv-x="656" 
d="M535 543l-348 -152q-28 -12 -38 -15v-2q22 -7 38 -14l348 -145v-49l-426 186v46l426 195v-50zM535 63h-422v42h422v-42z" />
    <glyph glyph-name="greaterequal" unicode="&#x2265;" horiz-adv-x="656" 
d="M109 166v49l346 145q21 9 38 14v2q-8 2 -38 15l-346 152v50l426 -195v-46zM530 63h-421v42h421v-42z" />
    <glyph glyph-name="dotmath" unicode="&#x22c5;" 
d="M304 383q37 0 37 -33q0 -23 -13 -35.5t-35 -12.5q-39 0 -39 31q0 50 50 50z" />
    <glyph glyph-name="lozenge" unicode="&#x25ca;" horiz-adv-x="606" 
d="M33 323l270 316l271 -316l-271 -315zM302 557l-200 -234l201 -233l201 233z" />
    <glyph glyph-name="fi" unicode="&#xfb01;" horiz-adv-x="590" 
d="M49 549l7 37h95q18 123 73.5 169.5t174.5 46.5l-2 -39q-85 0 -131 -35t-61 -142h274q15 0 43 4l-82 -590h-54l77 549h-263l-77 -549h-54l77 549h-97zM519 796q38 0 38 -32q0 -45 -48 -45q-40 0 -40 30q0 22 13 34.5t37 12.5z" />
    <glyph glyph-name="fl" unicode="&#xfb02;" horiz-adv-x="561" 
d="M49 549l7 37h95q18 123 81.5 170t190.5 47q66 0 107 -9l-111 -794h-53l107 763q-20 4 -57 4q-102 0 -149.5 -41.5t-61.5 -139.5h165l-6 -37h-164l-77 -549h-54l77 549h-97z" />
    <glyph glyph-name="product.alt001" horiz-adv-x="742" 
d="M147 -145h-51l120 854l-87 5l4 36h589l-7 -36l-88 -5l-120 -854h-51l120 851h-309z" />
    <glyph glyph-name="summation.alt001" horiz-adv-x="708" 
d="M466 304l-331 -376q-24 -26 -26 -28v-2h478l-8 -43h-540l5 32l366 425l-250 405l5 33h521l-3 -44h-457l-1 -2q7 -9 22 -32l221 -354z" />
    <glyph glyph-name="infinity.alt001" horiz-adv-x="727" 
d="M223 523q103 0 152 -110h2q71 110 172 110q58 0 92 -36t34 -101q0 -88 -48.5 -146t-125.5 -58q-104 0 -152 108h-2q-33 -51 -73 -79.5t-98 -28.5q-57 0 -91.5 35.5t-34.5 100.5q0 88 48.5 146.5t124.5 58.5zM182 225q29 0 53.5 11t46 36t34 43.5t33.5 55.5
q-20 56 -50.5 83t-79.5 27q-54 0 -88.5 -45t-34.5 -109q0 -48 24 -75t62 -27zM542 479q-29 0 -53.5 -11t-46 -37t-33.5 -44t-34 -56q20 -54 51 -80.5t80 -26.5q54 0 88.5 45t34.5 109q0 47 -24 74t-63 27z" />
    <glyph glyph-name="integral.alt001" horiz-adv-x="311" 
d="M219 612l-81 -575q-26 -187 -203 -187l4 35q65 2 99 39t45 112l81 577q12 89 63.5 137.5t138.5 49.5l-3 -38q-60 -1 -97 -39.5t-47 -110.5z" />
    <glyph glyph-name="lozenge.alt001" horiz-adv-x="606" 
d="M27 320l314 313l226 -313l-313 -312zM86 320l177 -243l244 243l-175 244z" />
    <glyph glyph-name="i.latn_TRK" horiz-adv-x="255" 
d="M105 0h-55l82 586l55 4zM190 796q38 0 38 -32q0 -45 -48 -45q-40 0 -40 30q0 22 13 34.5t37 12.5z" />
    <glyph glyph-name="Ldot.latn_CAT" horiz-adv-x="578" 
d="M128 49h377l-9 -49h-432l105 750h58zM441 447q36 0 36 -33q0 -22 -13 -34.5t-34 -12.5q-38 0 -38 30q0 50 49 50z" />
    <glyph glyph-name="ldot.latn_CAT" horiz-adv-x="349" 
d="M97 0h-54l112 797l54 6zM303 427q36 0 36 -30q0 -49 -48 -49q-37 0 -37 30q0 49 49 49z" />
    <glyph glyph-name="dollar.subs" horiz-adv-x="308" 
d="M165 321h37l-18 -81q45 -3 82 -19l-13 -32q-46 18 -90 18q-45 0 -69 -21t-24 -50q0 -24 27 -39t60 -21.5t60 -27.5t27 -56q0 -52 -34 -85.5t-91 -38.5l-13 -81h-38l15 81q-54 3 -93 28l12 35q38 -29 102 -29q43 0 70 22t27 56q0 22 -18 36t-44 22t-51.5 17t-43.5 27
t-18 46q0 45 31.5 76.5t89.5 35.5z" />
    <glyph glyph-name="comma.subs" horiz-adv-x="148" 
d="M11 -94q29 0 29 -25q0 -13 -18 -48t-38 -62l-17 5q18 34 33 71h-1q-25 0 -25 24q0 35 37 35z" />
    <glyph glyph-name="period.subs" horiz-adv-x="148" 
d="M12 -92q29 0 29 -23q0 -37 -38 -37q-30 0 -30 22q0 38 39 38z" />
    <glyph glyph-name="cent.subs" horiz-adv-x="308" 
d="M261 221l-9 -36q-40 19 -76 19q-64 0 -94.5 -33t-41.5 -110q-4 -25 -4 -51q0 -55 24 -79.5t74 -24.5q40 0 85 26l-1 -33q-36 -23 -86 -27l-14 -85h-39l17 86q-53 5 -79 37t-26 95q0 225 166 234l16 82h38l-16 -82q37 -5 66 -18z" />
    <glyph glyph-name="dollar.sups" horiz-adv-x="308" 
d="M254 967h37l-18 -81q45 -3 82 -19l-13 -32q-46 18 -90 18q-45 0 -69 -21t-24 -50q0 -24 27 -39t60 -21.5t60 -27.5t27 -56q0 -52 -34 -85.5t-91 -38.5l-13 -81h-38l15 81q-54 3 -93 28l12 35q38 -29 102 -29q43 0 70 22t27 56q0 22 -18 36t-43.5 22l-51.5 17t-44 27
t-18 46q0 45 31.5 76.5t89.5 35.5z" />
    <glyph glyph-name="comma.sups" horiz-adv-x="148" 
d="M100 552q29 0 29 -25q0 -13 -18 -48t-38 -62l-17 5q18 34 33 71h-1q-25 0 -25 24q0 35 37 35z" />
    <glyph glyph-name="period.sups" horiz-adv-x="148" 
d="M101 554q29 0 29 -23q0 -37 -38 -37q-30 0 -30 22q0 38 39 38z" />
    <glyph glyph-name="cent.sups" horiz-adv-x="308" 
d="M350 867l-9 -36q-40 19 -76 19q-64 0 -94.5 -33t-41.5 -110q-4 -25 -4 -51q0 -55 24 -79.5t74 -24.5q40 0 85 26l-1 -33q-36 -23 -86 -27l-14 -85h-39l17 86q-53 5 -79 37t-26 95q0 225 166 234l16 82h38l-16 -82q38 -5 66 -18z" />
    <glyph glyph-name="dollar.numr" horiz-adv-x="308" 
d="M233 818h37l-18 -81q45 -3 82 -19l-13 -32q-46 18 -90 18q-45 0 -69 -21t-24 -50q0 -24 27 -39t60 -21.5t60 -27.5t27 -56q0 -52 -34 -85.5t-91 -38.5l-13 -81h-38l15 81q-54 3 -93 28l12 35q38 -29 102 -29q43 0 70 22t27 56q0 22 -18 36t-43.5 22l-51.5 17t-44 27
t-18 46q0 45 31.5 76.5t89.5 35.5z" />
    <glyph glyph-name="parenleft.numr" horiz-adv-x="203" 
d="M209 782l34 -3q-116 -140 -116 -300q0 -95 48 -184l-35 -1q-54 73 -54 183q0 177 123 305z" />
    <glyph glyph-name="parenright.numr" horiz-adv-x="203" 
d="M76 779l37 3q53 -81 53 -180q0 -89 -33.5 -170t-88.5 -138l-36 1q116 145 116 299q0 96 -48 185z" />
    <glyph glyph-name="plus.numr" horiz-adv-x="360" 
d="M340 538h-116v-117h-37v117h-115v36h115v119h37v-119h116v-36z" />
    <glyph glyph-name="comma.numr" horiz-adv-x="149" 
d="M79 403q29 0 29 -25q0 -13 -18 -48t-38 -62l-17 5q18 34 33 71h-1q-25 0 -25 24q0 35 37 35z" />
    <glyph glyph-name="period.numr" horiz-adv-x="149" 
d="M80 405q29 0 29 -23q0 -37 -38 -37q-30 0 -30 22q0 38 39 38z" />
    <glyph glyph-name="zero.numr" horiz-adv-x="358" 
d="M235 755q60 0 89.5 -31.5t29.5 -100.5q0 -31 -6 -70q-15 -106 -56 -155t-114 -49q-61 0 -91 33t-30 104q0 36 5 67q15 107 56.5 154.5t116.5 47.5zM230 720q-53 0 -83 -36.5t-43 -130.5q-5 -31 -5 -66q0 -57 20.5 -80t63.5 -23q51 0 80.5 37t42.5 132q6 39 6 68
q0 55 -20.5 77t-61.5 22z" />
    <glyph glyph-name="one.numr" horiz-adv-x="263" 
d="M244 752l-55 -397h-44l41 298q4 26 8 40l-2 2q-22 -16 -34 -23l-66 -41l2 38l120 83h30z" />
    <glyph glyph-name="two.numr" horiz-adv-x="340" 
d="M229 754q55 0 84.5 -23.5t29.5 -64.5q0 -65 -57.5 -124.5t-179.5 -147.5v-3h204l-6 -36h-259l4 29l41.5 34l41 34l37.5 31.5t35.5 31.5l29.5 29.5t26.5 30.5t18.5 28t13 29t4 28q0 58 -82 58q-55 0 -111 -39l-7 33q62 42 133 42z" />
    <glyph glyph-name="three.numr" horiz-adv-x="340" 
d="M229 754q56 0 86.5 -21t30.5 -60q0 -84 -89 -106v-2q73 -14 73 -74q0 -64 -43 -102.5t-119 -38.5q-69 0 -118 32l16 32q44 -30 107 -30q56 0 86 29t30 74q0 34 -28 48t-94 14l4 33q135 0 135 82q0 55 -83 55q-63 0 -115 -38l-8 30q54 43 129 43z" />
    <glyph glyph-name="four.numr" horiz-adv-x="358" 
d="M347 445h-49l-12 -90h-39l12 90h-208v25l237 279h53l-38 -271h51zM264 478l29 194q2 16 8 40l-2 2q-4 -6 -26 -33l-146 -172q-9 -11 -27 -29l1 -2h163z" />
    <glyph glyph-name="five.numr" horiz-adv-x="358" 
d="M352 749l-3 -34h-188l-19 -89q-7 -29 -10 -39l1 -1q42 18 89 18q114 0 114 -91q0 -79 -42 -121t-117 -42q-69 0 -114 31l15 34q44 -32 100 -32q117 0 117 124q0 65 -86 65q-52 0 -100 -22l-19 11l44 188h218z" />
    <glyph glyph-name="six.numr" horiz-adv-x="358" 
d="M350 738l-9 -35q-35 16 -80 16q-62 0 -98.5 -37.5t-50.5 -114.5l1 -1q51 39 115 39q110 0 110 -89q0 -80 -42 -123t-114 -43q-60 0 -89.5 30.5t-29.5 99.5q0 29 4 58q30 216 197 216q43 0 86 -16zM219 572q-27 0 -59.5 -12t-50.5 -31q-3 -25 -3 -46q0 -99 82 -99
q48 0 77.5 31.5t29.5 93.5q0 63 -76 63z" />
    <glyph glyph-name="seven.numr" horiz-adv-x="358" 
d="M374 749l-5 -37l-221 -357h-51l205 322q14 22 22 32l-1 2h-231l7 38h275z" />
    <glyph glyph-name="eight.numr" horiz-adv-x="358" 
d="M178 350q-127 0 -127 88q0 87 94 125v2q-51 24 -51 73q0 55 35.5 85.5t105.5 30.5q111 0 111 -80q0 -77 -80 -112v-2q69 -23 69 -81q0 -64 -41.5 -96.5t-115.5 -32.5zM183 383q45 0 76 22.5t31 64.5q0 10 -3 18.5t-10 15.5t-12.5 12t-18 10t-19.5 7.5l-22.5 8l-21.5 7.5
q-44 -19 -67 -43t-23 -62q0 -61 90 -61zM230 723q-44 0 -70 -21.5t-26 -58.5q0 -19 13 -32.5t29.5 -20t51.5 -16.5q77 33 77 92q0 57 -75 57z" />
    <glyph glyph-name="nine.numr" horiz-adv-x="358" 
d="M226 755q121 0 121 -130q0 -28 -4 -53q-16 -116 -62 -169t-125 -53q-46 0 -89 18l13 33q37 -17 79 -17q60 0 94.5 40t50.5 132l-2 2q-46 -41 -109 -41q-115 0 -115 93q0 63 39 104t109 41zM221 722q-47 0 -75 -28.5t-28 -76.5q0 -67 84 -67q66 0 100 39q3 23 3 40
q0 93 -84 93z" />
    <glyph glyph-name="equal.numr" horiz-adv-x="360" 
d="M340 595h-268v33h268v-33zM340 490h-268v33h268v-33z" />
    <glyph glyph-name="cent.numr" horiz-adv-x="308" 
d="M329 718l-9 -36q-40 19 -76 19q-64 0 -94.5 -33t-41.5 -110q-4 -25 -4 -51q0 -55 24 -79.5t74 -24.5q40 0 85 26l-1 -33q-36 -23 -86 -27l-14 -85h-39l17 86q-105 10 -105 132q0 225 166 234l16 82h38l-16 -82q37 -4 66 -18z" />
    <glyph glyph-name="minus.numr" horiz-adv-x="360" 
d="M340 541h-263l4 34h263z" />
    <glyph glyph-name="dollar.dnom" horiz-adv-x="308" 
d="M184 463h37l-18 -81q45 -3 82 -19l-13 -32q-46 18 -90 18q-45 0 -69 -21t-24 -50q0 -24 27 -39t60 -21.5t60 -27.5t27 -56q0 -52 -34 -85.5t-91 -38.5l-13 -81h-38l15 81q-54 3 -93 28l12 35q38 -29 102 -29q43 0 70 22t27 56q0 22 -18 36t-44 22t-51.5 17t-43.5 27
t-18 46q0 45 31.5 76.5t89.5 35.5z" />
    <glyph glyph-name="parenleft.dnom" horiz-adv-x="203" 
d="M160 427l34 -3q-116 -140 -116 -300q0 -95 48 -184l-35 -1q-54 73 -54 183q0 177 123 305z" />
    <glyph glyph-name="parenright.dnom" horiz-adv-x="203" 
d="M27 424l37 3q53 -81 53 -180q0 -89 -33.5 -170t-88.5 -138l-36 1q116 145 116 299q0 96 -48 185z" />
    <glyph glyph-name="plus.dnom" horiz-adv-x="360" 
d="M291 183h-116v-117h-37v117h-115v36h115v119h37v-119h116v-36z" />
    <glyph glyph-name="comma.dnom" horiz-adv-x="148" 
d="M30 48q29 0 29 -25q0 -13 -18 -48t-38 -62l-17 5q18 34 33 71h-1q-25 0 -25 24q0 35 37 35z" />
    <glyph glyph-name="period.dnom" horiz-adv-x="148" 
d="M31 50q29 0 29 -23q0 -37 -38 -37q-30 0 -30 22q0 38 39 38z" />
    <glyph glyph-name="zero.dnom" horiz-adv-x="358" 
d="M186 400q60 0 89.5 -31.5t29.5 -100.5q0 -31 -6 -70q-15 -106 -56 -155t-114 -49q-61 0 -91 33t-30 104q0 36 5 67q15 107 56.5 154.5t116.5 47.5zM181 365q-53 0 -83 -36.5t-43 -130.5q-5 -31 -5 -66q0 -57 20.5 -80t63.5 -23q51 0 80.5 37t42.5 132q6 39 6 68
q0 55 -20.5 77t-61.5 22z" />
    <glyph glyph-name="one.dnom" horiz-adv-x="263" 
d="M195 397l-55 -397h-44l41 298q4 26 8 40l-2 2q-22 -16 -34 -23l-66 -41l2 38l120 83h30z" />
    <glyph glyph-name="two.dnom" horiz-adv-x="339" 
d="M180 399q55 0 84.5 -23.5t29.5 -64.5q0 -65 -57.5 -124.5t-179.5 -147.5v-3h204l-6 -36h-259l4 29l41.5 34l41 34l37.5 31.5t35.5 31.5l29.5 29.5t26.5 30.5t18.5 28t13 29t4 28q0 58 -82 58q-55 0 -111 -39l-7 33q62 42 133 42z" />
    <glyph glyph-name="three.dnom" horiz-adv-x="339" 
d="M180 399q56 0 86.5 -21t30.5 -60q0 -84 -89 -106v-2q73 -14 73 -74q0 -64 -43 -102.5t-119 -38.5q-69 0 -118 32l16 32q44 -30 107 -30q56 0 86 29t30 74q0 34 -28 48t-94 14l4 33q135 0 135 82q0 55 -83 55q-63 0 -115 -38l-8 30q54 43 129 43z" />
    <glyph glyph-name="four.dnom" horiz-adv-x="358" 
d="M298 90h-49l-12 -90h-39l12 90h-208v25l237 279h53l-38 -271h51zM215 123l29 194q2 16 8 40l-2 2l-26 -33l-146 -172q-9 -11 -27 -29l1 -2h163z" />
    <glyph glyph-name="five.dnom" horiz-adv-x="358" 
d="M303 394l-3 -34h-188l-19 -89q-7 -29 -10 -39l1 -1q42 18 89 18q114 0 114 -91q0 -79 -42 -121t-117 -42q-69 0 -114 31l15 34q44 -32 100 -32q117 0 117 124q0 65 -86 65q-52 0 -100 -22l-19 11l44 188h218z" />
    <glyph glyph-name="six.dnom" horiz-adv-x="358" 
d="M301 383l-9 -35q-35 16 -80 16q-62 0 -98.5 -37.5t-50.5 -114.5l1 -1q51 39 115 39q110 0 110 -89q0 -80 -42 -123t-114 -43q-60 0 -89.5 30.5t-29.5 99.5q0 29 4 58q30 216 197 216q43 0 86 -16zM170 217q-27 0 -59.5 -12t-50.5 -31q-3 -26 -3 -46q0 -99 82 -99
q48 0 77.5 31.5t29.5 93.5q0 63 -76 63z" />
    <glyph glyph-name="seven.dnom" horiz-adv-x="358" 
d="M325 394l-5 -37l-221 -357h-51l205 322q14 22 22 32l-1 2h-231l7 38h275z" />
    <glyph glyph-name="eight.dnom" horiz-adv-x="358" 
d="M129 -5q-127 0 -127 88q0 87 94 125v2q-51 24 -51 73q0 55 35.5 85.5t105.5 30.5q111 0 111 -80q0 -77 -80 -112v-2q69 -23 69 -81q0 -64 -41.5 -96.5t-115.5 -32.5zM134 28q45 0 76 22.5t31 64.5q0 10 -3 18.5t-10 15.5t-12.5 12t-18 10t-19.5 7.5l-22.5 8l-21.5 7.5
q-44 -19 -67 -43t-23 -62q0 -61 90 -61zM181 368q-44 0 -70 -21.5t-26 -58.5q0 -19 13 -32.5t29.5 -20t51.5 -16.5q77 33 77 92q0 57 -75 57z" />
    <glyph glyph-name="nine.dnom" horiz-adv-x="358" 
d="M177 400q121 0 121 -130q0 -28 -4 -53q-16 -116 -62 -169t-125 -53q-46 0 -89 18l13 33q37 -17 79 -17q60 0 94.5 40t50.5 132l-2 2q-46 -41 -109 -41q-115 0 -115 93q0 63 39 104t109 41zM172 367q-47 0 -75 -28.5t-28 -76.5q0 -67 84 -67q66 0 100 39q3 22 3 40
q0 93 -84 93z" />
    <glyph glyph-name="equal.dnom" horiz-adv-x="360" 
d="M291 240h-268v33h268v-33zM291 135h-268v33h268v-33z" />
    <glyph glyph-name="cent.dnom" horiz-adv-x="308" 
d="M280 363l-9 -36q-40 19 -76 19q-64 0 -94.5 -33t-41.5 -110q-4 -25 -4 -51q0 -55 24 -79.5t74 -24.5q40 0 85 26l-1 -33q-36 -23 -86 -27l-14 -85h-39l17 86q-53 5 -79 37t-26 95q0 225 166 234l16 82h38l-16 -82q38 -5 66 -18z" />
    <glyph glyph-name="minus.dnom" horiz-adv-x="360" 
d="M291 186h-263v34h263v-34z" />
    <glyph glyph-name="space.frac" horiz-adv-x="72" 
 />
    <glyph glyph-name="numbersign.osf" 
d="M36 248h110l50 163h-136l6 38h141l56 200h44l-56 -200h155l55 200h44l-57 -200h108l-6 -38h-113l-49 -163h139l-5 -38h-144l-58 -210h-43l58 210h-154l-59 -210h-44l58 210h-105zM240 411l-50 -163h155l49 163h-154z" />
    <glyph glyph-name="dollar.osf" horiz-adv-x="486" 
d="M308 733h45l-28 -137q72 -9 117 -36l-21 -38q-61 32 -138 32q-67 0 -110 -31.5t-43 -80.5q0 -34 28.5 -58.5t69 -40.5t81.5 -34t69.5 -50t28.5 -78q0 -79 -50 -130t-138 -58l-28 -150h-45l27 149q-104 6 -161 62l22 39q58 -58 157 -58q77 0 120 39t43 97q0 32 -20.5 56.5
t-51.5 38.5l-67.5 30.5l-67.5 31.5t-51.5 42.5t-20.5 63.5q0 74 56 118t151 46z" />
    <glyph glyph-name="zero.osf" horiz-adv-x="633" 
d="M355 628q110 0 161 -51t51 -165q0 -42 -8 -104q-24 -168 -93.5 -243t-200.5 -75q-111 0 -162 51.5t-51 163.5q0 42 8 103q24 171 93 245.5t202 74.5zM348 583q-104 0 -159.5 -60.5t-76.5 -213.5q-8 -59 -8 -98q0 -96 40.5 -136t126.5 -40q104 0 159 61t76 213q8 59 8 98
q0 96 -40 136t-126 40z" />
    <glyph glyph-name="one.osf" horiz-adv-x="474" 
d="M366 622l-87 -622h-54l71 508q3 24 8 40l-2 2l-34 -23l-141 -86v46l209 135h30z" />
    <glyph glyph-name="two.osf" horiz-adv-x="597" 
d="M329 628q98 0 150.5 -38.5t52.5 -106.5q0 -32 -12 -64t-28 -58.5t-51 -61t-62 -58t-81.5 -62.5l-88.5 -62l-103 -69v-3h374l-9 -45h-446l4 35l83.5 60l82.5 59l74 54.5t69 55.5t55.5 52t45.5 53t26.5 51t10.5 53q0 49 -39 78.5t-120 29.5q-107 0 -200 -68l-12 40
q105 75 224 75z" />
    <glyph glyph-name="three.osf" horiz-adv-x="586" 
d="M314 628q94 0 141.5 -35t47.5 -94q0 -66 -39 -112t-110 -66v-2q134 -21 134 -134q0 -134 -115.5 -214.5t-305.5 -83.5l2 42q177 4 273 73t96 173q0 117 -161 117q-39 0 -72 -5l2 37q138 14 192 54.5t54 110.5q0 95 -148 95q-110 0 -201 -64l-11 38q40 31 99.5 50.5
t121.5 19.5z" />
    <glyph glyph-name="four.osf" horiz-adv-x="617" 
d="M543 75h-98l-25 -181l-49 -4l26 185h-386v33l456 519l55 -4l-71 -507h101zM404 116l60 413q2 16 8 40l-2 2l-14.5 -18t-11.5 -14l-342 -393q-23 -25 -26 -28v-2h328z" />
    <glyph glyph-name="five.osf" horiz-adv-x="572" 
d="M516 619l-3 -46h-339l-47 -209q-7 -31 -10 -39l1 -1q80 37 177 37q98 0 146 -40t48 -114q0 -140 -115 -228t-314 -93l3 45q177 5 274 78t97 190q0 119 -155 119q-108 0 -195 -50l-21 19l75 332h378z" />
    <glyph glyph-name="six.osf" horiz-adv-x="591" 
d="M496 739l2 -43q-157 -5 -257 -88t-129 -233l1 -1q94 79 213 79q100 0 147 -38.5t47 -118.5q0 -15 -4 -51q-16 -125 -84 -189t-185 -64q-99 0 -150 54t-51 176q0 127 35.5 226t98 160.5t142.5 94.5t174 36zM255 38q181 0 210 207q3 21 3 39q0 66 -38.5 97t-117.5 31
q-51 0 -109 -24.5t-96 -64.5q-6 -53 -6 -93q0 -103 38 -147.5t116 -44.5z" />
    <glyph glyph-name="seven.osf" horiz-adv-x="587" 
d="M565 619l-5 -41l-420 -682h-61l398 641q14 22 22 32l-1 2h-414l11 48h470z" />
    <glyph glyph-name="eight.osf" horiz-adv-x="598" 
d="M248 -9q-218 0 -218 142q0 71 44 121t121 76v2q-95 35 -95 117q0 83 60 131t178 48q191 0 191 -128q0 -126 -141 -177v-2q59 -17 92.5 -47t33.5 -84q0 -97 -71 -148t-195 -51zM254 34q93 0 149.5 37t56.5 110q0 19 -6 34.5t-20 27.5t-26 20t-36 16l-38.5 12.5t-44 12
t-42.5 10.5q-166 -56 -166 -174q0 -54 40.5 -80t132.5 -26zM331 587q-179 0 -179 -131q0 -49 40.5 -71.5t142.5 -47.5q77 26 111.5 63t34.5 92q0 95 -150 95z" />
    <glyph glyph-name="nine.osf" horiz-adv-x="580" 
d="M319 628q202 0 202 -220q0 -40 -6 -86q-30 -209 -148 -319t-290 -115l1 44q144 8 244 97t134 250l-2 2q-75 -81 -200 -81q-92 0 -141 42.5t-49 125.5q0 119 67 189.5t188 70.5zM311 582q-90 0 -141.5 -54.5t-51.5 -150.5q0 -132 153 -132q131 0 193 95q5 43 5 71
q0 88 -37.5 129.5t-120.5 41.5z" />
    <glyph glyph-name="cent.osf" horiz-adv-x="503" 
d="M347 733h44l-28 -137q59 -4 112 -33l-22 -38q-59 27 -124 27q-96 0 -151 -63.5t-73 -195.5q-7 -49 -7 -92q0 -90 36 -128.5t107 -38.5q89 0 156 62l17 -34q-67 -61 -153 -69l-29 -150h-45l28 148q-173 6 -173 209q0 46 7 95q41 295 271 303z" />
    <glyph glyph-name="sterling.osf" horiz-adv-x="535" 
d="M53 309l3 37h47q-8 58 -8 89q0 97 59.5 159t191.5 62q97 0 160 -37l-14 -40q-61 36 -148 36q-198 0 -198 -183q0 -16 7 -86h242l-5 -37h-233q1 -12 1 -38q0 -167 -96 -233l1 -2q81 13 202 13q73 0 197 -12l-10 -42q-125 13 -214 13q-108 0 -249 -12l4 39q60 24 88 86.5
t28 143.5q0 16 -2 44h-54z" />
    <glyph glyph-name="currency.osf" 
d="M315 493q57 0 95 -35l73 63l26 -28l-74 -65q20 -32 20 -75q0 -64 -46 -118l54 -63l-33 -28l-54 62q-49 -36 -107 -36q-56 0 -96 34l-69 -61l-24 29l69 61q-21 31 -21 75q0 69 50 122l-52 62l32 29l53 -62q49 34 104 34zM309 452q-55 0 -97 -42t-42 -96q0 -45 29.5 -74
t75.5 -29q56 0 97.5 40.5t41.5 97.5q0 44 -29.5 73.5t-75.5 29.5z" />
    <glyph glyph-name="yen.osf" 
d="M131 281h115l-166 368h59l134 -315q10 -22 15 -38h2q8 15 22 34l224 319h59l-267 -368h112l-5 -34h-126l-8 -61h126l-5 -33h-126l-21 -153h-53l21 153h-130l5 33h130l8 61h-130z" />
    <glyph glyph-name="franc.osf" 
d="M8 146h91l71 503h418l-6 -45h-367l-34 -245h289l-5 -43h-290l-24 -170h96l-5 -35h-96l-15 -111h-52l15 111h-91z" />
    <glyph glyph-name="lira.osf" 
d="M369 656q103 0 173 -39l-15 -41q-61 37 -160 37q-110 0 -160.5 -50t-50.5 -132q0 -22 3 -43h291l-4 -31h-283q3 -24 7 -69h266l-4 -31h-261q-9 -162 -100 -219l1 -2q87 14 218 14q87 0 208 -13l-9 -42q-135 13 -227 13q-132 0 -264 -12l5 40q47 18 76.5 61t37.5 98
q3 22 5 62h-63l3 31h59q-2 25 -8 69h-41l2 31h35q-3 21 -3 42q0 98 62 162t201 64z" />
    <glyph glyph-name="peseta.osf" 
d="M90 649h98q54 0 77.5 -22.5t23.5 -80.5q0 -24 -7 -77q-15 -106 -47 -145.5t-99 -39.5h-62l-39 -284h-36zM183 613h-61l-42 -295h61q46 0 69.5 30t35.5 121q6 42 6 68q0 44 -16 60t-53 16zM403 366h-52l-41 -293q-1 -6 -1 -17q0 -32 23 -32q9 0 19 5l-2 -29q-11 -7 -29 -7
q-46 0 -46 54q0 7 2 25l41 294h-27l4 30h27l20 95l27 5l-14 -100h54zM521 105q-15 -113 -91 -113q-31 0 -51 20l7 33q17 -20 45 -20q27 0 43.5 26t16.5 75q0 26 -11.5 44t-25.5 28t-25.5 30t-11.5 48q0 58 25.5 92.5t64.5 34.5q25 0 46 -16l-8 -33q-18 15 -41 15
q-24 0 -39 -23t-15 -62q0 -23 11.5 -40t25 -26t25 -30t11.5 -52q0 -20 -2 -31z" />
    <glyph glyph-name="Euro.osf" 
d="M411 660q103 0 178 -40l-22 -41q-62 35 -153 35q-108 0 -170 -49t-91 -153h342l-18 -32h-331q-10 -47 -13 -93h304l-20 -32h-286v-13q0 -111 50 -160t152 -49q92 0 171 50l4 -42q-82 -55 -192 -55q-121 0 -181.5 60.5t-60.5 186.5q0 4 0.5 11.5t0.5 10.5h-52l5 32h49
q3 38 13 93h-49l4 32h52q65 248 314 248z" />
    <glyph glyph-name="numbersign.lf" horiz-adv-x="650" 
d="M57 285h130l58 192h-160l5 39h166l65 234h44l-65 -234h134l66 234h43l-66 -234h128l-5 -39h-133l-58 -192h163l-6 -40h-168l-68 -245h-43l68 245h-135l-68 -245h-44l68 245h-125zM289 477l-58 -192h135l58 192h-135z" />
    <glyph glyph-name="dollar.lf" horiz-adv-x="607" 
d="M387 828l35 -1l-15 -66q99 -8 150 -38l-12 -44q-69 31 -148 37l-66 -304q34 -12 57 -21.5t50.5 -26.5t44 -34.5t28 -44.5t11.5 -59q0 -233 -279 -236l-19 -73h-35l15 74q-111 7 -183 50l15 48q75 -47 177 -55l74 342q-38 14 -58 22.5t-50 25t-45 32t-27 40.5t-12 54
q0 98 75 154t198 58zM318 365l-70 -332q106 1 165.5 45.5t59.5 133.5q0 57 -40 90.5t-115 62.5zM361 717q-103 -1 -158.5 -46t-55.5 -113q0 -27 11.5 -47.5t36.5 -37t46.5 -26t59.5 -23.5z" />
    <glyph glyph-name="zero.lf" horiz-adv-x="640" 
d="M377 760q113 0 165.5 -55t52.5 -184q0 -63 -12 -145q-30 -211 -103 -299t-212 -88q-114 0 -166.5 56.5t-52.5 186.5q0 62 12 144q30 212 102.5 298t213.5 86zM371 714q-74 0 -122 -28t-82 -103t-52 -207q-11 -74 -11 -140q0 -112 41 -156.5t130 -44.5q74 0 121.5 29
t81 104t51.5 208q12 83 12 141q0 110 -41 153.5t-129 43.5z" />
    <glyph glyph-name="one.lf" horiz-adv-x="477" 
d="M384 753l-105 -753h-57l88 635q5 31 8 40l-2 2q-18 -15 -33 -24l-155 -104v50l224 154h32z" />
    <glyph glyph-name="two.lf" horiz-adv-x="643" 
d="M373 758q102 0 157.5 -42.5t55.5 -119.5q0 -53 -24.5 -107.5t-61.5 -102.5t-103 -108.5t-125.5 -108.5l-153.5 -118v-3h401l-9 -48h-474l5 36l88.5 72.5l90 74l80 68.5t76.5 70.5t60.5 65.5t51 68.5t29 63t12.5 64.5q0 58 -42 93t-128 35q-111 0 -213 -80l-11 42
q108 85 238 85z" />
    <glyph glyph-name="three.lf" horiz-adv-x="643" 
d="M371 758q101 0 155.5 -38t54.5 -111q0 -85 -49 -135t-127 -68v-2q149 -26 149 -147q0 -16 -3 -34q-15 -107 -90 -169t-206 -62q-129 0 -215 62l20 44q84 -62 201 -62q113 0 176 61.5t63 157.5q0 69 -58 99t-188 30l6 40q269 0 269 176q0 56 -44 84.5t-122 28.5
q-114 0 -216 -79l-13 39q105 85 237 85z" />
    <glyph glyph-name="four.lf" horiz-adv-x="651" 
d="M565 180h-103l-25 -180h-52l25 180h-357v34l419 536h70l-74 -527h106zM418 223l66 442q3 19 8 41l-2 1l-25 -34l-325 -418q-11 -15 -26 -30l1 -2h303z" />
    <glyph glyph-name="five.lf" horiz-adv-x="611" 
d="M573 750l-5 -48h-356l-52 -231q-7 -29 -10 -39l1 -1q80 38 181 38q209 0 209 -167q0 -14 -4 -48q-16 -130 -89.5 -196t-198.5 -66q-122 0 -202 63l18 44q84 -63 186 -63q203 0 231 213q3 23 3 43q0 69 -41.5 101t-129.5 32q-108 0 -197 -48l-21 20l80 353h397z" />
    <glyph glyph-name="six.lf" horiz-adv-x="621" 
d="M417 758q83 0 156 -30l-14 -45q-66 28 -143 28q-123 0 -197.5 -78.5t-102.5 -245.5l1 -1q48 40 108 62t118 22q105 0 155 -40t50 -124q0 -27 -4 -52q-37 -262 -282 -262q-107 0 -160.5 55t-53.5 182q0 53 9 119q29 210 119.5 310t240.5 100zM328 429q-54 0 -115 -25.5
t-101 -67.5q-8 -62 -8 -105q0 -103 40 -149t125 -46q94 0 150 55.5t71 162.5q3 22 3 43q0 68 -40 100t-125 32z" />
    <glyph glyph-name="seven.lf" horiz-adv-x="633" 
d="M627 750l-6 -43l-435 -707h-64l423 667q14 22 22 32l-1 2h-447l10 49h498z" />
    <glyph glyph-name="eight.lf" horiz-adv-x="626" 
d="M370 758q201 0 201 -147q0 -156 -167 -220v-2q67 -22 105 -57.5t38 -100.5q0 -43 -13 -81.5t-42.5 -76t-88.5 -60t-141 -22.5q-118 0 -173.5 41t-55.5 124q0 171 193 243v2q-52 22 -80.5 55t-28.5 87q0 101 63.5 158t189.5 57zM269 35q99 0 161 46.5t62 138.5
q0 20 -5.5 36.5t-13.5 29t-23 24t-27 18.5t-33.5 15.5t-35.5 13l-39 12.5l-38 12q-91 -36 -141 -86t-50 -132q0 -64 43.5 -96t139.5 -32zM363 716q-93 0 -144 -43.5t-51 -122.5q0 -23 6.5 -41t22 -32t29 -23.5t41 -19.5t42.5 -14.5l47 -13.5q86 33 125 79.5t39 114.5
q0 116 -157 116z" />
    <glyph glyph-name="nine.lf" horiz-adv-x="620" 
d="M356 758q107 0 163.5 -62t56.5 -186q0 -46 -7 -92q-32 -226 -116.5 -326t-230.5 -100q-91 0 -160 33l15 43q69 -31 146 -31q121 0 190.5 82t100.5 271l-2 2q-93 -75 -215 -75q-216 0 -216 174q0 125 71.5 196t203.5 71zM349 714q-100 0 -157.5 -55.5t-57.5 -156.5
q0 -143 174 -143q131 0 210 82q5 43 5 73q0 200 -174 200z" />
    <glyph glyph-name="cent.lf" horiz-adv-x="506" 
d="M347 733h44l-28 -136q60 -6 112 -34l-22 -38q-59 27 -124 27q-96 0 -151 -63.5t-73 -195.5q-7 -49 -7 -92q0 -90 36 -128.5t107 -38.5q89 0 156 62l17 -34q-68 -62 -158 -70l-29 -149h-45l29 148q-169 8 -169 209q0 46 7 95q41 295 271 303z" />
    <glyph glyph-name="sterling.lf" horiz-adv-x="650" 
d="M91 358l4 42h54q-9 79 -9 103q0 112 67.5 184t218.5 72q111 0 184 -44l-15 -44q-73 42 -170 42q-121 0 -174.5 -58.5t-53.5 -152.5q0 -34 8 -102h278l-6 -42h-269q2 -36 2 -57q0 -183 -112 -259l1 -2q91 15 233 15q92 0 226 -13l-10 -48q-148 15 -246 15q-134 0 -284 -14
l4 45q70 28 102.5 101t32.5 168q0 27 -3 49h-63z" />
    <glyph glyph-name="currency.lf" horiz-adv-x="565" 
d="M113 359q7 58 49 103l-55 66l34 30l56 -66q51 35 108 35t98 -36l78 67l25 -30l-78 -68q22 -36 22 -79q0 -65 -48 -122l57 -66l-35 -30l-56 65q-52 -36 -111 -36t-99 35l-74 -65l-25 31l74 65q-22 35 -22 77q0 8 2 24zM152 361q-1 -6 -1 -18q0 -48 31.5 -79.5t80.5 -31.5
q59 0 103 43t44 104q0 47 -31 78t-80 31q-53 0 -96.5 -37.5t-50.5 -89.5z" />
    <glyph glyph-name="yen.lf" horiz-adv-x="727" 
d="M192 321h126l-184 429h67l146 -380l6 -17.5l7 -20.5h2q4 7 21 34l255 384h64l-297 -429h121l-6 -37h-135l-8 -58h136l-5 -36h-136l-26 -190h-59l26 190h-140l5 36h140l8 58h-140z" />
    <glyph glyph-name="franc.lf" horiz-adv-x="617" 
d="M-3 165h97l82 585h438l-5 -49h-383l-40 -287h302l-8 -47h-301l-28 -202h101l-6 -40h-101l-17 -125h-57l17 125h-97z" />
    <glyph glyph-name="lira.lf" horiz-adv-x="679" 
d="M100 409l3 38h40q-3 25 -3 52q0 54 14.5 98.5t46 82t89 58.5t136.5 21q111 0 184 -44l-15 -44q-73 42 -170 42q-122 0 -175 -59t-53 -156q0 -26 3 -51h307l-5 -38h-297q4 -45 5 -72h282l-5 -38h-275q0 -4 -2 -29.5t-4 -39.5q-18 -129 -108 -188l1 -2q91 15 233 15
q92 0 226 -13l-10 -48q-148 15 -245 15q-134 0 -285 -14l4 45q53 21 86 71t42 116q6 53 7 72h-70l4 38h65q-1 15 -8 72h-48z" />
    <glyph glyph-name="peseta.lf" horiz-adv-x="778" 
d="M262 750q72 0 105 -30.5t33 -106.5q0 -37 -5 -71q-17 -118 -61.5 -167t-131.5 -49h-79l-45 -326h-45l105 750h124zM256 708h-79l-48 -341h79q62 0 93.5 36.5t46.5 138.5q5 31 5 65q0 56 -23 78.5t-74 22.5zM544 425h-65l-48 -340q-1 -7 -1 -18q0 -40 31 -40q11 0 22 7
l-2 -35q-11 -8 -36 -8q-57 0 -57 64q0 7 2 29l48 341h-35l5 36h35l24 111l33 4l-16 -115h65zM697 120q-17 -131 -110 -131q-43 0 -65 25l8 38q22 -25 58 -25q32 0 52 30t20 86q0 25 -9.5 43.5t-23 30l-27.5 23.5t-23.5 32t-9.5 48q0 70 30 109t79 39q32 0 59 -19l-10 -39
q-23 18 -51 18q-29 0 -48 -26t-19 -70q0 -23 9.5 -39.5t23.5 -27.5t27.5 -23.5t23 -34t9.5 -51.5q0 -16 -3 -36z" />
    <glyph glyph-name="Euro.lf" horiz-adv-x="694" 
d="M489 340l-15 -36h-298q0 -6 -0.5 -16t-0.5 -15q0 -124 54 -180.5t165 -56.5q104 0 201 58v-42q-92 -60 -217 -60q-134 0 -195 65t-61 202q0 29 1 45h-93l5 36h91q2 36 10 75h-90l5 37h92q35 150 122.5 227.5t225.5 77.5q113 0 178 -39l-18 -41q-74 35 -159 35
q-232 0 -295 -260h348l-15 -37h-341q-10 -48 -10 -75h310z" />
    <glyph glyph-name="numbersign.tosf" 
d="M36 248h111l50 163h-137l6 39h143l55 199h43l-56 -199h155l55 199h42l-56 -199h109l-6 -39h-115l-49 -163h141l-5 -39h-145l-58 -209h-42l58 209h-154l-59 -209h-42l58 209h-107zM240 411l-50 -163h155l49 163h-154z" />
    <glyph glyph-name="dollar.tosf" 
d="M476 163q-10 -75 -63.5 -122t-148.5 -53l-28 -148h-48l29 148q-114 5 -172 61l17 46q68 -63 182 -63q85 0 132.5 40.5t47.5 100.5q0 38 -33 63t-80 39l-94.5 29t-80.5 45t-33 75q0 76 59 121.5t160 49.5l29 139h47l-28 -139q79 -6 138 -36l-13 -45q-78 37 -162 37
q-76 0 -124.5 -32.5t-48.5 -83.5q0 -36 33 -59t79.5 -36t93 -28t79.5 -46.5t33 -79.5q0 -7 -2 -23z" />
    <glyph glyph-name="zero.tosf" 
d="M336 628q110 0 161 -51t51 -164q0 -43 -8 -105q-24 -168 -93.5 -243t-200.5 -75q-110 0 -161.5 51t-51.5 164q0 42 8 103q24 171 93 245.5t202 74.5zM329 583q-104 0 -159.5 -60.5t-76.5 -213.5q-8 -59 -8 -98q0 -96 40.5 -136t126.5 -40q104 0 159 60.5t76 213.5
q8 59 8 98q0 96 -40 136t-126 40z" />
    <glyph glyph-name="one.tosf" 
d="M58 0l5 38h199l66 476q4 26 8 40l-2 2l-35 -21l-210 -117v47l279 157h31l-82 -584h177l-5 -38h-431z" />
    <glyph glyph-name="two.tosf" 
d="M330 628q98 0 150 -38.5t52 -107.5q0 -37 -12.5 -72t-44 -72.5t-61 -66.5t-89 -72.5l-99.5 -71l-120 -80.5v-3h374l-9 -44h-445l4 35l94.5 68l93.5 67.5l80.5 61.5t74 63t53.5 58t38.5 62t11.5 59q0 49 -38.5 78t-119.5 29q-107 0 -200 -68l-12 40q104 75 224 75z" />
    <glyph glyph-name="three.tosf" 
d="M323 628q94 0 140.5 -34.5t46.5 -94.5q0 -66 -39 -112t-109 -66v-2q134 -21 134 -134q0 -134 -115.5 -214.5t-305.5 -83.5l1 42q177 4 273 73t96 173q0 57 -40.5 87t-119.5 30q-40 0 -73 -5l2 37q138 14 192.5 54.5t54.5 110.5q0 95 -146 95q-113 0 -204 -64l-10 38
q40 31 100 50.5t122 19.5z" />
    <glyph glyph-name="four.tosf" 
d="M510 623l-71 -506h100l-9 -42h-97l-25 -181l-49 -4l26 185h-387l1 33l456 519zM392 117l61 415q2 16 8 40l-2 2l-14.5 -18t-11.5 -14l-344 -395q-22 -24 -26 -28v-2h329z" />
    <glyph glyph-name="five.tosf" 
d="M529 619l-3 -48h-340l-46 -209q-7 -31 -10 -39l1 -1q80 39 171 39q99 0 149 -40.5t50 -115.5q0 -139 -115 -226.5t-312 -92.5l2 45q174 5 273 77t99 185q0 122 -166 122q-103 0 -185 -47l-21 19l75 332h378z" />
    <glyph glyph-name="six.tosf" 
d="M332 453q99 0 146 -38.5t47 -118.5q0 -15 -4 -51q-37 -253 -269 -253q-99 0 -150.5 54t-51.5 176q0 127 35.5 226t98 160.5t143 94.5t174.5 36l2 -43q-158 -5 -258.5 -88.5t-129.5 -234.5l1 -1q97 81 216 81zM317 412q-51 0 -109 -25.5t-97 -66.5q-6 -51 -6 -91
q0 -103 38.5 -147t116.5 -44q89 0 142.5 52t67.5 155q3 21 3 39q0 66 -38.5 97t-117.5 31z" />
    <glyph glyph-name="seven.tosf" 
d="M572 619l-5 -41l-420 -682h-59l397 639q14 22 22 32l-1 2h-415l11 50h470z" />
    <glyph glyph-name="eight.tosf" 
d="M249 -9q-217 0 -217 142q0 71 44 121t121 76v2q-95 34 -95 117t59.5 131t177.5 48q192 0 192 -128q0 -126 -142 -177v-2q59 -17 92.5 -47t33.5 -84q0 -97 -71 -148t-195 -51zM256 34q92 0 148.5 37t56.5 110q0 19 -6 34.5t-19.5 27.5t-26 20.5t-36 16l-38 12t-43.5 11.5
t-42 11q-167 -56 -167 -174q0 -54 40.5 -80t132.5 -26zM332 587q-178 0 -178 -131q0 -49 39 -71t143 -48q77 26 111.5 63t34.5 92q0 95 -150 95z" />
    <glyph glyph-name="nine.tosf" 
d="M328 627q202 0 202 -219q0 -40 -6 -86q-30 -208 -148.5 -318.5t-290.5 -115.5l2 44q144 8 244 97t135 251l-2 2q-77 -81 -201 -81q-92 0 -141 42.5t-49 124.5q0 119 66.5 189t188.5 70zM319 582q-90 0 -141 -54.5t-51 -150.5q0 -133 152 -133q130 0 193 96q5 43 5 72
q0 87 -38 128.5t-120 41.5z" />
    <glyph glyph-name="cent.tosf" 
d="M394 735h46l-28 -142q81 -6 137 -35l-12 -47q-67 37 -149 37q-118 0 -180 -60.5t-80 -189.5q-6 -40 -6 -75q0 -100 48.5 -145.5t144.5 -45.5q95 0 168 48l-1 -44q-71 -45 -171 -50l-28 -147h-46l29 148q-200 15 -200 227q0 39 6 84q21 143 92 216.5t202 78.5z" />
    <glyph glyph-name="sterling.tosf" 
d="M58 309l3 38h48q-8 43 -8 81q0 46 13.5 85t42.5 72.5t82 52t125 18.5q102 0 174 -39l-15 -41q-62 37 -161 37q-112 0 -161 -50.5t-49 -133.5q0 -17 7 -82h262l-5 -38h-253q2 -32 2 -49q0 -161 -97 -222l1 -2q94 14 217 14q87 0 208 -13l-10 -42q-133 13 -226 13
q-132 0 -264 -12l4 40q118 45 118 224q0 19 -2 49h-56z" />
    <glyph glyph-name="currency.tosf" 
d="M315 493q57 0 95 -35l73 63l26 -28l-74 -65q20 -32 20 -75q0 -64 -46 -118l54 -63l-33 -28l-54 62q-49 -36 -107 -36q-56 0 -96 34l-69 -61l-24 29l69 61q-21 31 -21 75q0 69 50 122l-52 62l32 29l53 -62q49 34 104 34zM309 452q-55 0 -97 -42t-42 -96q0 -45 29.5 -74
t75.5 -29q55 0 97 40t42 97q0 44 -29.5 74t-75.5 30z" />
    <glyph glyph-name="yen.tosf" 
d="M131 281h115l-166 368h59l134 -315q12 -28 15 -38h2q8 15 22 34l224 319h59l-267 -368h112l-5 -34h-126l-8 -61h126l-5 -33h-126l-21 -153h-53l21 153h-130l5 33h130l8 61h-130z" />
    <glyph glyph-name="uni2007.tosf" 
 />
    <glyph glyph-name="franc.tosf" 
d="M8 146h91l71 503h418l-6 -45h-367l-34 -245h289l-5 -43h-290l-24 -170h96l-5 -35h-96l-15 -111h-52l15 111h-91z" />
    <glyph glyph-name="lira.tosf" 
d="M71 353l3 34h34q-3 20 -3 40q0 46 13.5 85.5t42.5 72.5t82.5 52t125.5 19q103 0 173 -39l-15 -41q-61 37 -160 37q-110 0 -160 -49t-50 -130q0 -31 2 -47h291l-5 -34h-282q3 -22 7 -63h266l-4 -33h-261q-9 -162 -100 -219l1 -2q87 14 218 14q87 0 208 -13l-9 -42
q-135 13 -227 13q-132 0 -264 -12l5 40q47 18 76.5 61t37.5 98q3 22 5 62h-63l3 33h58q-1 13 -4 35.5t-3 27.5h-42z" />
    <glyph glyph-name="peseta.tosf" 
d="M342 649q96 0 140.5 -34.5t44.5 -109.5q0 -11 -2 -33h69l-4 -30h-70q-17 -90 -72 -131t-160 -41h-154l-37 -270h-51l62 442h-69l4 30h69l25 177h205zM336 609h-154l-19 -137h311q1 9 1 25q0 60 -33.5 86t-105.5 26zM294 308q78 0 119 30t56 104h-310l-19 -134h154z" />
    <glyph glyph-name="Euro.tosf" 
d="M589 620l-22 -41q-62 35 -153 35q-107 0 -169.5 -49t-91.5 -153h342l-19 -36h-331q-8 -39 -12 -89h304l-20 -35h-286q0 -117 48.5 -168t153.5 -51q100 0 175 52v-44q-82 -55 -192 -55q-122 0 -181.5 63.5t-59.5 202.5h-52l5 35h49q4 50 12 89h-49l5 36h52q65 248 314 248
q103 0 178 -40z" />
    <glyph glyph-name="f_i.sc" horiz-adv-x="849" 
d="M547 603h-355l-34 -246h316l-7 -44h-316l-43 -313h-53l90 649h407zM625 0l91 649h55l-91 -649h-55z" />
    <glyph glyph-name="f_l.sc" horiz-adv-x="1092" 
d="M547 603h-355l-34 -246h316l-7 -44h-316l-43 -313h-53l90 649h407zM670 46h350l-9 -46h-401l91 649h54z" />
    <glyph glyph-name="exclam.sc" horiz-adv-x="296" 
d="M141 164h-38l59 485h55zM107 61q34 0 34 -28q0 -42 -44 -42q-35 0 -35 27q0 43 45 43z" />
    <glyph glyph-name="ampersand.sc" horiz-adv-x="648" 
d="M567 326q-24 -98 -103 -195q69 -61 125 -98l-25 -42q-67 44 -133 104q-106 -106 -224 -106q-80 0 -117.5 37t-37.5 98q0 53 25 99.5t57 76.5t80 63q-37 71 -37 131q0 73 43 119t123 46q62 0 96 -25.5t34 -65.5q0 -25 -11 -48t-24.5 -40.5t-44.5 -42t-53 -39.5l-67 -44
q58 -97 160 -194q67 84 90 166h44zM220 32q90 0 181 91q-109 106 -168 204q-128 -92 -128 -194q0 -48 31 -74.5t84 -26.5zM336 620q-47 0 -79.5 -32t-32.5 -88q0 -49 30 -111q94 59 131 94.5t37 76.5q0 60 -86 60z" />
    <glyph glyph-name="question.sc" horiz-adv-x="503" 
d="M300 661q82 0 123.5 -32t41.5 -92q0 -80 -54 -139.5t-156 -108.5l-20 -125h-40l16 146q103 54 150 101.5t47 113.5q0 91 -122 91q-99 0 -187 -71l-16 37q93 79 217 79zM202 61q34 0 34 -28q0 -42 -44 -42q-35 0 -35 27q0 43 45 43z" />
    <glyph glyph-name="grave.sc" horiz-adv-x="395" 
d="M302 706h-43l-94 135h68z" />
    <glyph glyph-name="a.sc" horiz-adv-x="652" 
d="M511 0l-44 178h-336l-95 -178h-59l357 649h64l176 -649h-63zM361 607h-2q-2 -5 -5 -10.5l-7 -13t-6 -12.5l-189 -351h303l-85 347q-9 37 -9 40z" />
    <glyph glyph-name="b.sc" horiz-adv-x="621" 
d="M145 649h241q167 0 167 -127q0 -76 -35.5 -120.5t-89.5 -57.5v-2q113 -19 113 -126q0 -16 -3 -34q-13 -89 -67 -135.5t-160 -46.5h-257zM150 320l-38 -276h206q73 0 115 32.5t53 108.5q2 18 2 27q0 108 -136 108h-202zM191 605l-35 -245h197q70 0 109 38.5t39 111.5
q0 50 -30 72.5t-93 22.5h-187z" />
    <glyph glyph-name="c.sc" horiz-adv-x="566" 
d="M388 660q93 0 159 -34l-15 -44q-59 33 -148 33q-123 0 -190 -66t-88 -218q-7 -49 -7 -95q0 -109 50 -156t156 -47q79 0 158 37l3 -41q-82 -40 -173 -40q-128 0 -189 59t-61 184q0 41 8 99q24 170 105.5 249.5t231.5 79.5z" />
    <glyph glyph-name="d.sc" horiz-adv-x="674" 
d="M145 649h227q129 0 189 -54.5t60 -173.5q0 -46 -7 -95q-24 -172 -104 -249t-228 -77h-228zM191 603l-78 -558h174q122 0 186 62.5t86 219.5q7 46 7 89q0 102 -48 144.5t-154 42.5h-173z" />
    <glyph glyph-name="e.sc" horiz-adv-x="581" 
d="M113 45h374l-9 -45h-424l91 649h409l-6 -45h-357l-34 -243h310l-5 -40h-310z" />
    <glyph glyph-name="f.sc" horiz-adv-x="556" 
d="M547 603h-355l-34 -246h316l-7 -44h-316l-43 -313h-53l90 649h407z" />
    <glyph glyph-name="g.sc" horiz-adv-x="627" 
d="M399 660q105 0 175 -35l-13 -44q-78 33 -165 33q-130 0 -198.5 -65t-91.5 -226q-7 -48 -7 -93q0 -105 50 -150.5t160 -45.5q90 0 153 28l39 276h50l-44 -310q-85 -39 -203 -39q-134 0 -198 56.5t-64 180.5q0 40 8 96q25 179 108 258.5t241 79.5z" />
    <glyph glyph-name="h.sc" horiz-adv-x="702" 
d="M548 0h-55l44 317h-385l-44 -317h-54l91 649h54l-41 -287h385l41 287h55z" />
    <glyph glyph-name="i.sc" horiz-adv-x="293" 
d="M69 0l91 649h55l-91 -649h-55z" />
    <glyph glyph-name="j.sc" horiz-adv-x="467" 
d="M415 649l-64 -453q-15 -106 -72 -156.5t-145 -50.5q-90 0 -134 44l13 45q48 -45 118 -45q142 0 166 163l64 453h54z" />
    <glyph glyph-name="k.sc" horiz-adv-x="640" 
d="M558 0h-74l-215 319h-118l-44 -319h-53l91 649h53l-40 -286h122l286 286h68l-307 -306z" />
    <glyph glyph-name="l.sc" horiz-adv-x="536" 
d="M114 46h350l-9 -46h-401l91 649h54z" />
    <glyph glyph-name="m.sc" horiz-adv-x="841" 
d="M145 649h64l160 -544q8 -29 10 -39h2q7 16 19 36l316 547h62l-91 -649h-50l74 531q4 23 9 41l-2 1l-328 -573h-39l-169 564h-2q0 -15 -4 -41l-73 -523h-49z" />
    <glyph glyph-name="n.sc" horiz-adv-x="707" 
d="M553 0h-43q-322 560 -327 572l-2 -1q-2 -30 -4 -41l-74 -530h-49l91 649h54l318 -560l2 1q0 20 3 40l73 520h49z" />
    <glyph glyph-name="o.sc" horiz-adv-x="661" 
d="M373 659q125 0 181 -53t56 -172q0 -48 -9 -110q-25 -180 -99 -257.5t-223 -77.5q-125 0 -181 53.5t-56 173.5q0 55 8 108q26 180 100 257.5t223 77.5zM367 614q-121 0 -180 -63t-82 -227q-8 -53 -8 -105q0 -102 44.5 -144t143.5 -42q119 0 177.5 64t81.5 227q9 62 9 107
q0 101 -44 142t-142 41z" />
    <glyph glyph-name="p.sc" horiz-adv-x="599" 
d="M145 649h222q102 0 149 -35.5t47 -111.5q0 -119 -62 -177t-188 -58h-168l-37 -267h-54zM193 606l-42 -299h168q87 0 130 33.5t55 118.5q3 19 3 37q0 59 -35 84.5t-111 25.5h-168z" />
    <glyph glyph-name="q.sc" horiz-adv-x="681" 
d="M383 659q125 0 181 -53t56 -172q0 -48 -9 -110q-23 -163 -86.5 -241.5t-185.5 -88.5l155 -115l-66 -14l-157 124q-115 4 -167 57.5t-52 169.5q0 55 8 108q26 180 100 257.5t223 77.5zM377 614q-121 0 -180 -63t-82 -227q-8 -53 -8 -105q0 -102 44.5 -144t143.5 -42
q119 0 177.5 64t81.5 227q9 62 9 107q0 101 -44 142t-142 41z" />
    <glyph glyph-name="r.sc" horiz-adv-x="616" 
d="M145 649h226q175 0 175 -136q0 -93 -46.5 -146t-127.5 -63l150 -304h-68l-139 295h-166l-41 -295h-54zM193 606l-38 -270h167q85 0 127 41.5t42 130.5q0 51 -30 74.5t-97 23.5h-171z" />
    <glyph glyph-name="s.sc" horiz-adv-x="532" 
d="M322 659q104 0 171 -37l-15 -42q-81 35 -161 35q-87 0 -133 -40.5t-46 -98.5q0 -40 33 -65t79.5 -39.5l93 -30.5t79.5 -50t33 -86q0 -98 -68.5 -157t-182.5 -59q-113 0 -191 51l18 45q76 -53 179 -53q86 0 138.5 44.5t52.5 117.5q0 42 -33 69t-80 42l-93.5 30.5
t-79.5 47.5t-33 82q0 83 62.5 138.5t176.5 55.5z" />
    <glyph glyph-name="t.sc" horiz-adv-x="532" 
d="M548 604h-221l-84 -604h-55l84 604h-221l8 45h495z" />
    <glyph glyph-name="u.sc" horiz-adv-x="694" 
d="M643 650l-57 -404q-36 -257 -290 -257q-225 0 -225 196q0 24 5 61l57 404h54l-57 -405q-4 -25 -4 -54q0 -157 176 -157q201 0 230 211l57 405h54z" />
    <glyph glyph-name="v.sc" horiz-adv-x="640" 
d="M589 649h59l-346 -649h-63l-165 649h63l131 -564q6 -24 8 -40h2q3 9 17 37z" />
    <glyph glyph-name="w.sc" horiz-adv-x="930" 
d="M476 649h62l75 -562q4 -34 4 -41h2q7 22 14 38l220 565h56l-262 -649h-70l-73 559q-2 11 -4 41h-2q-5 -17 -14 -38l-231 -562h-69l-80 649h58l60 -564q3 -39 3 -41h2q7 22 14 38z" />
    <glyph glyph-name="x.sc" horiz-adv-x="648" 
d="M481 0l-148 269l-18 35h-2q-7 -12 -26 -33l-218 -271h-69l278 341l-177 308h70l135 -244q13 -23 18 -36h2q7 11 26 34l202 246h67l-262 -314l189 -335h-67z" />
    <glyph glyph-name="y.sc" horiz-adv-x="614" 
d="M74 649h65l142 -336q12 -28 15 -38h2q8 15 22 34l239 340h63l-303 -419l-32 -230h-58l32 230z" />
    <glyph glyph-name="z.sc" horiz-adv-x="581" 
d="M469 0h-462l4 34l454 539q13 17 27 29l-1 2h-387l10 45h446l-6 -39l-448 -534q-22 -25 -27 -29l1 -2h397z" />
    <glyph glyph-name="exclamdown.sc" horiz-adv-x="303" 
d="M146 468h41l-71 -564h-59zM194 664q38 0 38 -29q0 -47 -49 -47q-38 0 -38 30q0 46 49 46z" />
    <glyph glyph-name="dieresis.sc" horiz-adv-x="395" 
d="M190 819q27 0 27 -24q0 -39 -36 -39q-29 0 -29 25q0 18 10.5 28t27.5 10zM339 819q27 0 27 -24q0 -39 -36 -39q-29 0 -29 24q0 39 38 39z" />
    <glyph glyph-name="macron.sc" horiz-adv-x="395" 
d="M391 796l-4 -33h-260l4 33h260z" />
    <glyph glyph-name="acute.sc" horiz-adv-x="389" 
d="M320 840h76l-151 -134h-49z" />
    <glyph glyph-name="cedilla.sc" horiz-adv-x="395" 
d="M61 -193l86 191h38l-67 -191h-57z" />
    <glyph glyph-name="questiondown.sc" horiz-adv-x="539" 
d="M195 -97q-178 0 -178 135q0 92 57.5 159.5t170.5 127.5l23 142h43l-18 -161q-114 -66 -167 -122t-53 -133q0 -103 133 -103q108 0 205 80l17 -37q-97 -88 -233 -88zM315 663q39 0 39 -29q0 -48 -50 -48q-38 0 -38 32q0 45 49 45z" />
    <glyph glyph-name="germandbls.sc" horiz-adv-x="1064" 
d="M322 659q104 0 171 -37l-15 -42q-81 35 -161 35q-87 0 -133 -40.5t-46 -98.5q0 -40 33 -65t79.5 -39.5l93 -30.5t79.5 -50t33 -86q0 -98 -68.5 -157t-182.5 -59q-113 0 -191 51l18 45q76 -53 179 -53q86 0 138.5 44.5t52.5 117.5q0 42 -33 69t-80 42l-93.5 30.5
t-79.5 47.5t-33 82q0 83 62.5 138.5t176.5 55.5zM854 659q104 0 171 -37l-15 -42q-81 35 -161 35q-87 0 -133 -40.5t-46 -98.5q0 -40 33 -65t79.5 -39.5l93 -30.5t79.5 -50t33 -86q0 -98 -68.5 -157t-182.5 -59q-113 0 -191 51l18 45q76 -53 179 -53q86 0 138.5 44.5
t52.5 117.5q0 42 -33 69t-80 42l-93.5 30.5t-79.5 47.5t-33 82q0 83 62.5 138.5t176.5 55.5z" />
    <glyph glyph-name="agrave.sc" horiz-adv-x="652" 
d="M511 0l-44 178h-336l-95 -178h-59l357 649h64l176 -649h-63zM361 607h-2q-2 -5 -5 -10.5l-7 -13t-6 -12.5l-189 -351h303l-85 347q-9 37 -9 40zM408 706h-43l-94 135h68z" />
    <glyph glyph-name="aacute.sc" horiz-adv-x="652" 
d="M511 0l-44 178h-336l-95 -178h-59l357 649h64l176 -649h-63zM361 607h-2q-2 -5 -5 -10.5l-7 -13t-6 -12.5l-189 -351h303l-85 347q-9 37 -9 40zM475 840h76l-151 -134h-49z" />
    <glyph glyph-name="acircumflex.sc" horiz-adv-x="652" 
d="M511 0l-44 178h-336l-95 -178h-59l357 649h64l176 -649h-63zM361 607h-2q-2 -5 -5 -10.5l-7 -13t-6 -12.5l-189 -351h303l-85 347q-9 37 -9 40zM359 840h52l88 -134h-49l-69 111l-97 -111h-49z" />
    <glyph glyph-name="atilde.sc" horiz-adv-x="652" 
d="M511 0l-44 178h-336l-95 -178h-59l357 649h64l176 -649h-63zM361 607h-2q-2 -5 -5 -10.5l-7 -13t-6 -12.5l-189 -351h303l-85 347q-9 37 -9 40zM429 727q-29 0 -62.5 34.5t-52.5 34.5q-33 0 -51 -60h-34q11 43 35 67.5t55 24.5q29 0 62 -35t52 -35q32 0 52 61h34
q-11 -43 -35 -67.5t-55 -24.5z" />
    <glyph glyph-name="adieresis.sc" horiz-adv-x="652" 
d="M511 0l-44 178h-336l-95 -178h-59l357 649h64l176 -649h-63zM361 607h-2q-2 -5 -5 -10.5l-7 -13t-6 -12.5l-189 -351h303l-85 347q-9 37 -9 40zM305 819q27 0 27 -24q0 -39 -36 -39q-29 0 -29 25q0 18 10.5 28t27.5 10zM454 819q27 0 27 -24q0 -39 -36 -39q-29 0 -29 24
q0 39 38 39z" />
    <glyph glyph-name="aring.sc" horiz-adv-x="652" 
d="M382 778q36 0 57.5 -18t21.5 -46q0 -57 -60 -79l173 -635h-63l-44 178h-336l-95 -178h-59l348 634q-41 14 -41 57q0 38 27 62.5t71 24.5zM361 607h-2q-2 -5 -5 -10.5l-7 -13t-6 -12.5l-189 -351h303l-85 347q-9 37 -9 40zM380 752q-29 0 -46 -16t-17 -41q0 -41 49 -41
q28 0 45 16t17 41q0 18 -12.5 29.5t-35.5 11.5z" />
    <glyph glyph-name="ae.sc" horiz-adv-x="941" 
d="M916 604h-380l-2 -243h294l-5 -40h-289l-1 -276h313l-7 -45h-361v178h-308l-129 -178h-68l484 649h463zM482 607l-2 1q-5 -8 -24 -34l-257 -355h280l1 347q0 15 2 41z" />
    <glyph glyph-name="ccedilla.sc" horiz-adv-x="566" 
d="M189 -193l82 183q-117 5 -172.5 63t-55.5 178q0 42 8 100q24 170 105.5 249.5t231.5 79.5q93 0 159 -34l-15 -44q-59 33 -148 33q-123 0 -190 -66t-88 -218q-7 -49 -7 -95q0 -109 50 -156t156 -47q79 0 158 37l3 -41q-69 -34 -156 -39l-64 -183h-57z" />
    <glyph glyph-name="egrave.sc" horiz-adv-x="581" 
d="M113 45h374l-9 -45h-424l91 649h409l-6 -45h-357l-34 -243h310l-5 -40h-310zM404 706h-43l-94 135h68z" />
    <glyph glyph-name="eacute.sc" horiz-adv-x="581" 
d="M113 45h374l-9 -45h-424l91 649h409l-6 -45h-357l-34 -243h310l-5 -40h-310zM424 840h76l-151 -134h-49z" />
    <glyph glyph-name="ecircumflex.sc" horiz-adv-x="581" 
d="M113 45h374l-9 -45h-424l91 649h409l-6 -45h-357l-34 -243h310l-5 -40h-310zM357 840h52l88 -134h-49l-69 111l-97 -111h-49z" />
    <glyph glyph-name="edieresis.sc" horiz-adv-x="581" 
d="M113 45h374l-9 -45h-424l91 649h409l-6 -45h-357l-34 -243h310l-5 -40h-310zM300 819q27 0 27 -24q0 -39 -36 -39q-29 0 -29 25q0 18 10.5 28t27.5 10zM449 819q27 0 27 -24q0 -39 -36 -39q-29 0 -29 24q0 39 38 39z" />
    <glyph glyph-name="igrave.sc" horiz-adv-x="293" 
d="M69 0l91 649h55l-91 -649h-55zM223 706h-43l-94 135h68z" />
    <glyph glyph-name="iacute.sc" horiz-adv-x="293" 
d="M69 0l91 649h55l-91 -649h-55zM291 840h76l-151 -134h-49z" />
    <glyph glyph-name="icircumflex.sc" horiz-adv-x="293" 
d="M69 0l91 649h55l-91 -649h-55zM185 840h52l88 -134h-49l-69 111l-97 -111h-49z" />
    <glyph glyph-name="idieresis.sc" horiz-adv-x="293" 
d="M69 0l91 649h55l-91 -649h-55zM136 819q27 0 27 -24q0 -39 -36 -39q-29 0 -29 25q0 18 10.5 28t27.5 10zM285 819q27 0 27 -24q0 -39 -36 -39q-29 0 -29 24q0 39 38 39z" />
    <glyph glyph-name="eth.sc" horiz-adv-x="681" 
d="M151 649h227q129 0 189 -54.5t60 -173.5q0 -46 -7 -95q-24 -172 -104 -249t-228 -77h-228l45 323h-90l5 38h90zM197 603l-34 -242h154l-5 -38h-154l-39 -278h174q122 0 186 62.5t86 219.5q7 46 7 89q0 102 -48 144.5t-154 42.5h-173z" />
    <glyph glyph-name="ntilde.sc" horiz-adv-x="707" 
d="M553 0h-43q-322 560 -327 572l-2 -1q-2 -30 -4 -41l-74 -530h-49l91 649h54l318 -560l2 1q0 20 3 40l73 520h49zM474 727q-29 0 -62.5 34.5t-52.5 34.5q-33 0 -51 -60h-34q11 43 35 67.5t55 24.5q29 0 62 -35t52 -35q32 0 52 61h34q-11 -43 -35 -67.5t-55 -24.5z" />
    <glyph glyph-name="ograve.sc" horiz-adv-x="661" 
d="M373 659q125 0 181 -53t56 -172q0 -48 -9 -110q-25 -180 -99 -257.5t-223 -77.5q-125 0 -181 53.5t-56 173.5q0 55 8 108q26 180 100 257.5t223 77.5zM367 614q-121 0 -180 -63t-82 -227q-8 -53 -8 -105q0 -102 44.5 -144t143.5 -42q119 0 177.5 64t81.5 227q9 62 9 107
q0 101 -44 142t-142 41zM424 706h-43l-94 135h68z" />
    <glyph glyph-name="oacute.sc" horiz-adv-x="661" 
d="M373 659q125 0 181 -53t56 -172q0 -48 -9 -110q-25 -180 -99 -257.5t-223 -77.5q-125 0 -181 53.5t-56 173.5q0 55 8 108q26 180 100 257.5t223 77.5zM367 614q-121 0 -180 -63t-82 -227q-8 -53 -8 -105q0 -102 44.5 -144t143.5 -42q119 0 177.5 64t81.5 227q9 62 9 107
q0 101 -44 142t-142 41zM466 840h76l-151 -134h-49z" />
    <glyph glyph-name="ocircumflex.sc" horiz-adv-x="661" 
d="M373 659q125 0 181 -53t56 -172q0 -48 -9 -110q-25 -180 -99 -257.5t-223 -77.5q-125 0 -181 53.5t-56 173.5q0 55 8 108q26 180 100 257.5t223 77.5zM367 614q-121 0 -180 -63t-82 -227q-8 -53 -8 -105q0 -102 44.5 -144t143.5 -42q119 0 177.5 64t81.5 227q9 62 9 107
q0 101 -44 142t-142 41zM377 840h52l88 -134h-49l-69 111l-97 -111h-49z" />
    <glyph glyph-name="otilde.sc" horiz-adv-x="661" 
d="M373 659q125 0 181 -53t56 -172q0 -48 -9 -110q-25 -180 -99 -257.5t-223 -77.5q-125 0 -181 53.5t-56 173.5q0 55 8 108q26 180 100 257.5t223 77.5zM367 614q-121 0 -180 -63t-82 -227q-8 -53 -8 -105q0 -102 44.5 -144t143.5 -42q119 0 177.5 64t81.5 227q9 62 9 107
q0 101 -44 142t-142 41zM449 727q-29 0 -62.5 34.5t-52.5 34.5q-33 0 -51 -60h-34q11 43 35 67.5t55 24.5q29 0 62 -35t52 -35q32 0 52 61h34q-11 -43 -35 -67.5t-55 -24.5z" />
    <glyph glyph-name="odieresis.sc" horiz-adv-x="661" 
d="M373 659q125 0 181 -53t56 -172q0 -48 -9 -110q-25 -180 -99 -257.5t-223 -77.5q-125 0 -181 53.5t-56 173.5q0 55 8 108q26 180 100 257.5t223 77.5zM367 614q-121 0 -180 -63t-82 -227q-8 -53 -8 -105q0 -102 44.5 -144t143.5 -42q119 0 177.5 64t81.5 227q9 62 9 107
q0 101 -44 142t-142 41zM325 819q27 0 27 -24q0 -39 -36 -39q-29 0 -29 25q0 18 10.5 28t27.5 10zM474 819q27 0 27 -24q0 -39 -36 -39q-29 0 -29 24q0 39 38 39z" />
    <glyph glyph-name="oslash.sc" horiz-adv-x="661" 
d="M22 -13l-24 24l68 75q-25 50 -25 129q0 49 9 109q26 180 100 257.5t223 77.5q134 0 190 -63l69 70l24 -25l-74 -74q27 -48 27 -133q0 -55 -8 -110q-25 -180 -99 -257.5t-223 -77.5q-139 0 -194 67zM544 324q9 62 9 107q0 60 -15 99l-415 -432q40 -65 162 -65
q119 0 177.5 64t81.5 227zM105 324q-9 -60 -9 -106q0 -54 13 -95l414 433q-40 58 -156 58q-121 0 -180 -63t-82 -227z" />
    <glyph glyph-name="ugrave.sc" horiz-adv-x="694" 
d="M643 650l-57 -404q-36 -257 -290 -257q-225 0 -225 196q0 24 5 61l57 404h54l-57 -405q-4 -25 -4 -54q0 -157 176 -157q201 0 230 211l57 405h54zM435 706h-43l-94 135h68z" />
    <glyph glyph-name="uacute.sc" horiz-adv-x="694" 
d="M643 650l-57 -404q-36 -257 -290 -257q-225 0 -225 196q0 24 5 61l57 404h54l-57 -405q-4 -25 -4 -54q0 -157 176 -157q201 0 230 211l57 405h54zM463 840h76l-151 -134h-49z" />
    <glyph glyph-name="ucircumflex.sc" horiz-adv-x="694" 
d="M643 650l-57 -404q-36 -257 -290 -257q-225 0 -225 196q0 24 5 61l57 404h54l-57 -405q-4 -25 -4 -54q0 -157 176 -157q201 0 230 211l57 405h54zM384 840h52l88 -134h-49l-69 111l-97 -111h-49z" />
    <glyph glyph-name="udieresis.sc" horiz-adv-x="694" 
d="M643 650l-57 -404q-36 -257 -290 -257q-225 0 -225 196q0 24 5 61l57 404h54l-57 -405q-4 -25 -4 -54q0 -157 176 -157q201 0 230 211l57 405h54zM335 819q27 0 27 -24q0 -39 -36 -39q-29 0 -29 25q0 18 10.5 28t27.5 10zM484 819q27 0 27 -24q0 -39 -36 -39
q-29 0 -29 24q0 39 38 39z" />
    <glyph glyph-name="yacute.sc" horiz-adv-x="614" 
d="M74 649h65l142 -336q12 -28 15 -38h2q8 15 22 34l239 340h63l-303 -419l-32 -230h-58l32 230zM427 840h76l-151 -134h-49z" />
    <glyph glyph-name="thorn.sc" horiz-adv-x="599" 
d="M181 525h144q117 0 169 -35t52 -113q0 -19 -3 -42q-15 -99 -78 -146t-194 -47h-144l-19 -142h-54l91 649h54zM175 482l-42 -298h144q101 0 149.5 33t60.5 118q3 18 3 34q0 61 -40.5 87t-130.5 26h-144z" />
    <glyph glyph-name="ydieresis.sc" horiz-adv-x="614" 
d="M74 649h65l142 -336q12 -28 15 -38h2q8 15 22 34l239 340h63l-303 -419l-32 -230h-58l32 230zM295 819q27 0 27 -24q0 -39 -36 -39q-29 0 -29 25q0 18 10.5 28t27.5 10zM444 819q27 0 27 -24q0 -39 -36 -39q-29 0 -29 24q0 39 38 39z" />
    <glyph glyph-name="amacron.sc" horiz-adv-x="652" 
d="M511 0l-44 178h-336l-95 -178h-59l357 649h64l176 -649h-63zM361 607h-2q-2 -5 -5 -10.5l-7 -13t-6 -12.5l-189 -351h303l-85 347q-9 37 -9 40zM506 796l-4 -33h-260l4 33h260z" />
    <glyph glyph-name="abreve.sc" horiz-adv-x="652" 
d="M511 0l-44 178h-336l-95 -178h-59l357 649h64l176 -649h-63zM361 607h-2q-2 -5 -5 -10.5l-7 -13t-6 -12.5l-189 -351h303l-85 347q-9 37 -9 40zM472 840h43q-9 -65 -47 -101.5t-102 -36.5q-113 0 -113 104q0 16 3 34h42q-2 -10 -2 -27q0 -39 20 -59t55 -20
q39 0 66.5 27.5t34.5 78.5z" />
    <glyph glyph-name="aogonek.sc" horiz-adv-x="652" 
d="M574 0h-19q-35 -1 -58.5 -31.5t-23.5 -63.5q0 -47 58 -47q34 0 67 17l2 -31q-43 -23 -89 -23q-87 0 -87 69q0 37 23 69t61 48l-41 171h-336l-95 -178h-59l357 649h64zM361 607h-2q-2 -5 -5 -10.5l-7 -13t-6 -12.5l-189 -351h303l-85 347q-9 37 -9 40z" />
    <glyph glyph-name="cacute.sc" horiz-adv-x="566" 
d="M388 660q93 0 159 -34l-15 -44q-59 33 -148 33q-123 0 -190 -66t-88 -218q-7 -49 -7 -95q0 -109 50 -156t156 -47q79 0 158 37l3 -41q-82 -40 -173 -40q-128 0 -189 59t-61 184q0 41 8 99q24 170 105.5 249.5t231.5 79.5zM470 840h76l-151 -134h-49z" />
    <glyph glyph-name="ccircumflex.sc" horiz-adv-x="566" 
d="M388 660q93 0 159 -34l-15 -44q-59 33 -148 33q-123 0 -190 -66t-88 -218q-7 -49 -7 -95q0 -109 50 -156t156 -47q79 0 158 37l3 -41q-82 -40 -173 -40q-128 0 -189 59t-61 184q0 41 8 99q24 170 105.5 249.5t231.5 79.5zM369 840h52l88 -134h-49l-69 111l-97 -111h-49z
" />
    <glyph glyph-name="cdotaccent.sc" horiz-adv-x="566" 
d="M388 660q93 0 159 -34l-15 -44q-59 33 -148 33q-123 0 -190 -66t-88 -218q-7 -49 -7 -95q0 -109 50 -156t156 -47q79 0 158 37l3 -41q-82 -40 -173 -40q-128 0 -189 59t-61 184q0 41 8 99q24 170 105.5 249.5t231.5 79.5zM409 826q37 0 37 -29q0 -45 -48 -45
q-38 0 -38 28q0 22 13.5 34t35.5 12z" />
    <glyph glyph-name="ccaron.sc" horiz-adv-x="566" 
d="M388 660q93 0 159 -34l-15 -44q-59 33 -148 33q-123 0 -190 -66t-88 -218q-7 -49 -7 -95q0 -109 50 -156t156 -47q79 0 158 37l3 -41q-82 -40 -173 -40q-128 0 -189 59t-61 184q0 41 8 99q24 170 105.5 249.5t231.5 79.5zM414 706h-51l-88 134h50l66 -110l99 110h50z" />
    <glyph glyph-name="dcaron.sc" horiz-adv-x="674" 
d="M145 649h227q129 0 189 -54.5t60 -173.5q0 -46 -7 -95q-24 -172 -104 -249t-228 -77h-228zM191 603l-78 -558h174q122 0 186 62.5t86 219.5q7 46 7 89q0 102 -48 144.5t-154 42.5h-173zM377 706h-51l-88 134h50l66 -110l99 110h50z" />
    <glyph glyph-name="dcroat.sc" horiz-adv-x="681" 
d="M151 649h227q129 0 189 -54.5t60 -173.5q0 -46 -7 -95q-24 -172 -104 -249t-228 -77h-228l45 323h-90l5 38h90zM197 603l-34 -242h154l-5 -38h-154l-39 -278h174q122 0 186 62.5t86 219.5q7 46 7 89q0 102 -48 144.5t-154 42.5h-173z" />
    <glyph glyph-name="emacron.sc" horiz-adv-x="581" 
d="M113 45h374l-9 -45h-424l91 649h409l-6 -45h-357l-34 -243h310l-5 -40h-310zM498 796l-4 -33h-260l4 33h260z" />
    <glyph glyph-name="ebreve.sc" horiz-adv-x="581" 
d="M113 45h374l-9 -45h-424l91 649h409l-6 -45h-357l-34 -243h310l-5 -40h-310zM462 840h43q-9 -65 -47 -101.5t-102 -36.5q-113 0 -113 104q0 16 3 34h42q-2 -10 -2 -27q0 -39 20 -59t55 -20q39 0 66.5 27.5t34.5 78.5z" />
    <glyph glyph-name="edotaccent.sc" horiz-adv-x="581" 
d="M113 45h374l-9 -45h-424l91 649h409l-6 -45h-357l-34 -243h310l-5 -40h-310zM379 826q37 0 37 -29q0 -45 -48 -45q-38 0 -38 28q0 22 13.5 34t35.5 12z" />
    <glyph glyph-name="eogonek.sc" horiz-adv-x="581" 
d="M113 45h374l-9 -45h-52q-36 0 -61 -30.5t-25 -64.5q0 -47 58 -47q34 0 67 17l2 -31q-43 -23 -89 -23q-87 0 -87 69q0 73 75 110h-312l91 649h409l-6 -45h-357l-34 -243h310l-5 -40h-310z" />
    <glyph glyph-name="ecaron.sc" horiz-adv-x="581" 
d="M113 45h374l-9 -45h-424l91 649h409l-6 -45h-357l-34 -243h310l-5 -40h-310zM375 706h-51l-88 134h50l66 -110l99 110h50z" />
    <glyph glyph-name="gcircumflex.sc" horiz-adv-x="627" 
d="M399 660q105 0 175 -35l-13 -44q-78 33 -165 33q-130 0 -198.5 -65t-91.5 -226q-7 -48 -7 -93q0 -105 50 -150.5t160 -45.5q90 0 153 28l39 276h50l-44 -310q-85 -39 -203 -39q-134 0 -198 56.5t-64 180.5q0 40 8 96q25 179 108 258.5t241 79.5zM394 840h52l88 -134h-49
l-69 111l-97 -111h-49z" />
    <glyph glyph-name="gbreve.sc" horiz-adv-x="627" 
d="M399 660q105 0 175 -35l-13 -44q-78 33 -165 33q-130 0 -198.5 -65t-91.5 -226q-7 -48 -7 -93q0 -105 50 -150.5t160 -45.5q90 0 153 28l39 276h50l-44 -310q-85 -39 -203 -39q-134 0 -198 56.5t-64 180.5q0 40 8 96q25 179 108 258.5t241 79.5zM501 840h43
q-9 -65 -47 -101.5t-102 -36.5q-113 0 -113 104q0 16 3 34h42q-2 -10 -2 -27q0 -39 20 -59t55 -20q39 0 66.5 27.5t34.5 78.5z" />
    <glyph glyph-name="gdotaccent.sc" horiz-adv-x="627" 
d="M399 660q105 0 175 -35l-13 -44q-78 33 -165 33q-130 0 -198.5 -65t-91.5 -226q-7 -48 -7 -93q0 -105 50 -150.5t160 -45.5q90 0 153 28l39 276h50l-44 -310q-85 -39 -203 -39q-134 0 -198 56.5t-64 180.5q0 40 8 96q25 179 108 258.5t241 79.5zM414 826q37 0 37 -29
q0 -45 -48 -45q-38 0 -38 28q0 22 13.5 34t35.5 12z" />
    <glyph glyph-name="gcommaaccent.sc" horiz-adv-x="627" 
d="M399 660q105 0 175 -35l-13 -44q-78 33 -165 33q-130 0 -198.5 -65t-91.5 -226q-7 -48 -7 -93q0 -105 50 -150.5t160 -45.5q90 0 153 28l39 276h50l-44 -310q-85 -39 -203 -39q-134 0 -198 56.5t-64 180.5q0 40 8 96q25 179 108 258.5t241 79.5zM299 -45q39 0 39 -28
q0 -32 -86 -124l-13 9q35 51 47 81h-2q-15 0 -24 7t-9 18q0 16 12 26.5t36 10.5z" />
    <glyph glyph-name="hcircumflex.sc" horiz-adv-x="702" 
d="M548 0h-55l44 317h-385l-44 -317h-54l91 649h54l-41 -287h385l41 287h55zM396 840h52l88 -134h-49l-69 111l-97 -111h-49z" />
    <glyph glyph-name="hbar.sc" horiz-adv-x="713" 
d="M554 0h-55l44 317h-385l-44 -317h-54l69 493h-57l5 34h57l17 122h54l-17 -122h385l17 122h55l-17 -122h56l-5 -34h-56zM164 362h385l19 131h-385z" />
    <glyph glyph-name="itilde.sc" horiz-adv-x="293" 
d="M69 0l91 649h55l-91 -649h-55zM265 727q-29 0 -62.5 34.5t-52.5 34.5q-33 0 -51 -60h-34q11 43 35 67.5t55 24.5q29 0 62 -35t52 -35q32 0 52 61h34q-11 -43 -35 -67.5t-55 -24.5z" />
    <glyph glyph-name="imacron.sc" horiz-adv-x="293" 
d="M69 0l91 649h55l-91 -649h-55zM331 796l-4 -33h-260l4 33h260z" />
    <glyph glyph-name="ibreve.sc" horiz-adv-x="293" 
d="M69 0l91 649h55l-91 -649h-55zM300 840h43q-9 -65 -47 -101.5t-102 -36.5q-113 0 -113 104q0 16 3 34h42q-2 -10 -2 -27q0 -39 20 -59t55 -20q39 0 66.5 27.5t34.5 78.5z" />
    <glyph glyph-name="iogonek.sc" horiz-adv-x="293" 
d="M124 0h-6q-35 -1 -58.5 -31.5t-23.5 -63.5q0 -47 58 -47q34 0 67 17l2 -31q-43 -23 -89 -23q-87 0 -87 69q0 36 22.5 68t59.5 48l91 643h55z" />
    <glyph glyph-name="Idotaccent.sc" horiz-adv-x="293" 
d="M69 0l91 649h55l-91 -649h-55zM210 826q37 0 37 -29q0 -45 -48 -45q-38 0 -38 28q0 22 13.5 34t35.5 12z" />
    <glyph glyph-name="dotlessi.sc" horiz-adv-x="293" 
d="M69 0l91 649h55l-91 -649h-55z" />
    <glyph glyph-name="ij.sc" horiz-adv-x="752" 
d="M701 649l-64 -453q-14 -105 -71.5 -156t-145.5 -51q-90 0 -134 44l13 45q48 -45 118 -45q142 0 166 163l64 453h54zM69 0l91 649h55l-91 -649h-55z" />
    <glyph glyph-name="jcircumflex.sc" horiz-adv-x="467" 
d="M415 649l-64 -453q-15 -106 -72 -156.5t-145 -50.5q-90 0 -134 44l13 45q48 -45 118 -45q142 0 166 163l64 453h54zM382 840h52l88 -134h-49l-69 111l-97 -111h-49z" />
    <glyph glyph-name="kcommaaccent.sc" horiz-adv-x="640" 
d="M558 0h-74l-215 319h-118l-44 -319h-53l91 649h53l-40 -286h122l286 286h68l-307 -306zM283 -45q39 0 39 -28q0 -32 -86 -124l-13 9q35 51 47 81h-2q-15 0 -24 7t-9 18q0 16 12 26.5t36 10.5z" />
    <glyph glyph-name="kgreenlandic.sc" horiz-adv-x="640" 
d="M107 0h-53l91 649l54 5l-36 -259q-4 -28 -7 -41h1q86 38 195 128.5t155 168.5h56q-47 -83 -150.5 -175.5t-206.5 -142.5q66 -123 164 -205t188 -94l-13 -42q-118 19 -226 110.5t-165 228.5h-2q-2 -30 -4 -41z" />
    <glyph glyph-name="lacute.sc" horiz-adv-x="536" 
d="M114 46h350l-9 -46h-401l91 649h54zM307 840h76l-151 -134h-49z" />
    <glyph glyph-name="lcommaaccent.sc" horiz-adv-x="536" 
d="M114 46h350l-9 -46h-401l91 649h54zM246 -45q39 0 39 -28q0 -32 -86 -124l-13 9q35 51 47 81h-2q-15 0 -24 7t-9 18q0 16 12 26.5t36 10.5z" />
    <glyph glyph-name="lcaron.sc" horiz-adv-x="536" 
d="M114 46h350l-9 -46h-401l91 649h54zM361 690q34 0 34 -30q0 -35 -79 -122l-16 9q35 50 48 81h-1q-30 0 -30 26q0 15 11.5 25.5t32.5 10.5z" />
    <glyph glyph-name="ldot.sc" horiz-adv-x="536" 
d="M114 46h350l-9 -46h-401l91 649h54zM401 427q36 0 36 -30q0 -49 -48 -49q-37 0 -37 30q0 49 49 49z" />
    <glyph glyph-name="lslash.sc" horiz-adv-x="550" 
d="M127 46h350l-9 -46h-401l41 293l-79 -36l3 43l82 37l44 312h54l-41 -288l229 111l-1 -45l-234 -111z" />
    <glyph glyph-name="nacute.sc" horiz-adv-x="707" 
d="M553 0h-43q-322 560 -327 572l-2 -1q-2 -30 -4 -41l-74 -530h-49l91 649h54l318 -560l2 1q0 20 3 40l73 520h49zM487 840h76l-151 -134h-49z" />
    <glyph glyph-name="ncommaaccent.sc" horiz-adv-x="707" 
d="M553 0h-43q-322 560 -327 572l-2 -1q-2 -30 -4 -41l-74 -530h-49l91 649h54l318 -560l2 1q0 20 3 40l73 520h49zM287 -45q39 0 39 -28q0 -32 -86 -124l-13 9q35 51 47 81h-2q-15 0 -24 7t-9 18q0 16 12 26.5t36 10.5z" />
    <glyph glyph-name="ncaron.sc" horiz-adv-x="707" 
d="M553 0h-43q-322 560 -327 572l-2 -1q-2 -30 -4 -41l-74 -530h-49l91 649h54l318 -560l2 1q0 20 3 40l73 520h49zM432 706h-51l-88 134h50l66 -110l99 110h50z" />
    <glyph glyph-name="napostrophe.sc" horiz-adv-x="707" 
d="M553 0h-43q-322 560 -327 572l-2 -1q-2 -30 -4 -41l-74 -530h-49l91 649h54l318 -560l2 1q0 20 3 40l73 520h49zM81 821q34 0 34 -30q0 -35 -79 -122l-16 9q35 50 48 81h-1q-30 0 -30 26q0 15 11.5 25.5t32.5 10.5z" />
    <glyph glyph-name="eng.sc" horiz-adv-x="707" 
d="M558 40q-11 -78 -53 -116t-99 -38q-59 0 -96 27l8 33q34 -25 82 -25q79 0 103 84l-320 567l-2 -1q-2 -30 -4 -41l-74 -530h-49l91 649h54l318 -560l2 1q0 20 3 40l73 520h49z" />
    <glyph glyph-name="omacron.sc" horiz-adv-x="661" 
d="M373 659q125 0 181 -53t56 -172q0 -48 -9 -110q-25 -180 -99 -257.5t-223 -77.5q-125 0 -181 53.5t-56 173.5q0 55 8 108q26 180 100 257.5t223 77.5zM367 614q-121 0 -180 -63t-82 -227q-8 -53 -8 -105q0 -102 44.5 -144t143.5 -42q119 0 177.5 64t81.5 227q9 62 9 107
q0 101 -44 142t-142 41zM521 796l-4 -33h-260l4 33h260z" />
    <glyph glyph-name="obreve.sc" horiz-adv-x="661" 
d="M373 659q125 0 181 -53t56 -172q0 -48 -9 -110q-25 -180 -99 -257.5t-223 -77.5q-125 0 -181 53.5t-56 173.5q0 55 8 108q26 180 100 257.5t223 77.5zM367 614q-121 0 -180 -63t-82 -227q-8 -53 -8 -105q0 -102 44.5 -144t143.5 -42q119 0 177.5 64t81.5 227q9 62 9 107
q0 101 -44 142t-142 41zM478 840h43q-9 -65 -47 -101.5t-102 -36.5q-113 0 -113 104q0 16 3 34h42q-2 -10 -2 -27q0 -39 20 -59t55 -20q39 0 66.5 27.5t34.5 78.5z" />
    <glyph glyph-name="ohungarumlaut.sc" horiz-adv-x="661" 
d="M373 659q125 0 181 -53t56 -172q0 -48 -9 -110q-25 -180 -99 -257.5t-223 -77.5q-125 0 -181 53.5t-56 173.5q0 55 8 108q26 180 100 257.5t223 77.5zM367 614q-121 0 -180 -63t-82 -227q-8 -53 -8 -105q0 -102 44.5 -144t143.5 -42q119 0 177.5 64t81.5 227q9 62 9 107
q0 101 -44 142t-142 41zM401 832h64l-133 -134h-39zM536 832h64l-136 -134h-43z" />
    <glyph glyph-name="oe.sc" horiz-adv-x="1019" 
d="M917 0h-417l10 73q1 16 7 41l-2 1q-72 -126 -245 -126q-120 0 -174 53.5t-54 172.5q0 56 8 109q26 179 98.5 257t215.5 78q176 0 211 -119h2q1 17 5 41l9 68h400l-4 -45h-352l-34 -243h304l-6 -41h-304l-38 -275h368zM541 324q9 63 9 110q0 99 -43 139.5t-141 40.5
q-120 0 -178.5 -63t-81.5 -227q-9 -60 -9 -106q0 -101 44.5 -143t143.5 -42q118 0 175.5 64t80.5 227z" />
    <glyph glyph-name="racute.sc" horiz-adv-x="616" 
d="M145 649h226q175 0 175 -136q0 -93 -46.5 -146t-127.5 -63l150 -304h-68l-139 295h-166l-41 -295h-54zM193 606l-38 -270h167q85 0 127 41.5t42 130.5q0 51 -30 74.5t-97 23.5h-171zM394 840h76l-151 -134h-49z" />
    <glyph glyph-name="rcommaaccent.sc" horiz-adv-x="616" 
d="M145 649h226q175 0 175 -136q0 -93 -46.5 -146t-127.5 -63l150 -304h-68l-139 295h-166l-41 -295h-54zM193 606l-38 -270h167q85 0 127 41.5t42 130.5q0 51 -30 74.5t-97 23.5h-171zM262 -45q39 0 39 -28q0 -32 -86 -124l-13 9q35 51 47 81h-2q-15 0 -24 7t-9 18
q0 16 12 26.5t36 10.5z" />
    <glyph glyph-name="rcaron.sc" horiz-adv-x="616" 
d="M145 649h226q175 0 175 -136q0 -93 -46.5 -146t-127.5 -63l150 -304h-68l-139 295h-166l-41 -295h-54zM193 606l-38 -270h167q85 0 127 41.5t42 130.5q0 51 -30 74.5t-97 23.5h-171zM351 706h-51l-88 134h50l66 -110l99 110h50z" />
    <glyph glyph-name="sacute.sc" horiz-adv-x="532" 
d="M322 659q104 0 171 -37l-15 -42q-81 35 -161 35q-87 0 -133 -40.5t-46 -98.5q0 -40 33 -65t79.5 -39.5l93 -30.5t79.5 -50t33 -86q0 -98 -68.5 -157t-182.5 -59q-113 0 -191 51l18 45q76 -53 179 -53q86 0 138.5 44.5t52.5 117.5q0 42 -33 69t-80 42l-93.5 30.5
t-79.5 47.5t-33 82q0 83 62.5 138.5t176.5 55.5zM406 840h76l-151 -134h-49z" />
    <glyph glyph-name="scircumflex.sc" horiz-adv-x="532" 
d="M322 659q104 0 171 -37l-15 -42q-81 35 -161 35q-87 0 -133 -40.5t-46 -98.5q0 -40 33 -65t79.5 -39.5l93 -30.5t79.5 -50t33 -86q0 -98 -68.5 -157t-182.5 -59q-113 0 -191 51l18 45q76 -53 179 -53q86 0 138.5 44.5t52.5 117.5q0 42 -33 69t-80 42l-93.5 30.5
t-79.5 47.5t-33 82q0 83 62.5 138.5t176.5 55.5zM322 840h52l88 -134h-49l-69 111l-97 -111h-49z" />
    <glyph glyph-name="scedilla.sc" horiz-adv-x="532" 
d="M105 -193l82 182q-103 4 -173 51l18 45q76 -53 179 -53q86 0 138.5 44.5t52.5 117.5q0 42 -33 69t-80 42l-93.5 30.5t-79.5 47.5t-33 82q0 83 62.5 138.5t176.5 55.5q104 0 171 -37l-15 -42q-81 35 -161 35q-87 0 -133 -40.5t-46 -98.5q0 -40 33 -65t79.5 -39.5l93 -30.5
t79.5 -50t33 -86q0 -93 -62.5 -151.5t-167.5 -63.5l-64 -183h-57z" />
    <glyph glyph-name="scaron.sc" horiz-adv-x="532" 
d="M322 659q104 0 171 -37l-15 -42q-81 35 -161 35q-87 0 -133 -40.5t-46 -98.5q0 -40 33 -65t79.5 -39.5l93 -30.5t79.5 -50t33 -86q0 -98 -68.5 -157t-182.5 -59q-113 0 -191 51l18 45q76 -53 179 -53q86 0 138.5 44.5t52.5 117.5q0 42 -33 69t-80 42l-93.5 30.5
t-79.5 47.5t-33 82q0 83 62.5 138.5t176.5 55.5zM359 706h-51l-88 134h50l66 -110l99 110h50z" />
    <glyph glyph-name="tcommaaccent.sc" horiz-adv-x="532" 
d="M548 604h-221l-84 -604h-8l-68 -193h-57l86 193h-8l84 604h-221l8 45h495z" />
    <glyph glyph-name="tcaron.sc" horiz-adv-x="532" 
d="M548 604h-221l-84 -604h-55l84 604h-221l8 45h495zM340 706h-51l-88 134h50l66 -110l99 110h50z" />
    <glyph glyph-name="tbar.sc" horiz-adv-x="532" 
d="M548 604h-221l-25 -182h123l-6 -38h-123l-53 -384h-55l53 384h-122l6 38h122l25 182h-221l8 45h495z" />
    <glyph glyph-name="utilde.sc" horiz-adv-x="694" 
d="M643 650l-57 -404q-36 -257 -290 -257q-225 0 -225 196q0 24 5 61l57 404h54l-57 -405q-4 -25 -4 -54q0 -157 176 -157q201 0 230 211l57 405h54zM462 727q-29 0 -62.5 34.5t-52.5 34.5q-33 0 -51 -60h-34q11 43 35 67.5t55 24.5q29 0 62 -35t52 -35q32 0 52 61h34
q-11 -43 -35 -67.5t-55 -24.5z" />
    <glyph glyph-name="umacron.sc" horiz-adv-x="694" 
d="M643 650l-57 -404q-36 -257 -290 -257q-225 0 -225 196q0 24 5 61l57 404h54l-57 -405q-4 -25 -4 -54q0 -157 176 -157q201 0 230 211l57 405h54zM532 796l-4 -33h-260l4 33h260z" />
    <glyph glyph-name="ubreve.sc" horiz-adv-x="694" 
d="M643 650l-57 -404q-36 -257 -290 -257q-225 0 -225 196q0 24 5 61l57 404h54l-57 -405q-4 -25 -4 -54q0 -157 176 -157q201 0 230 211l57 405h54zM499 840h43q-9 -65 -47 -101.5t-102 -36.5q-113 0 -113 104q0 16 3 34h42q-2 -10 -2 -27q0 -39 20 -59t55 -20
q39 0 66.5 27.5t34.5 78.5z" />
    <glyph glyph-name="uring.sc" horiz-adv-x="694" 
d="M643 650l-57 -404q-36 -257 -290 -257q-225 0 -225 196q0 24 5 61l57 404h54l-57 -405q-4 -25 -4 -54q0 -157 176 -157q201 0 230 211l57 405h54zM410 831q36 0 57.5 -18t21.5 -46q0 -37 -28.5 -61t-71.5 -24q-36 0 -56.5 16.5t-20.5 45.5q0 38 27 62.5t71 24.5zM408 805
q-29 0 -46 -16t-17 -41q0 -41 49 -41q28 0 45 16t17 41q0 18 -12.5 29.5t-35.5 11.5z" />
    <glyph glyph-name="uhungarumlaut.sc" horiz-adv-x="694" 
d="M643 650l-57 -404q-36 -257 -290 -257q-225 0 -225 196q0 24 5 61l57 404h54l-57 -405q-4 -25 -4 -54q0 -157 176 -157q201 0 230 211l57 405h54zM397 832h64l-133 -134h-39zM532 832h64l-136 -134h-43z" />
    <glyph glyph-name="uogonek.sc" horiz-adv-x="694" 
d="M344 -176q-84 0 -84 64q0 59 66 102q-8 -1 -30 -1q-225 0 -225 196q0 24 5 61l57 404h54l-57 -405q-4 -25 -4 -54q0 -157 176 -157q201 0 230 211l57 405h54l-57 -404q-28 -201 -188 -245q-38 -10 -66 -37t-28 -66q0 -41 56 -41q40 0 70 18l1 -29q-42 -22 -87 -22z" />
    <glyph glyph-name="wcircumflex.sc" horiz-adv-x="930" 
d="M476 649h62l75 -562q4 -34 4 -41h2q7 22 14 38l220 565h56l-262 -649h-70l-73 559q-2 11 -4 41h-2q-5 -17 -14 -38l-231 -562h-69l-80 649h58l60 -564q3 -39 3 -41h2q7 22 14 38zM499 840h52l88 -134h-49l-69 111l-97 -111h-49z" />
    <glyph glyph-name="ycircumflex.sc" horiz-adv-x="614" 
d="M74 649h65l142 -336q12 -28 15 -38h2q8 15 22 34l239 340h63l-303 -419l-32 -230h-58l32 230zM343 840h52l88 -134h-49l-69 111l-97 -111h-49z" />
    <glyph glyph-name="zacute.sc" horiz-adv-x="581" 
d="M469 0h-462l4 34l454 539q13 17 27 29l-1 2h-387l10 45h446l-6 -39l-448 -534q-22 -25 -27 -29l1 -2h397zM420 840h76l-151 -134h-49z" />
    <glyph glyph-name="zdotaccent.sc" horiz-adv-x="581" 
d="M469 0h-462l4 34l454 539q13 17 27 29l-1 2h-387l10 45h446l-6 -39l-448 -534q-22 -25 -27 -29l1 -2h397zM360 826q37 0 37 -29q0 -45 -48 -45q-38 0 -38 28q0 22 13.5 34t35.5 12z" />
    <glyph glyph-name="zcaron.sc" horiz-adv-x="581" 
d="M469 0h-462l4 34l454 539q13 17 27 29l-1 2h-387l10 45h446l-6 -39l-448 -534q-22 -25 -27 -29l1 -2h397zM366 706h-51l-88 134h50l66 -110l99 110h50z" />
    <glyph glyph-name="longs.sc" horiz-adv-x="532" 
d="M322 659q104 0 171 -37l-15 -42q-81 35 -161 35q-87 0 -133 -40.5t-46 -98.5q0 -40 33 -65t79.5 -39.5l93 -30.5t79.5 -50t33 -86q0 -98 -68.5 -157t-182.5 -59q-113 0 -191 51l18 45q76 -53 179 -53q86 0 138.5 44.5t52.5 117.5q0 42 -33 69t-80 42l-93.5 30.5
t-79.5 47.5t-33 82q0 83 62.5 138.5t176.5 55.5z" />
    <glyph glyph-name="uni01B6.sc" horiz-adv-x="581" 
d="M469 0h-462l4 34l242 288h-165l7 36h189l181 215q13 17 27 29l-1 2h-387l10 45h446l-6 -39l-212 -252h155l-7 -36h-178l-206 -246q-22 -25 -27 -29l1 -2h397z" />
    <glyph glyph-name="aringacute.sc" horiz-adv-x="652" 
d="M470 873h81l-128 -103q38 -17 38 -56q0 -57 -60 -79l173 -635h-63l-44 178h-336l-95 -178h-59l348 634q-41 14 -41 57q0 37 26.5 61.5t70.5 25.5zM361 607h-2q-2 -5 -5 -10.5l-7 -13t-6 -12.5l-189 -351h303l-85 347q-9 37 -9 40zM380 752q-29 0 -46 -16t-17 -41
q0 -41 49 -41q28 0 45 16t17 41q0 18 -12.5 29.5t-35.5 11.5z" />
    <glyph glyph-name="aeacute.sc" horiz-adv-x="941" 
d="M916 604h-380l-2 -243h294l-5 -40h-289l-1 -276h313l-7 -45h-361v178h-308l-129 -178h-68l484 649h463zM482 607l-2 1q-5 -8 -24 -34l-257 -355h280l1 347q0 15 2 41zM680 840h76l-151 -134h-49z" />
    <glyph glyph-name="oslashacute.sc" horiz-adv-x="661" 
d="M22 -13l-24 24l68 75q-25 50 -25 129q0 49 9 109q26 180 100 257.5t223 77.5q134 0 190 -63l69 70l24 -25l-74 -74q27 -48 27 -133q0 -55 -8 -110q-25 -180 -99 -257.5t-223 -77.5q-139 0 -194 67zM544 324q9 62 9 107q0 60 -15 99l-415 -432q40 -65 162 -65
q119 0 177.5 64t81.5 227zM105 324q-9 -60 -9 -106q0 -54 13 -95l414 433q-40 58 -156 58q-121 0 -180 -63t-82 -227zM453 840h76l-151 -134h-49z" />
    <glyph glyph-name="scommaaccent.sc" horiz-adv-x="532" 
d="M322 659q104 0 171 -37l-15 -42q-81 35 -161 35q-87 0 -133 -40.5t-46 -98.5q0 -40 33 -65t79.5 -39.5l93 -30.5t79.5 -50t33 -86q0 -98 -68.5 -157t-182.5 -59q-113 0 -191 51l18 45q76 -53 179 -53q86 0 138.5 44.5t52.5 117.5q0 42 -33 69t-80 42l-93.5 30.5
t-79.5 47.5t-33 82q0 83 62.5 138.5t176.5 55.5zM208 -45q39 0 39 -28q0 -32 -86 -124l-13 9q35 51 47 81h-2q-15 0 -24 7t-9 18q0 16 12 26.5t36 10.5z" />
    <glyph glyph-name="uni021B.sc" horiz-adv-x="532" 
d="M548 604h-221l-84 -604h-55l84 604h-221l8 45h495zM209 -45q39 0 39 -28q0 -32 -86 -124l-13 9q35 51 47 81h-2q-15 0 -24 7t-9 18q0 16 12 26.5t36 10.5z" />
    <glyph glyph-name="uni0237.sc" horiz-adv-x="467" 
d="M415 649l-64 -453q-15 -106 -72 -156.5t-145 -50.5q-90 0 -134 44l13 45q48 -45 118 -45q142 0 166 163l64 453h54z" />
    <glyph glyph-name="uni0259.sc" horiz-adv-x="661" 
d="M54 344h494q4 33 4 69q0 111 -52.5 156.5t-159.5 45.5q-120 0 -200 -35l-4 39q87 40 216 40q126 0 191 -59t65 -186q0 -44 -7 -90q-26 -182 -98.5 -259t-223.5 -77q-126 0 -182.5 52t-56.5 170q0 79 14 134zM285 31q118 0 175 58.5t82 215.5h-439q-7 -49 -7 -94
q0 -98 44 -139t145 -41z" />
    <glyph glyph-name="circumflex.sc" horiz-adv-x="391" 
d="M237 840h52l88 -134h-49l-69 111l-97 -111h-49z" />
    <glyph glyph-name="caron.sc" horiz-adv-x="391" 
d="M271 706h-51l-88 134h50l66 -110l99 110h50z" />
    <glyph glyph-name="breve.sc" horiz-adv-x="391" 
d="M350 840h43q-9 -65 -47 -101.5t-102 -36.5q-113 0 -113 104q0 16 3 34h42q-2 -10 -2 -27q0 -39 20 -59t55 -20q39 0 66.5 27.5t34.5 78.5z" />
    <glyph glyph-name="dotaccent.sc" horiz-adv-x="387" 
d="M259 826q37 0 37 -29q0 -45 -48 -45q-38 0 -38 28q0 22 13.5 34t35.5 12z" />
    <glyph glyph-name="ring.sc" horiz-adv-x="391" 
d="M262 831q36 0 57.5 -18t21.5 -46q0 -37 -28.5 -61t-71.5 -24q-36 0 -56.5 16.5t-20.5 45.5q0 38 27 62.5t71 24.5zM260 805q-29 0 -46 -16t-17 -41q0 -41 49 -41q28 0 45 16t17 41q0 18 -12.5 29.5t-35.5 11.5z" />
    <glyph glyph-name="ogonek.sc" horiz-adv-x="390" 
d="M183 16l19 -16q-36 0 -61 -30.5t-25 -64.5q0 -47 58 -47q34 0 67 17l2 -31q-43 -23 -89 -23q-87 0 -87 69q0 44 32.5 80.5t83.5 45.5z" />
    <glyph glyph-name="tilde.sc" horiz-adv-x="393" 
d="M315 727q-29 0 -62.5 34.5t-52.5 34.5q-33 0 -51 -60h-34q11 43 35 67.5t55 24.5q29 0 62 -35t52 -35q32 0 52 61h34q-11 -43 -35 -67.5t-55 -24.5z" />
    <glyph glyph-name="hungarumlaut.sc" horiz-adv-x="393" 
d="M270 841h64l-133 -134h-39zM405 841h64l-136 -134h-43z" />
    <glyph glyph-name="wgrave.sc" horiz-adv-x="930" 
d="M476 649h62l75 -562q4 -34 4 -41h2q7 22 14 38l220 565h56l-262 -649h-70l-73 559q-2 11 -4 41h-2q-5 -17 -14 -38l-231 -562h-69l-80 649h58l60 -564q3 -39 3 -41h2q7 22 14 38zM529 706h-43l-94 135h68z" />
    <glyph glyph-name="wacute.sc" horiz-adv-x="930" 
d="M476 649h62l75 -562q4 -34 4 -41h2q7 22 14 38l220 565h56l-262 -649h-70l-73 559q-2 11 -4 41h-2q-5 -17 -14 -38l-231 -562h-69l-80 649h58l60 -564q3 -39 3 -41h2q7 22 14 38zM618 840h76l-151 -134h-49z" />
    <glyph glyph-name="wdieresis.sc" horiz-adv-x="930" 
d="M476 649h62l75 -562q4 -34 4 -41h2q7 22 14 38l220 565h56l-262 -649h-70l-73 559q-2 11 -4 41h-2q-5 -17 -14 -38l-231 -562h-69l-80 649h58l60 -564q3 -39 3 -41h2q7 22 14 38zM447 819q27 0 27 -24q0 -39 -36 -39q-29 0 -29 25q0 18 10.5 28t27.5 10zM596 819
q27 0 27 -24q0 -39 -36 -39q-29 0 -29 24q0 39 38 39z" />
    <glyph glyph-name="uni1E8B.sc" horiz-adv-x="648" 
d="M481 0l-148 269l-18 35h-2q-7 -12 -26 -33l-218 -271h-69l278 341l-177 308h70l135 -244q13 -23 18 -36h2q7 11 26 34l202 246h67l-262 -314l189 -335h-67zM384 826q37 0 37 -29q0 -45 -48 -45q-38 0 -38 28q0 22 13.5 34t35.5 12z" />
    <glyph glyph-name="ygrave.sc" horiz-adv-x="614" 
d="M74 649h65l142 -336q12 -28 15 -38h2q8 15 22 34l239 340h63l-303 -419l-32 -230h-58l32 230zM390 706h-43l-94 135h68z" />
    <glyph glyph-name="fi.sc" horiz-adv-x="849" 
d="M547 603h-355l-34 -246h316l-7 -44h-316l-43 -313h-53l90 649h407zM625 0l91 649h55l-91 -649h-55z" />
    <glyph glyph-name="fl.sc" horiz-adv-x="1092" 
d="M547 603h-355l-34 -246h316l-7 -44h-316l-43 -313h-53l90 649h407zM670 46h350l-9 -46h-401l91 649h54z" />
    <glyph glyph-name="i.latn_TRK.sc" horiz-adv-x="293" 
d="M69 0l91 649h55l-91 -649h-55zM214 826q37 0 37 -29q0 -45 -48 -45q-38 0 -38 28q0 22 13.5 34t35.5 12z" />
    <glyph glyph-name="ldot.latn_CAT.sc" horiz-adv-x="536" 
d="M114 46h350l-9 -46h-401l91 649h54zM401 427q36 0 36 -30q0 -49 -48 -49q-37 0 -37 30q0 49 49 49z" />
    <glyph glyph-name="parenleft.case" horiz-adv-x="315" 
d="M331 840l48 -3q-230 -254 -230 -573q0 -192 99 -352l-48 -3q-100 140 -100 350q0 329 231 581z" />
    <glyph glyph-name="parenright.case" horiz-adv-x="315" 
d="M70 837l50 3q100 -157 100 -345q0 -170 -63.5 -324.5t-167.5 -261.5l-47 3q226 253 226 573q0 191 -98 352z" />
    <glyph glyph-name="hyphen.case" horiz-adv-x="415" 
d="M88 396h251l-5 -39h-251z" />
    </font>
</defs>
</svg>
